<?xml version="1.0" encoding="UTF-8"?>
<svg width="32px" height="24px" viewBox="0 0 32 24" version="1.1" xmlns="http://www.w3.org/2000/svg" xmlns:xlink="http://www.w3.org/1999/xlink">
    <title>california-rolls</title>
    <g id="Page-1" stroke="none" stroke-width="1" fill="none" fill-rule="evenodd">
        <g id="california-rolls" fill="#3F4870" fill-rule="nonzero">
            <path d="M16,0.077 C20.203,0.077 23.531,1.994 23.597,4.51 L23.598,4.586 L23.598,8.75 L23.626,8.748 C23.814,8.737 23.999,8.729 24.183,8.726 L24.293,8.725 L24.402,8.724 C28.605,8.724 31.933,10.641 31.999,13.157 L32,13.233 L32,20.028 C32,21.194 31.115,22.227 29.539,22.943 C28.151,23.574 26.328,23.92 24.402,23.92 C22.476,23.92 20.652,23.574 19.265,22.943 C17.704,22.234 16.822,21.214 16.804,20.063 L16.804,20.028 L16.804,15.25 L16.787,15.251 C16.291,15.276 15.82,15.278 15.324,15.256 L15.217,15.251 L15.198,15.25 L15.198,20.028 C15.198,21.171 14.348,22.185 12.83,22.9 L12.784,22.922 L12.737,22.944 C11.349,23.575 9.526,23.921 7.6,23.921 C5.674,23.921 3.85,23.575 2.463,22.944 C0.902,22.235 0.02,21.215 0.002,20.064 L0.002,13.234 C0.002,10.68 3.355,8.724 7.6,8.724 C7.826,8.724 8.07,8.733 8.324,8.751 L8.403,8.757 L8.403,4.586 C8.403,2.083 11.624,0.154 15.749,0.079 L15.874,0.077 L16.001,0.076 L16,0.077 Z M7.598,10.332 C6.372,10.332 4.87,10.605 3.716,11.072 C2.371,11.616 1.606,12.361 1.606,13.236 C1.606,14.383 3.228,15.469 5.305,15.907 C5.739,15.999 6.017,16.424 5.925,16.858 C5.833,17.292 5.407,17.57 4.974,17.478 C3.713,17.213 2.51,16.716 1.615,16.054 L1.605,16.047 L1.605,20.031 C1.605,20.25 1.732,20.492 1.97,20.732 L2.005,20.766 C2.1,20.857 2.21,20.948 2.335,21.038 L2.383,21.071 C2.407,21.088 2.432,21.104 2.457,21.121 L2.508,21.154 C2.577,21.198 2.65,21.241 2.726,21.284 L2.784,21.316 L2.813,21.332 L2.873,21.363 C2.893,21.373 2.914,21.384 2.934,21.394 L2.996,21.425 C3.027,21.44 3.059,21.455 3.092,21.47 L3.125,21.485 C4.304,22.021 5.894,22.318 7.598,22.318 C9.302,22.318 10.892,22.021 12.071,21.485 C12.115,21.465 12.157,21.445 12.199,21.425 L12.261,21.394 C12.271,21.389 12.282,21.384 12.292,21.379 L12.352,21.348 C12.372,21.338 12.392,21.327 12.411,21.317 L12.469,21.285 C12.517,21.258 12.563,21.232 12.608,21.204 L12.661,21.171 C12.67,21.166 12.678,21.16 12.687,21.155 L12.738,21.122 C12.847,21.05 12.947,20.977 13.036,20.904 L13.077,20.87 C13.402,20.592 13.582,20.305 13.589,20.048 L13.589,20.032 L13.589,16.042 L13.576,16.052 C12.7,16.695 11.528,17.186 10.287,17.465 L10.228,17.478 C9.796,17.573 9.367,17.299 9.272,16.865 C9.177,16.431 9.452,16.004 9.885,15.909 C11.941,15.459 13.536,14.409 13.589,13.311 L13.59,13.278 L13.59,13.233 C13.581,12.352 12.802,11.609 11.441,11.066 C10.283,10.604 8.778,10.333 7.598,10.333 L7.598,10.332 Z M30.394,16.047 L30.351,16.08 C28.939,17.128 26.782,17.746 24.402,17.746 C22.022,17.746 19.865,17.128 18.453,16.08 L18.41,16.047 L18.41,20.031 C18.41,20.391 18.754,20.811 19.365,21.186 L19.419,21.218 C19.446,21.234 19.474,21.25 19.502,21.266 L19.559,21.298 C19.598,21.319 19.637,21.34 19.677,21.361 L19.738,21.392 C19.769,21.407 19.8,21.423 19.832,21.438 L19.896,21.468 L19.929,21.483 C21.108,22.019 22.698,22.316 24.402,22.316 C26.106,22.316 27.696,22.019 28.875,21.483 L28.94,21.453 C28.961,21.443 28.983,21.433 29.004,21.423 L29.066,21.392 L29.127,21.361 C29.187,21.33 29.246,21.298 29.302,21.266 L29.358,21.234 C30.011,20.852 30.384,20.418 30.394,20.046 L30.394,20.03 L30.394,16.046 L30.394,16.047 Z M7.598,16.324 C7.934,16.324 8.207,16.592 8.216,16.926 L8.216,16.926 L8.216,16.941 C8.216,17.282 7.939,17.559 7.598,17.559 C7.257,17.559 6.98,17.282 6.98,16.941 L6.98,16.941 L6.98,16.926 C6.988,16.592 7.262,16.323 7.598,16.323 L7.598,16.324 Z M24.402,10.332 C23.892,10.332 23.387,10.365 22.902,10.429 C21.921,10.559 20.812,10.887 19.971,11.333 C18.97,11.863 18.41,12.512 18.41,13.235 C18.41,14.048 19.081,14.753 20.268,15.288 L20.344,15.322 C20.395,15.344 20.448,15.367 20.501,15.388 C21.656,15.861 23.16,16.138 24.402,16.138 C25.628,16.138 27.13,15.865 28.284,15.398 C29.629,14.854 30.394,14.109 30.394,13.234 C30.394,12.421 29.723,11.716 28.536,11.181 L28.46,11.147 C28.409,11.125 28.356,11.102 28.303,11.081 C27.148,10.608 25.644,10.331 24.402,10.331 L24.402,10.332 Z M24.402,11.382 C26.187,11.382 28.109,11.962 28.109,13.235 C28.109,14.508 26.188,15.088 24.402,15.088 C22.617,15.088 20.695,14.508 20.695,13.235 C20.695,11.962 22.616,11.382 24.402,11.382 Z M7.598,11.382 C9.383,11.382 11.305,11.962 11.305,13.235 C11.305,14.508 9.384,15.088 7.598,15.088 C5.813,15.088 3.891,14.508 3.891,13.235 C3.891,11.962 5.812,11.382 7.598,11.382 Z M24.402,12.618 C22.952,12.618 22.105,13.034 21.946,13.236 C22.105,13.438 22.951,13.854 24.402,13.854 C25.853,13.854 26.699,13.438 26.858,13.236 C26.699,13.034 25.853,12.618 24.402,12.618 Z M7.598,12.618 C6.148,12.618 5.301,13.034 5.142,13.236 C5.301,13.438 6.147,13.854 7.598,13.854 C9.049,13.854 9.895,13.438 10.054,13.236 C9.895,13.034 9.049,12.618 7.598,12.618 Z M21.992,7.398 L21.949,7.431 C20.537,8.479 18.38,9.097 16,9.097 C13.62,9.097 11.463,8.479 10.051,7.431 L10.008,7.398 L10.008,8.981 L10.054,8.99 C11.34,9.253 12.515,9.69 13.407,10.283 L13.452,10.313 C14.585,11.082 15.211,12.08 15.197,13.288 L15.196,13.325 L15.196,13.644 L15.238,13.646 C15.74,13.673 16.254,13.673 16.759,13.646 L16.802,13.643 L16.802,13.235 C16.802,12.084 17.432,11.098 18.547,10.321 L18.581,10.298 C19.494,9.671 20.702,9.205 21.955,8.958 L21.991,8.951 L21.991,7.398 L21.992,7.398 Z M16,1.683 C14.774,1.683 13.272,1.956 12.118,2.423 C10.773,2.967 10.008,3.712 10.008,4.587 C10.008,5.4 10.679,6.105 11.866,6.64 L11.942,6.674 C11.993,6.696 12.046,6.719 12.099,6.74 C13.254,7.213 14.758,7.49 16,7.49 C17.226,7.49 18.728,7.217 19.882,6.75 C21.227,6.206 21.992,5.461 21.992,4.586 C21.992,3.773 21.321,3.068 20.134,2.533 L20.058,2.499 C20.007,2.477 19.954,2.454 19.901,2.433 C18.746,1.96 17.242,1.683 16,1.683 L16,1.683 Z M16,2.734 C17.785,2.734 19.707,3.314 19.707,4.587 C19.707,5.86 17.786,6.44 16,6.44 C14.215,6.44 12.293,5.86 12.293,4.587 C12.293,3.314 14.214,2.734 16,2.734 Z M16,3.969 C14.55,3.969 13.703,4.385 13.544,4.587 C13.703,4.789 14.549,5.205 16,5.205 C17.451,5.205 18.297,4.789 18.456,4.587 C18.297,4.385 17.451,3.969 16,3.969 L16,3.969 Z" id="Shape"></path>
        </g>
    </g>
</svg>