<?xml version="1.0" encoding="UTF-8"?>
<svg width="32px" height="32px" viewBox="0 0 32 32" version="1.1" xmlns="http://www.w3.org/2000/svg" xmlns:xlink="http://www.w3.org/1999/xlink">
    <title>icon-plateaux-sushi</title>
    <g id="Page-1" stroke="none" stroke-width="1" fill="none" fill-rule="evenodd">
        <g id="icon-plateaux-sushi" fill="#3F4870" fill-rule="nonzero">
            <path d="M15.746,22.676 L15.851,22.781 C16.156,23.086 16.156,23.582 15.851,23.887 C15.698,24.04 15.498,24.116 15.298,24.116 C15.098,24.116 14.898,24.04 14.745,23.887 L14.64,23.782 C14.335,23.477 14.335,22.981 14.64,22.676 C14.945,22.371 15.441,22.371 15.746,22.676 L15.746,22.676 Z M10.989,12.947 L10.989,8.719 C10.989,7.122 12.288,5.823 13.885,5.823 L18.114,5.823 C19.711,5.823 21.01,7.122 21.01,8.719 L21.01,12.947 C21.01,14.544 19.711,15.843 18.114,15.843 L13.885,15.843 C12.288,15.843 10.989,14.544 10.989,12.947 Z M12.553,12.947 C12.553,13.682 13.151,14.279 13.885,14.279 L18.114,14.279 C18.849,14.279 19.446,13.681 19.446,12.947 L19.446,8.719 C19.446,7.984 18.848,7.387 18.114,7.387 L13.885,7.387 C13.15,7.387 12.553,7.985 12.553,8.719 L12.553,12.947 Z M17.105,22.474 C17.258,22.627 17.458,22.703 17.658,22.703 C17.858,22.703 18.058,22.627 18.211,22.474 C18.517,22.169 18.517,21.674 18.211,21.368 L18.106,21.263 C17.801,20.958 17.306,20.957 17,21.263 C16.694,21.569 16.694,22.063 17,22.369 L17.105,22.474 Z M25.63,11.505 C25.324,11.81 25.324,12.305 25.63,12.611 L25.735,12.716 C25.888,12.869 26.088,12.945 26.288,12.945 C26.488,12.945 26.688,12.869 26.841,12.716 C27.147,12.411 27.147,11.916 26.841,11.61 L26.736,11.505 C26.431,11.2 25.936,11.199 25.63,11.505 Z M28.095,11.303 C28.248,11.456 28.448,11.532 28.648,11.532 C28.848,11.532 29.048,11.456 29.201,11.303 C29.506,10.998 29.506,10.503 29.201,10.197 L29.096,10.092 C28.791,9.787 28.296,9.787 27.99,10.092 C27.684,10.397 27.685,10.892 27.99,11.198 L28.095,11.303 Z M21.979,10.833 C21.979,8.07 24.227,5.823 26.989,5.823 C29.751,5.823 31.999,8.071 31.999,10.833 C31.999,13.595 29.751,15.843 26.989,15.843 C24.227,15.843 21.979,13.595 21.979,10.833 Z M23.543,10.833 C23.543,12.733 25.089,14.28 26.989,14.28 C28.889,14.28 30.436,12.734 30.436,10.833 C30.436,8.932 28.89,7.387 26.989,7.387 C25.088,7.387 23.543,8.933 23.543,10.833 L23.543,10.833 Z M25.945,10.327 C26.145,10.327 26.345,10.251 26.498,10.098 L26.603,9.993 C26.909,9.688 26.909,9.193 26.603,8.887 C26.297,8.581 25.803,8.581 25.497,8.887 L25.392,8.992 C25.086,9.297 25.086,9.792 25.392,10.098 C25.545,10.251 25.745,10.327 25.945,10.327 Z M13.766,10.833 C13.766,9.601 14.768,8.599 16,8.599 C17.232,8.599 18.234,9.601 18.234,10.833 C18.234,12.065 17.232,13.067 16,13.067 C14.768,13.067 13.766,12.065 13.766,10.833 Z M15.33,10.833 C15.33,11.202 15.63,11.503 16,11.503 C16.37,11.503 16.67,11.203 16.67,10.833 C16.67,10.464 16.37,10.163 16,10.163 C15.63,10.163 15.33,10.463 15.33,10.833 Z M6.47,15.842 C6.484,15.843 6.498,15.843 6.511,15.843 C6.924,15.843 7.269,15.519 7.291,15.102 L8.034,0.823 C8.056,0.392 7.725,0.024 7.294,0.001 C6.864,-0.022 6.495,0.31 6.472,0.741 L5.729,15.02 C5.707,15.451 6.038,15.819 6.469,15.842 L6.47,15.842 Z M27.413,30.436 L23.608,30.436 C23.176,30.436 22.826,30.786 22.826,31.218 C22.826,31.65 23.176,32 23.608,32 L27.413,32 C27.845,32 28.195,31.65 28.195,31.218 C28.195,30.786 27.845,30.436 27.413,30.436 Z M31.218,28.215 L0.782,28.215 C0.35,28.215 0,28.565 0,28.997 C0,29.429 0.35,29.779 0.782,29.779 L31.218,29.779 C31.65,29.779 32,29.429 32,28.997 C32,28.565 31.65,28.215 31.218,28.215 Z M32,19.89 L32,24.119 C32,25.716 30.701,27.015 29.104,27.015 L24.876,27.015 C23.279,27.015 21.98,25.716 21.98,24.119 L21.98,19.89 C21.98,18.293 23.279,16.994 24.876,16.994 L29.104,16.994 C30.701,16.994 32,18.293 32,19.89 Z M30.436,19.89 C30.436,19.155 29.838,18.558 29.104,18.558 L24.876,18.558 C24.141,18.558 23.544,19.156 23.544,19.89 L23.544,24.119 C23.544,24.854 24.142,25.451 24.876,25.451 L29.104,25.451 C29.839,25.451 30.436,24.853 30.436,24.119 L30.436,19.89 Z M14.955,21.498 C15.155,21.498 15.355,21.422 15.508,21.269 L15.613,21.164 C15.918,20.859 15.918,20.364 15.613,20.058 C15.308,19.752 14.813,19.753 14.507,20.058 L14.402,20.163 C14.097,20.468 14.097,20.963 14.402,21.269 C14.555,21.422 14.755,21.498 14.955,21.498 L14.955,21.498 Z M29.223,22.004 C29.223,23.236 28.221,24.238 26.989,24.238 C25.757,24.238 24.755,23.236 24.755,22.004 C24.755,20.772 25.757,19.77 26.989,19.77 C28.221,19.77 29.223,20.772 29.223,22.004 L29.223,22.004 Z M27.659,22.004 C27.659,21.635 27.359,21.334 26.989,21.334 C26.619,21.334 26.319,21.634 26.319,22.004 C26.319,22.373 26.619,22.674 26.989,22.674 C27.359,22.674 27.659,22.374 27.659,22.004 Z M8.391,30.436 L4.587,30.436 C4.155,30.436 3.805,30.786 3.805,31.218 C3.805,31.65 4.155,32 4.587,32 L8.391,32 C8.823,32 9.173,31.65 9.173,31.218 C9.173,30.786 8.823,30.436 8.391,30.436 Z M2.73,15.102 C2.752,15.52 3.097,15.843 3.51,15.843 C3.524,15.843 3.538,15.843 3.551,15.842 C3.982,15.82 4.314,15.452 4.291,15.02 L3.548,0.741 C3.526,0.31 3.157,-0.023 2.726,0.001 C2.295,0.023 1.963,0.391 1.986,0.823 L2.729,15.103 L2.73,15.102 Z M10.989,22.004 C10.989,19.241 13.237,16.994 16,16.994 C18.763,16.994 21.01,19.242 21.01,22.004 C21.01,24.766 18.762,27.014 16,27.014 C13.237,27.014 10.989,24.766 10.989,22.004 L10.989,22.004 Z M12.553,22.004 C12.553,23.904 14.099,25.45 16,25.45 C17.901,25.45 19.446,23.904 19.446,22.004 C19.446,20.104 17.9,18.557 16,18.557 C14.099,18.557 12.553,20.103 12.553,22.004 Z M0,24.118 L0,19.889 C0,18.292 1.299,16.993 2.896,16.993 L7.124,16.993 C8.721,16.993 10.02,18.292 10.02,19.889 L10.02,24.118 C10.02,25.715 8.721,27.014 7.124,27.014 L2.896,27.014 C1.299,27.014 0,25.715 0,24.118 Z M1.564,24.118 C1.564,24.853 2.162,25.45 2.896,25.45 L7.124,25.45 C7.859,25.45 8.456,24.852 8.456,24.118 L8.456,19.889 C8.456,19.154 7.858,18.557 7.124,18.557 L2.896,18.557 C2.161,18.557 1.564,19.155 1.564,19.889 L1.564,24.118 Z M2.777,22.004 C2.777,20.772 3.779,19.77 5.011,19.77 C6.243,19.77 7.245,20.772 7.245,22.004 C7.245,23.236 6.243,24.238 5.011,24.238 C3.779,24.238 2.777,23.236 2.777,22.004 L2.777,22.004 Z M4.34,22.004 C4.34,22.373 4.641,22.674 5.01,22.674 C5.379,22.674 5.68,22.374 5.68,22.004 C5.68,21.635 5.379,21.334 5.01,21.334 C4.641,21.334 4.34,21.634 4.34,22.004 Z" id="Shape"></path>
        </g>
    </g>
</svg>