<svg xmlns="http://www.w3.org/2000/svg" viewBox="0 0 133.66 109.04"><defs><style>.cls-1{fill:#0f562c;}.cls-1,.cls-3{isolation:isolate;}.cls-2{fill:#fff;}.cls-3{fill:#f05223;}</style></defs><g id="Calque_2" data-name="Calque 2"><g id="Calque_1-2" data-name="Calque 1"><path class="cls-1" d="M133.66,54.25l-.37.29v.05l-.21.18v0l-.27.23-.25.29h0l-.53.52h0l-.33.28v0l-.33.29h0l-.13.12-.24.23a.8.8,0,0,0-.13.13l-.23.28s0,0,0,0c-.16.07-.23.23-.35.33a1,1,0,0,1-.47.27c-2.17.32-4.34.66-6.51,1l-3.95.61a.25.25,0,0,1-.33-.19c-.38-1-.77-2-1.15-2.92a.23.23,0,0,0-.29-.17l-5.58.87a.26.26,0,0,0-.25.21s0,.09,0,.14a.89.89,0,0,1-.37.5c-.15.14-.28.3-.43.44l-.42.42-.63.64c-.14.14-.28.27-.41.41l-.46.43-.48.46c-.13.13-.25.28-.39.4a.49.49,0,0,1-.23.13q-5.2.82-10.42,1.62l-.67.1c0-.1.05-.17.08-.25l10.38-26.4c.59-1.49,1.18-3,1.75-4.47a2.22,2.22,0,0,1,.54-.67c.14-.15.3-.29.45-.44s.28-.29.43-.43l.44-.43.44-.45.62-.63.41-.41c.08-.07.2-.13.23-.22s.22-.16.34-.18l3.52-.54,3.26-.51,1.51-.24c.12,0,.15,0,.19.13.28.65.57,1.29.86,1.93Q127.91,41.36,133.54,54Zm-1.09-.56c0-.09-.06-.16-.09-.22l-6.75-15.11q-2.39-5.31-4.75-10.63c-.06-.12-.1-.21-.27-.18l-1.77.28-5.5.85a.31.31,0,0,0-.3.23Q107.37,43.6,101.6,58.29a.93.93,0,0,0-.07.2h.15l1.73-.27,7.44-1.16a.26.26,0,0,0,.25-.2l1.05-3.08c.18-.5.18-.5.72-.58l5-.77,3.75-.59a.21.21,0,0,1,.27.17l1.17,3c0,.14.12.2.27.17l2.28-.36,5.48-.85Z"/><path class="cls-2" d="M132.57,53.69l-1.49.23-5.48.85-2.28.36c-.15,0-.22,0-.27-.17l-1.17-3a.21.21,0,0,0-.27-.17l-3.75.59-5,.77c-.54.08-.54.08-.72.58l-1.05,3.08a.26.26,0,0,1-.25.2l-7.44,1.16-1.73.27h-.15a.93.93,0,0,1,.07-.2q5.76-14.7,11.54-29.38a.31.31,0,0,1,.3-.23l5.5-.85,1.77-.28c.17,0,.21.06.27.18q2.37,5.32,4.75,10.63l6.75,15.11C132.51,53.53,132.53,53.6,132.57,53.69Zm-1.5-.82-.11-.24q-3.39-7.6-6.8-15.21-1.91-4.28-3.82-8.55c0-.12-.09-.2-.25-.18q-3,.48-6,.93a.28.28,0,0,0-.24.19c-.12.35-.25.69-.38,1q-5.11,13-10.22,26l-.13.36L104.3,57l5.76-.88a.3.3,0,0,0,.27-.23c.37-1.12.75-2.24,1.13-3.37a.29.29,0,0,1,.28-.22l2-.31,4-.63,4.25-.65c.46-.08.46-.09.62.34.37.91.73,1.83,1.09,2.74,0,.09,0,.19.2.17l3.46-.55,2.41-.36Z"/><path class="cls-3" d="M131.07,52.87l-1.27.2-2.41.36-3.46.55c-.15,0-.17-.08-.2-.17-.36-.91-.72-1.83-1.09-2.74-.16-.43-.16-.42-.62-.34l-4.25.65-4,.63-2,.31a.29.29,0,0,0-.28.22c-.38,1.13-.76,2.25-1.13,3.37a.3.3,0,0,1-.27.23L104.3,57l-1.13.17.13-.36q5.11-13,10.22-26c.13-.34.26-.68.38-1a.28.28,0,0,1,.24-.19q3-.45,6-.93c.16,0,.2.06.25.18q1.92,4.27,3.82,8.55Q127.57,45,131,52.63Zm-17.83-5.41,7.51-1.16L117,36.8h-.06Z"/><path class="cls-2" d="M113.24,47.46l3.66-10.65H117l3.79,9.5ZM117,39.82H117l-2.19,6.35,4.5-.69Z"/><path class="cls-1" d="M117,39.82l2.25,5.66-4.5.69L117,39.82Z"/><path class="cls-1" d="M71.11,67.35l.29-.51,2.85-5.06c1.38-2.44,2.76-4.87,4.13-7.31q1.77-3.12,3.53-6.24l1.51-2.68a.67.67,0,0,0,0-.19.63.63,0,0,0-.19,0l-2,.31c-.92.14-1.83.27-2.74.42l-2,.32-2.65.4a3.11,3.11,0,0,0-.44.08c-.16,0-.2,0-.2-.18,0-.85,0-1.69,0-2.53,0-2.15,0-4.29,0-6.44a.42.42,0,0,1,.09-.24c.55-.56,1.1-1.12,1.66-1.67.32-.33.66-.64,1-1s.5-.54.76-.81a.31.31,0,0,1,.19-.09l3-.44,2.57-.41,2.08-.31,2.08-.34,2.59-.39,2.06-.34,2.12-.32,1.21-.2L95.69,31,97,30.82c.34-.05.69-.09,1-.15l1.2-.18,1.2-.19,1.22-.2,1.08-.16,1.1-.18a1.82,1.82,0,0,0,.3-.11l0,0a1.34,1.34,0,0,1-.07.18l-2.22,3.92-2.08,3.68c-.92,1.61-1.83,3.23-2.74,4.84L94.1,47.45q-1.17,2.09-2.36,4.15s0,.12,0,.14a.17.17,0,0,0,.14,0l1.08-.17,1.58-.25,1.19-.18L97,51c.5-.07,1-.16,1.49-.24l2.23-.34.69-.12c.18,0,.22,0,.22.18v9a.35.35,0,0,1-.14.28c-.3.27-.58.57-.87.85l-.65.65L98.9,62.4l-.75.76a.25.25,0,0,1-.09,0l-3.26.48c-.68.11-1.36.23-2,.33l-2.68.41L88,64.76l-2.59.39-1.48.23-2.72.42-2,.33-2.65.4-2.08.34-3.19.49ZM90.24,52.79a1.12,1.12,0,0,1,.08-.18c.08-.15.16-.29.25-.43l3.33-5.9,2.69-4.74,2.94-5.21,3.08-5.44s0-.1,0-.15l-.14,0-3.34.52-6.23,1-5.61.87-4.38.69-5.24.8c-.17,0-.24.09-.23.27v7.48c0,.2,0,.22.22.19l5-.79,5.53-.86h.22L76,62.91a1.4,1.4,0,0,0,.21,0l3.1-.49,4.42-.68,5-.78,4.55-.71,3.93-.61,3.6-.56c.13,0,.19-.08.19-.21s0-.28,0-.41V51.39c0-.25,0-.26-.26-.22l-1.31.21L95.46,52l-4.91.75Z"/><path class="cls-2" d="M90.24,52.79l.31,0L95.46,52l3.91-.61,1.31-.21c.24,0,.26,0,.26.22v7.07c0,.13,0,.27,0,.41s-.06.19-.19.21l-3.6.56-3.93.61L88.67,61l-5,.78-4.42.68-3.1.49a1.4,1.4,0,0,1-.21,0l12.45-22h-.22l-5.53.86-5,.79c-.2,0-.22,0-.22-.19V34.85c0-.18.06-.24.23-.27l5.24-.8,4.38-.69,5.61-.87,6.23-1,3.34-.52.14,0c0,.05,0,.11,0,.15l-3.08,5.44-2.94,5.21L93.9,46.28l-3.33,5.9c-.09.14-.17.28-.25.43A1.12,1.12,0,0,0,90.24,52.79Zm10.49-20.71h-.22l-4.12.65L92,33.42l-4.42.69-4.49.7-4.37.67c-.19,0-.25.1-.24.3,0,.56,0,1.12,0,1.67,0,1.21,0,2.42,0,3.63,0,.15,0,.21.21.18l6.45-1,5-.77a.55.55,0,0,1,.18,0,1,1,0,0,1,0,.2l-3.45,6.1-3,5.37L80.51,57l-2.44,4.31-.07.17h.18l2.65-.42c1.62-.25,3.25-.49,4.87-.75l4.43-.7L94.61,59l5-.76c.26,0,.25,0,.25-.31V52.59c0-.22,0-.23-.24-.2l-2.2.35-4.4.68-4.59.72h-.2Z"/><path class="cls-3" d="M100.73,32.08,88.25,54.14h.2L93,53.42l4.4-.68,2.2-.35c.23,0,.24,0,.24.2v5.29c0,.27,0,.27-.25.31l-5,.76-4.48.69-4.43.7c-1.62.26-3.25.5-4.87.75l-2.65.42H78l.07-.17L80.51,57l3.31-5.87,3-5.37,3.45-6.1a1,1,0,0,0,0-.2.55.55,0,0,0-.18,0l-5,.77-6.45,1c-.18,0-.21,0-.21-.18,0-1.21,0-2.42,0-3.63,0-.55,0-1.11,0-1.67,0-.2,0-.27.24-.3l4.37-.67,4.49-.7L92,33.42l4.36-.68,4.12-.65Z"/><path class="cls-2" d="M107.71,97.54H92.19V82.92h15.52Zm-8.27-3.15A4.87,4.87,0,0,0,102.77,93c.92-.88,1.82-1.79,2.72-2.69a9,9,0,0,0,.76-.88,4.16,4.16,0,0,0,.77-1.91,3.47,3.47,0,0,0-.21-1.74,3.24,3.24,0,0,0-2.71-2.15,4.89,4.89,0,0,0-2,.11A5,5,0,0,0,100,84.89c-1,1-2.06,2-3.08,3.07a4.23,4.23,0,0,0-1.24,2.55,3.28,3.28,0,0,0,1.23,3.09A3.84,3.84,0,0,0,99.44,94.39Z"/><path class="cls-1" d="M99.44,94.39a3.84,3.84,0,0,1-2.58-.79,3.28,3.28,0,0,1-1.23-3.09A4.23,4.23,0,0,1,96.87,88c1-1,2-2.06,3.08-3.07a5,5,0,0,1,2.14-1.18,4.89,4.89,0,0,1,2-.11,3.24,3.24,0,0,1,2.71,2.15,3.47,3.47,0,0,1,.21,1.74,4.16,4.16,0,0,1-.77,1.91,9,9,0,0,1-.76.88c-.9.9-1.8,1.81-2.72,2.69A4.87,4.87,0,0,1,99.44,94.39Zm-.3-6.63a2.83,2.83,0,0,0,2.26,3,4.14,4.14,0,0,0,2.64-.36,3.75,3.75,0,0,0,2.35-3.6A2.67,2.67,0,0,0,104,84.21a4.22,4.22,0,0,0-2.88.57A3.7,3.7,0,0,0,99.14,87.76Z"/><path class="cls-2" d="M99.14,87.76a3.7,3.7,0,0,1,2-3,4.22,4.22,0,0,1,2.88-.57,2.67,2.67,0,0,1,2.36,2.64,3.75,3.75,0,0,1-2.35,3.6,4.14,4.14,0,0,1-2.64.36A2.83,2.83,0,0,1,99.14,87.76ZM100,88a1.84,1.84,0,0,0,.92,1.73A2.27,2.27,0,0,0,102,90a3.73,3.73,0,0,0,1.67-.34,3,3,0,0,0,1.84-2.81,1.8,1.8,0,0,0-1.39-1.71,3.43,3.43,0,0,0-3.27.94A2.67,2.67,0,0,0,100,88Z"/><path class="cls-1" d="M100,88a2.67,2.67,0,0,1,.85-1.9,3.43,3.43,0,0,1,3.27-.94,1.8,1.8,0,0,1,1.39,1.71,3,3,0,0,1-1.84,2.81A3.73,3.73,0,0,1,102,90a2.27,2.27,0,0,1-1.08-.29A1.84,1.84,0,0,1,100,88Z"/><path class="cls-1" d="M78.59,0V.24q0,4.46,0,8.93c0,.22-.15.28-.25.41a3.83,3.83,0,0,1-.28.29c-.07.07-.13.16-.21.23s-.31.24-.45.38-.26.32-.4.46-.2.15-.28.23a3.08,3.08,0,0,0-.24.27,1.47,1.47,0,0,1-.21.22c-.15.14-.31.25-.45.4a1,1,0,0,0-.33.78c0,2.12,0,4.25,0,6.37,0,.24-.15.33-.26.46A2.81,2.81,0,0,1,75,20l-.19.19-.46.4s0,.08,0,.08.07.05.1,0q.31,0,.63-.09l3.5-.54h.06a1.15,1.15,0,0,1,0,.19c0,3,0,6,0,9,0,.21-.17.25-.24.38a1.42,1.42,0,0,1-.3.3l-.26.24-.25.22a3.22,3.22,0,0,0-.32.32c-.14.15-.26.31-.4.46s-.32.26-.46.4-.26.3-.4.45a2.5,2.5,0,0,1-.23.23,3.11,3.11,0,0,0-.28.23c-.13.14-.24.3-.38.44a.37.37,0,0,1-.21.06L64.71,34.56,55.28,36l-2.43.37H52.7c0-.08,0-.15,0-.22q0-14.47,0-28.93A.62.62,0,0,1,53,6.78l.26-.27a2.29,2.29,0,0,1,.21-.23c.21-.19.43-.37.64-.57s.37-.44.57-.64.33-.26.47-.4.26-.32.4-.46.32-.27.47-.41.14-.19.22-.27a.23.23,0,0,1,.14-.07l2.11-.33,3-.47,3.28-.51L68,1.64l3.28-.51,3.26-.5,3.3-.51Zm-.75.89-1.36.21-6.42,1-6.18.95-6.72,1c-.16,0-.21.08-.21.25V31.82c0,.07,0,.14,0,.22l.56-.08,5.21-.81L68,30.34l5.2-.81c1.49-.23,3-.47,4.49-.69.15,0,.2-.08.2-.24V21.15a1.83,1.83,0,0,0,0-.21L66,22.78a.45.45,0,0,1,0-.08c0-.79,0-1.58,0-2.37,0-.11.06-.12.15-.14l2-.3,6.5-1c.17,0,.23-.08.23-.26,0-2.28,0-4.56,0-6.83v-.24L66,12.91c0-.05,0-.06,0-.08,0-.7,0-1.41,0-2.11,0-.11.07-.13.16-.14l4.86-.76,6.66-1c.19,0,.24-.1.24-.29V.89Z"/><path class="cls-2" d="M77.84.89V8.51c0,.19,0,.26-.24.29l-6.66,1-4.86.76c-.09,0-.16,0-.16.14,0,.7,0,1.41,0,2.11,0,0,0,0,0,.08l8.8-1.36v.24c0,2.27,0,4.55,0,6.83,0,.18-.06.24-.23.26l-6.5,1-2,.3c-.09,0-.15,0-.15.14,0,.79,0,1.58,0,2.37a.45.45,0,0,0,0,.08l11.87-1.84a1.83,1.83,0,0,1,0,.21V28.6c0,.16,0,.21-.2.24-1.5.22-3,.46-4.49.69l-5.2.81-5.22.81L57.52,32,57,32c0-.08,0-.15,0-.22V4.35c0-.17,0-.23.21-.25l6.72-1,6.18-.95,6.42-1ZM64.9,14.12a.78.78,0,0,1,0-.13l0-4.12c0-.12,0-.17.17-.18L69.39,9l7.2-1.11c.17,0,.21-.09.21-.25,0-1.77,0-3.55,0-5.32a2.15,2.15,0,0,0,0-.23L58,5c0,.07,0,.14,0,.21,0,.36,0,.71,0,1.07V30.56c0,.25,0,.27.23.23l4.47-.7L70.11,29c2.15-.33,4.3-.67,6.45-1,.2,0,.24-.11.24-.29,0-1.75,0-3.51,0-5.26,0-.08,0-.16,0-.26L64.88,24v-.25c0-1.4,0-2.8,0-4.2,0-.18,0-.26.24-.27a1.65,1.65,0,0,0,.31,0l4-.63L73.5,18c.17,0,.21-.08.21-.24,0-1.6,0-3.19,0-4.78a1.65,1.65,0,0,0,0-.21Z"/><path class="cls-3" d="M64.9,14.12l8.79-1.36a1.65,1.65,0,0,1,0,.21c0,1.59,0,3.18,0,4.78,0,.16,0,.22-.21.24l-4.08.62-4,.63a1.65,1.65,0,0,1-.31,0c-.19,0-.24.09-.24.27,0,1.4,0,2.8,0,4.2V24l11.9-1.85c0,.1,0,.18,0,.26,0,1.75,0,3.51,0,5.26,0,.18,0,.26-.24.29-2.15.32-4.3.66-6.45,1l-7.4,1.14-4.47.7c-.22,0-.23,0-.23-.23V6.3c0-.36,0-.71,0-1.07,0-.07,0-.14,0-.21L76.78,2.1a2.15,2.15,0,0,1,0,.23c0,1.77,0,3.55,0,5.32,0,.16,0,.23-.21.25L69.39,9,65,9.69c-.12,0-.17.06-.17.18l0,4.12A.78.78,0,0,0,64.9,14.12Z"/><path class="cls-1" d="M40.85,38.92V28.44l-2.26.36v.26q0,3.5,0,7c0,.23-.13.32-.23.46a3.31,3.31,0,0,1-.32.33l-.18.18c-.16.13-.31.25-.46.39s-.15.19-.23.27l-.23.24a3.11,3.11,0,0,0-.28.23l-.31.31-.23.27a1.29,1.29,0,0,1-.19.21c-.15.14-.32.26-.46.41s-.26.29-.4.43a.41.41,0,0,1-.21.1l-1.75.27-5.7.89-3,.47h-.09a1.55,1.55,0,0,1,0-.21q0-14.58,0-29.16c0-.22.15-.3.24-.43a2.34,2.34,0,0,1,.31-.32l.27-.23a1.8,1.8,0,0,0,.2-.19l.41-.46c.09-.09.2-.15.28-.23a3.08,3.08,0,0,0,.24-.27c.06-.07.12-.15.19-.22a5.72,5.72,0,0,0,.46-.4c.15-.14.27-.31.41-.46a3.11,3.11,0,0,1,.28-.23c.07-.07.18-.14.2-.22s.11-.12.2-.14l2.8-.44,3.28-.51,3-.47,1.45-.22V16.92l1.8-.28h0c.14,0,.34,0,.4-.09s0-.3,0-.46c0-2.16,0-4.33,0-6.5,0-.23.15-.32.26-.46s.19-.21.29-.31l.27-.23.2-.19c.14-.15.27-.31.42-.46s.19-.15.27-.23a3.08,3.08,0,0,0,.24-.27A1.9,1.9,0,0,1,43,7.23c.15-.14.32-.26.46-.4s.27-.32.41-.47a3,3,0,0,1,.27-.23c.08-.07.19-.13.21-.22s.13-.13.21-.14l3-.47,3.25-.51,3-.48,1.24-.19c0,.08,0,.14,0,.21q0,14.61,0,29.23c0,.21-.17.24-.24.37a1.34,1.34,0,0,1-.31.32l-.26.23-.25.23-.23.28a3.22,3.22,0,0,1-.32.32c-.15.14-.31.26-.46.41s-.26.31-.4.46a3,3,0,0,1-.27.23,3.33,3.33,0,0,0-.25.28l-.25.24c-.08.08-.21.14-.25.24s-.15.12-.24.14l-2.51.39-5.45.85-2.47.38S40.9,38.93,40.85,38.92Zm4.27-22.23-7.3,1.14V7.59L28.63,9V37.1l.21,0,3.77-.59,5-.77c.2,0,.24-.1.24-.3V25.71c0-.55,0-.54.55-.62l5.48-.86L45.12,24V34.53l.17,0,1.31-.2c2.49-.39,5-.79,7.49-1.17.21,0,.25-.1.25-.29q0-13.79,0-27.56V5l-1.58.24L45.37,6.41c-.21,0-.26.1-.26.31q0,4.84,0,9.68Z"/><path class="cls-2" d="M45.12,16.69V16.4q0-4.83,0-9.68c0-.21,0-.28.26-.31l7.38-1.15L54.33,5v.27q0,13.79,0,27.56c0,.19,0,.26-.25.29-2.5.38-5,.78-7.49,1.17l-1.31.2-.17,0V24l-1.26.19-5.48.86c-.55.08-.55.07-.55.62v9.71c0,.2,0,.27-.24.3l-5,.77-3.77.59-.21,0V9l9.19-1.44V17.83Zm1.05,16.62,7.1-1.1v-26h-.12l-2.8.44-4,.62c-.15,0-.21.07-.2.24,0,.35,0,.7,0,1,0,1.82,0,3.64,0,5.46,0,1.1,0,2.2,0,3.31,0,.15,0,.23-.21.25l-2.65.4-5,.78L36.79,19V8.81L35.62,9c-1.93.3-3.86.61-5.8.9-.14,0-.17.08-.17.21,0,.36,0,.71,0,1.07V35.59c0,.09,0,.18,0,.29l7.11-1.1V25c0-.17,0-.34,0-.51s0-.17.15-.19l4.16-.65,4-.63,1.07-.16Z"/><path class="cls-3" d="M46.17,33.31V22.81L45.1,23l-4,.63-4.16.65c-.11,0-.16.07-.15.19s0,.34,0,.51v9.83l-7.11,1.1c0-.11,0-.2,0-.29V11.17c0-.36,0-.71,0-1.07,0-.13,0-.19.17-.21,1.94-.29,3.87-.6,5.8-.9l1.17-.18V19l1.58-.24,5-.78,2.65-.4c.18,0,.21-.1.21-.25,0-1.11,0-2.21,0-3.31,0-1.82,0-3.64,0-5.46,0-.35,0-.7,0-1,0-.17.05-.22.2-.24l4-.62,2.8-.44h.12v26Z"/><path class="cls-1" d="M0,25.08v-.25q0-4.53,0-9c0-.24.14-.34.27-.48L.55,15c.07-.07.13-.15.2-.21s.32-.26.46-.4a3.11,3.11,0,0,0,.23-.28,1.8,1.8,0,0,1,.19-.2c.15-.13.32-.26.46-.4a3.11,3.11,0,0,0,.23-.28A1.67,1.67,0,0,1,2.55,13l.29-.23c.11-.11.22-.21.32-.33a2.15,2.15,0,0,1,.23-.28c.13-.1.21-.25.41-.28,2-.3,4.08-.63,6.12-.94l5.76-.9,5.76-.9,5.64-.88h.09v.24q0,4.53,0,9.06c0,.23-.15.31-.25.45a2.94,2.94,0,0,1-.3.31l-.2.21-.53.53c-.18.18-.34.35-.52.52s-.33.27-.48.42-.26.31-.4.45a2.37,2.37,0,0,1-.29.25l-.21.2c-.13.16-.26.32-.4.47a.48.48,0,0,1-.22.05q-1.26.21-2.52.39c-.2,0-.18.14-.18.27V39.2l-.36.37-.28.25a2.66,2.66,0,0,0-.24.23c-.08.09-.15.2-.22.29l-.16.15-.28.22-.22.2a5.85,5.85,0,0,1-.4.47,3.11,3.11,0,0,1-.28.23c-.08.08-.15.18-.23.26s-.18.17-.27.26l-.26.25a5.6,5.6,0,0,1-.4.45s-.13,0-.2,0l-7.71,1.2-2.55.4H6.48V24.07Zm26.4-15.9h-.12l-4.22.66-5.49.86-5.75.89-6.3,1c-.14,0-.21.07-.21.24,0,2.53,0,5,0,7.58a1.93,1.93,0,0,0,0,.23l6.47-1V40l.2,0,2.54-.4,6.07-.94c.3,0,.28,0,.28-.35V18.56a1.34,1.34,0,0,0,0-.2c0-.14.05-.18.18-.2l6.09-.95c.19,0,.24-.08.24-.27V9.18Z"/><path class="cls-2" d="M26.41,9.18v7.76c0,.19-.05.25-.24.27l-6.09.95c-.13,0-.19.06-.18.2a1.34,1.34,0,0,1,0,.2V38.31c0,.34,0,.3-.28.35l-6.07.94L11,40l-.2,0V19.61l-6.47,1a1.93,1.93,0,0,1,0-.23c0-2.53,0-5.05,0-7.58,0-.17.07-.21.21-.24l6.3-1,5.75-.89,5.49-.86,4.22-.66Zm-1.07,1.23h-.15l-4.52.71L15.39,12l-5,.78-4.81.75c-.17,0-.19.09-.19.23,0,.51,0,1,0,1.51v3.9a2.29,2.29,0,0,0,0,.25l6.47-1V38.78l7-1.07V18c0-.17,0-.33,0-.5s0-.19.17-.21l1.26-.2,3.79-.58,1.28-.19Z"/><path class="cls-3" d="M25.34,10.41v5.87l-1.28.19-3.79.58-1.26.2c-.14,0-.18.08-.17.21s0,.33,0,.5V37.71l-7,1.07V18.36l-6.47,1a2.29,2.29,0,0,1,0-.25v-3.9c0-.5,0-1,0-1.51,0-.14,0-.21.19-.23l4.81-.75,5-.78,5.28-.82,4.52-.71Z"/><path class="cls-1" d="M78.07,33.67a1.63,1.63,0,0,1-.09.19l-12.45,22-.11.23,10.17-1.59v.26c0,3,0,6.06,0,9.08,0,.24-.16.31-.26.45a2.18,2.18,0,0,1-.3.31l-.27.24-.21.19c-.08.08-.15.18-.23.27l-.19.21c-.15.14-.32.26-.47.41s-.27.32-.41.47-.32.27-.47.42-.27.31-.41.46-.18.15-.25.24c-.29.33-.7.25-1.06.31l-6.32,1-6,.94-6.26,1-5.75.89-2.1.33-.16,0c4.23-7.48,8.43-14.94,12.66-22.44L46.71,51.18a1.83,1.83,0,0,1,0-.21c0-3,0-6.08,0-9.12,0-.24.16-.32.26-.46s.2-.21.3-.31a3.22,3.22,0,0,1,.28-.24l.2-.19c.14-.15.27-.32.42-.47s.19-.14.28-.23l.24-.27a1,1,0,0,1,.2-.22c.15-.14.32-.26.46-.41s.27-.32.41-.47.19-.15.28-.23.2-.14.22-.23.13-.13.21-.14l3.8-.59,3.56-.56,3.82-.59,4.06-.64,4.3-.67,4.55-.71,3.29-.51.1,0ZM62.15,45,49.49,67.41l.21,0,3.51-.55L58.74,66,64,65.16l5.56-.86,5-.79c.18,0,.22-.09.22-.26q0-3.78,0-7.58a1.7,1.7,0,0,0,0-.22L63.94,57.14,76.61,34.71h-.14l-5.94.92-6,.95-6.27,1-7,1.09c-.19,0-.24.08-.24.27v7.8Z"/><path class="cls-2" d="M62.15,45,51,46.71v-7.8c0-.19,0-.24.24-.27l7-1.09,6.27-1,6-.95,5.94-.92h.14L63.94,57.14,74.8,55.45a1.7,1.7,0,0,1,0,.22q0,3.8,0,7.58c0,.17,0,.23-.22.26l-5,.79L64,65.16,58.74,66l-5.53.86-3.51.55-.21,0ZM51.5,66l.25,0,3.79-.59,4.05-.63,4.31-.67,4.53-.71,5.11-.78c.16,0,.22-.07.22-.25,0-1.82,0-3.64,0-5.46a1.8,1.8,0,0,0,0-.22L62,58.52,74.62,36.09a.83.83,0,0,0-.16,0l-3,.47-5.3.83-5,.78L55.83,39l-3.55.55c-.16,0-.21.08-.21.24,0,.47,0,.93,0,1.4v4.27l12-1.87,0,0Z"/><path class="cls-3" d="M51.5,66,64.13,43.64l0,0-12,1.87V41.19c0-.47,0-.93,0-1.4,0-.16,0-.22.21-.24L55.83,39l5.28-.83,5-.78,5.3-.83,3-.47a.83.83,0,0,1,.16,0L62,58.52l11.79-1.84a1.8,1.8,0,0,1,0,.22c0,1.82,0,3.64,0,5.46,0,.18-.06.22-.22.25l-5.11.78-4.53.71-4.31.67-4.05.63L51.75,66Z"/><path class="cls-1" d="M34.27,73.88v-.25q0-14.59,0-29.19c0-.23.14-.33.25-.47a3.06,3.06,0,0,1,.3-.32l.28-.23.2-.19c.14-.16.27-.32.41-.46a3.11,3.11,0,0,1,.28-.23,3,3,0,0,0,.23-.27l.2-.22c.15-.14.32-.26.46-.4s.27-.32.41-.47.18-.15.27-.23.19-.13.21-.22.13-.13.21-.14L41.5,40,45,39.49,48.3,39l.23,0c0,.08,0,.15,0,.21q0,14.67,0,29.33c0,.2-.17.25-.25.38a2.18,2.18,0,0,1-.3.31c-.08.08-.18.15-.27.23l-.22.2-.53.53c-.17.17-.35.34-.51.52s-.38.44-.58.64-.31.27-.46.41a1.7,1.7,0,0,0-.37.39.31.31,0,0,1-.26.15l-7.37,1.15-3,.47Zm4.28-4.43.22,0,2.52-.4,6.25-1c.2,0,.25-.09.25-.28q0-13.85,0-27.7a1.93,1.93,0,0,0,0-.23h-.15c-2.93.46-5.87.93-8.81,1.38-.2,0-.27.09-.27.3q0,13.82,0,27.64Z"/><path class="cls-2" d="M38.55,69.45v-.27q0-13.83,0-27.64c0-.21.07-.27.27-.3,2.94-.45,5.88-.92,8.81-1.38h.15a1.93,1.93,0,0,1,0,.23q0,13.86,0,27.7c0,.19,0,.25-.25.28l-6.25,1-2.52.4Zm8.18-28.38H46.6l-3.33.52-3.45.53c-.19,0-.24.1-.23.28,0,.36,0,.72,0,1.08V68.23l7.12-1.11Z"/><path class="cls-3" d="M46.73,41.07V67.12l-7.12,1.11V43.49c0-.36,0-.72,0-1.08,0-.18,0-.25.23-.28l3.45-.53,3.33-.52Z"/><path class="cls-1" d="M6.87,76.59v-.28q0-14.49,0-29a.62.62,0,0,1,.29-.55,2.33,2.33,0,0,0,.26-.28,1.31,1.31,0,0,1,.2-.21l.46-.4c.14-.14.26-.31.4-.45a3.11,3.11,0,0,1,.28-.23c.08-.09.15-.18.24-.27a3.2,3.2,0,0,1,.27-.25l.23-.21.53-.53c.14-.15.26-.31.39-.47s.09,0,.14,0l6.1-.94,5.82-.91c.86-.13,1.73-.28,2.59-.35a21.35,21.35,0,0,1,2.4,0,10.3,10.3,0,0,1,3.34.68A8.43,8.43,0,0,1,36.56,49a11.72,11.72,0,0,1-3.45,10.3c-1,1.07-2.13,2.11-3.17,3.19a14.94,14.94,0,0,1-6.21,3.81c-.9.29-1.83.47-2.74.69-.16,0-.21.1-.21.26,0,1.32,0,2.63,0,4,0,.11.05.22-.14.27s-.14.19-.22.27-.19.16-.28.24a1.51,1.51,0,0,0-.23.21,3,3,0,0,1-.22.28c-.2.2-.43.37-.63.57s-.26.32-.41.46-.29.27-.44.41-.16.2-.25.29-.18.15-.27.23l-.22.2a2.88,2.88,0,0,1-.22.27.33.33,0,0,1-.17.07l-3.33.52L8,76.41ZM20,63.45l.27-.05c1.51-.24,3-.44,4.51-.72a15,15,0,0,0,6.06-2.49,11.11,11.11,0,0,0,5-10.62,7.73,7.73,0,0,0-5.51-7,12.67,12.67,0,0,0-5.83-.48c-1.19.14-2.37.35-3.55.53l-9.6,1.48c-.18,0-.23.1-.23.28,0,1.3,0,2.6,0,3.91V71.87c0,.09,0,.19,0,.29h.16l3-.47,5.46-.84c.2,0,.25-.09.25-.29V63.45Z"/><path class="cls-2" d="M20,63.45v7.11c0,.2-.05.26-.25.29l-5.46.84-3,.47h-.16c0-.1,0-.2,0-.29V48.25c0-1.31,0-2.61,0-3.91,0-.18,0-.25.23-.28L21,42.58c1.18-.18,2.36-.39,3.55-.53a12.67,12.67,0,0,1,5.83.48,7.73,7.73,0,0,1,5.51,7,11.11,11.11,0,0,1-5,10.62,15,15,0,0,1-6.06,2.49c-1.5.28-3,.48-4.51.72ZM12.21,71l.17,0,2.81-.44,3.62-.55c.13,0,.16-.07.16-.19,0-.32,0-.63,0-1l0-6c0-.14,0-.24.2-.27,1.59-.23,3.18-.49,4.77-.74a15,15,0,0,0,5.86-2.12,10.18,10.18,0,0,0,5.06-10A6.72,6.72,0,0,0,30,43.52a11.3,11.3,0,0,0-5.29-.45c-1.4.18-2.79.41-4.18.63L12.36,45c-.13,0-.17.06-.17.19,0,.36,0,.73,0,1.09V71Z"/><path class="cls-3" d="M12.21,71V46.25c0-.36,0-.73,0-1.09,0-.13,0-.17.17-.19l8.18-1.27c1.39-.22,2.78-.45,4.18-.63a11.3,11.3,0,0,1,5.29.45,6.72,6.72,0,0,1,4.82,6.17,10.18,10.18,0,0,1-5.06,10,15,15,0,0,1-5.86,2.12c-1.59.25-3.18.51-4.77.74-.19,0-.2.13-.2.27l0,6c0,.32,0,.63,0,1,0,.12,0,.17-.16.19l-3.62.55-2.81.44ZM19,56.82l.34,0c1.49-.23,3-.49,4.49-.69A4.79,4.79,0,0,0,27,54.4a3.56,3.56,0,0,0,.9-2.9,3.1,3.1,0,0,0-3.45-2.59c-.5,0-1,.13-1.5.21l-3.85.59a.17.17,0,0,0-.16.19c0,.18,0,.36,0,.54q0,3.06,0,6.12Z"/><path class="cls-2" d="M19,56.82v-.26q0-3.06,0-6.12c0-.18,0-.36,0-.54a.17.17,0,0,1,.16-.19L23,49.12c.5-.08,1-.17,1.5-.21A3.1,3.1,0,0,1,27.9,51.5a3.56,3.56,0,0,1-.9,2.9,4.79,4.79,0,0,1-3.2,1.68c-1.5.2-3,.46-4.49.69ZM20,55.6h.13l1.28-.2c.95-.15,1.91-.25,2.85-.47a3.2,3.2,0,0,0,2.55-2.52,1.93,1.93,0,0,0-1.32-2.32,2.69,2.69,0,0,0-1.23-.1l-4.08.62c-.15,0-.19.08-.19.23V55.4C20,55.46,20,55.52,20,55.6Z"/><path class="cls-1" d="M20,55.6c0-.08,0-.14,0-.2V50.83c0-.15,0-.21.19-.23L24.28,50a2.69,2.69,0,0,1,1.23.1,1.93,1.93,0,0,1,1.32,2.32,3.2,3.2,0,0,1-2.55,2.52c-.94.22-1.9.32-2.85.47l-1.28.2Zm2-1.09a1.21,1.21,0,0,0-.88-.28c-.42,0-.41,0-.37.43,0,0,0,0,0,0Z"/><path class="cls-2" d="M22.05,54.51l-1.22.19s0,0,0,0c0-.46-.05-.42.37-.43A1.21,1.21,0,0,1,22.05,54.51Z"/><path class="cls-1" d="M99.65,92.15l-1.31,1.3-.11.15,0,0a3.3,3.3,0,0,0-.3.22,2.92,2.92,0,0,0-.21.28s0,0,0,0a2.37,2.37,0,0,0-.3.23,2,2,0,0,0-.22.29,1.37,1.37,0,0,1-.17.17,2.5,2.5,0,0,1-.24.22c-.06,0-.15,0-.12.12s0,0,0,.06-.22.22-.33.31-.21.24-.42.27c-2.52.38-5,.78-7.56,1.17-1.18.18-2.36.36-3.54.56a.23.23,0,0,1-.3-.17c-1-2.18-2-4.37-3-6.55a1.47,1.47,0,0,0-.1-.22h0v.22c0,1.31,0,2.63,0,3.94a.67.67,0,0,1-.25.48c-.15.17-.32.32-.49.48a2.61,2.61,0,0,1-.24.23c-.08.08-.18.15-.26.24s-.34.32-.5.49l-.43.47-.26.23a1.8,1.8,0,0,0-.2.19l-.42.47c-.14.14-.3.26-.43.41-.27.32-.67.25-1,.3-3.19.51-6.38,1-9.57,1.5H67.1c0-.11,0-.21,0-.3V77.85c0-2.41,0-4.83,0-7.24a.69.69,0,0,1,.24-.51,6.14,6.14,0,0,1,.51-.51l.46-.41.22-.21.5-.51.41-.46.26-.23.24-.21a5.06,5.06,0,0,0,.68-.71c.14-.22.32-.18.48-.21l6.6-1c2.62-.41,5.25-.84,7.88-1.22a13.26,13.26,0,0,1,6.1.37,8.24,8.24,0,0,1,5.93,6.93,10.11,10.11,0,0,1-.87,5.88,12.8,12.8,0,0,1-2.54,3.69.21.21,0,0,0,0,.31c.29.51.57,1,.84,1.55L99.58,92ZM93,81.31l.15-.13A12.11,12.11,0,0,0,95,79a10.14,10.14,0,0,0,1.88-6.56,7.44,7.44,0,0,0-5.14-6.84A11.86,11.86,0,0,0,86,65.12c-1.45.18-2.9.43-4.35.66l-10,1.56c-.18,0-.23.09-.23.26q0,14,0,28a1.7,1.7,0,0,0,0,.22l.23,0,8.57-1.33c.33-.06.29,0,.3-.35V85.77c0-.12,0-.23.16-.26l3.25-.5a.91.91,0,0,1,1.19.65q1.66,3.66,3.32,7.32c.07.14.13.19.29.16.49-.09,1-.16,1.48-.23l8.11-1.27.17,0a2.83,2.83,0,0,0-.14-.26c-1.1-2.14-2.19-4.29-3.31-6.41A20.9,20.9,0,0,0,93,81.31Z"/><path class="cls-2" d="M93,81.31a20.9,20.9,0,0,1,2,3.62c1.12,2.12,2.21,4.27,3.31,6.41a2.83,2.83,0,0,1,.14.26l-.17,0-8.11,1.27c-.5.07-1,.14-1.48.23-.16,0-.22,0-.29-.16q-1.65-3.66-3.32-7.32A.91.91,0,0,0,83.94,85l-3.25.5c-.18,0-.16.14-.16.26v8.35c0,.35,0,.29-.3.35L71.66,95.8l-.23,0a1.7,1.7,0,0,1,0-.22q0-14,0-28c0-.17,0-.24.23-.26l10-1.56c1.45-.23,2.9-.48,4.35-.66a11.86,11.86,0,0,1,5.73.49,7.44,7.44,0,0,1,5.14,6.84A10.14,10.14,0,0,1,95,79a12.11,12.11,0,0,1-1.87,2.17Zm-1.61,0,.21-.18a12.38,12.38,0,0,0,2.55-2.71,9.19,9.19,0,0,0,1.7-5.86A6.43,6.43,0,0,0,92,66.82a9.6,9.6,0,0,0-4.76-.74c-1.18.09-2.36.28-3.53.46-2.5.37-5,.77-7.49,1.16l-3.51.54c-.15,0-.21.09-.2.24,0,.36,0,.73,0,1.09v25h.19l6.58-1c.17,0,.21-.09.21-.25,0-2.8,0-5.61,0-8.41,0-.27,0-.27.27-.31l4.1-.64a1.93,1.93,0,0,1,1.88.6,3.23,3.23,0,0,1,.42.72c1,2.17,2,4.35,3,6.52a.26.26,0,0,0,.34.17l4.29-.67,3-.46a1,1,0,0,0,.14,0,.67.67,0,0,0-.06-.12l-4-7.79a3.45,3.45,0,0,0-.8-1C91.8,81.68,91.61,81.5,91.39,81.3Z"/><path class="cls-3" d="M91.39,81.3c.22.2.41.38.61.55a3.45,3.45,0,0,1,.8,1l4,7.79a.67.67,0,0,1,.06.12,1,1,0,0,1-.14,0l-3,.46L89.42,92a.26.26,0,0,1-.34-.17c-1-2.17-2-4.35-3-6.52a3.23,3.23,0,0,0-.42-.72,1.93,1.93,0,0,0-1.88-.6l-4.1.64c-.27,0-.27,0-.27.31,0,2.8,0,5.61,0,8.41,0,.16,0,.23-.21.25l-6.58,1h-.19v-25c0-.36,0-.73,0-1.09,0-.15,0-.21.2-.24l3.51-.54c2.5-.39,5-.79,7.49-1.16,1.17-.18,2.35-.37,3.53-.46a9.6,9.6,0,0,1,4.76.74,6.43,6.43,0,0,1,3.89,5.73,9.19,9.19,0,0,1-1.7,5.86,12.38,12.38,0,0,1-2.55,2.71ZM79.47,79.94l.88-.13c1.79-.29,3.58-.55,5.37-.85a4,4,0,0,0,3.33-3.11,2.93,2.93,0,0,0-1.14-3.18,3.5,3.5,0,0,0-2.62-.52l-3.58.56-2,.31c-.18,0-.25.1-.23.28a4.87,4.87,0,0,1,0,.54v6.1Z"/><path class="cls-2" d="M79.47,79.94v-6.1a4.87,4.87,0,0,0,0-.54c0-.18,0-.26.23-.28l2-.31,3.58-.56a3.5,3.5,0,0,1,2.62.52,2.93,2.93,0,0,1,1.14,3.18A4,4,0,0,1,85.72,79c-1.79.3-3.58.56-5.37.85Zm1.06-1.26h.16c1.63-.25,3.26-.48,4.88-.77a2.93,2.93,0,0,0,2.5-2.75,1.84,1.84,0,0,0-1.18-1.84,2.63,2.63,0,0,0-1.36-.12l-4.76.73c-.18,0-.25.08-.25.28,0,1.41,0,2.83,0,4.25Z"/><path class="cls-1" d="M80.53,78.68v-.22c0-1.42,0-2.84,0-4.25,0-.2.07-.25.25-.28l4.76-.73a2.63,2.63,0,0,1,1.36.12,1.84,1.84,0,0,1,1.18,1.84,2.93,2.93,0,0,1-2.5,2.75c-1.62.29-3.25.52-4.88.77Zm.77-1,0,.06,1.38-.22s0-.06-.06-.06l-1.25.12S81.34,77.7,81.3,77.73Z"/><path class="cls-2" d="M81.3,77.73s.07-.09.1-.1l1.25-.12s0,0,.06.06l-1.38.22Z"/><path class="cls-1" d="M69,96.71a1.1,1.1,0,0,0-.39.35c-.06.1-.18.15-.27.23l-.26.28s0,0,0,.05a2.49,2.49,0,0,0-.31.23,3.15,3.15,0,0,0-.22.29c-.08.08-.19.14-.28.23a2.26,2.26,0,0,0-.25.28s0,0,0,0a.23.23,0,0,0-.2.18s-.12.12-.18.17a2.18,2.18,0,0,0-.33.35c-.08.09-.21.14-.3.23a3.11,3.11,0,0,0-.23.28l-.22.23a1.07,1.07,0,0,1-.74.28L54.48,102c-.37,0-.29.1-.42-.24-.39-1-.78-2-1.16-2.93a.22.22,0,0,0-.3-.17l-5.67.88c-.17,0-.28.08-.31.26,0,.37-.34.56-.58.79s-.29.29-.43.44-.29.29-.43.44-.44.45-.67.67l-.64.61-.62.64a1.46,1.46,0,0,1-.85.49c-3.2.48-6.39,1-9.59,1.48l-1.28.2h-.2c0-.1.06-.18.09-.25Q37.49,89.9,43.56,74.46a5.78,5.78,0,0,0,.25-.65,1.87,1.87,0,0,1,.55-.72c.21-.22.44-.42.65-.64l.65-.63.62-.63.64-.62c.2-.2.39-.41.6-.61a.36.36,0,0,1,.18-.12l8.58-1.34c.16,0,.19.07.23.17.91,2,1.83,4.09,2.74,6.14Q64.11,85.66,69,96.5ZM36.14,101h.21l9.31-1.45a.31.31,0,0,0,.3-.24c.38-1.15.78-2.29,1.17-3.44a.28.28,0,0,1,.25-.21l1.76-.27,7.56-1.18c.15,0,.22,0,.28.17.39,1,.79,2,1.17,3,.08.19.16.24.36.21l9-1.4.43-.08a1.56,1.56,0,0,0-.08-.21Q61.94,82.74,56.06,69.56a.27.27,0,0,0-.34-.18Q52,70,48.35,70.52a.37.37,0,0,0-.33.26q-5.88,15-11.79,30C36.21,100.86,36.18,100.94,36.14,101Z"/><path class="cls-2" d="M36.14,101c0-.1.07-.18.09-.25q5.91-15,11.79-30a.37.37,0,0,1,.33-.26Q52,70,55.72,69.38a.27.27,0,0,1,.34.18q5.88,13.18,11.77,26.35a1.56,1.56,0,0,1,.08.21l-.43.08-9,1.4c-.2,0-.28,0-.36-.21-.38-1-.78-2-1.17-3-.06-.15-.13-.2-.28-.17l-7.56,1.18-1.76.27a.28.28,0,0,0-.25.21c-.39,1.15-.79,2.29-1.17,3.44a.31.31,0,0,1-.3.24L36.35,101ZM66.38,95.3c0-.13-.09-.21-.13-.3Q63.11,88,60,81q-2.28-5.11-4.57-10.24c0-.11-.09-.19-.25-.17-2,.33-4,.64-6.07.95a.29.29,0,0,0-.27.22c-.12.33-.24.65-.37,1l-1.6,4.08q-4.47,11.36-8.93,22.7l-.07.23.3,0,6.7-1a.35.35,0,0,0,.32-.26c.38-1.15.77-2.29,1.16-3.43,0-.13.09-.21.24-.23.74-.1,1.48-.22,2.21-.34l8.59-1.33c.19,0,.26,0,.32.19.39,1,.8,2,1.19,3,.05.13.11.18.26.15a4.17,4.17,0,0,1,.49-.08l5.1-.79C65.26,95.45,65.8,95.38,66.38,95.3Z"/><path class="cls-3" d="M66.38,95.3c-.58.08-1.12.15-1.66.24l-5.1.79a4.17,4.17,0,0,0-.49.08c-.15,0-.21,0-.26-.15-.39-1-.8-2-1.19-3-.06-.17-.13-.22-.32-.19l-8.59,1.33c-.73.12-1.47.24-2.21.34-.15,0-.2.1-.24.23-.39,1.14-.78,2.28-1.16,3.43a.35.35,0,0,1-.32.26l-6.7,1-.3,0,.07-.23q4.47-11.34,8.93-22.7l1.6-4.08c.13-.33.25-.65.37-1a.29.29,0,0,1,.27-.22c2-.31,4.05-.62,6.07-.95.16,0,.2.06.25.17Q57.68,75.84,60,81q3.15,7,6.28,14C66.29,95.09,66.33,95.17,66.38,95.3ZM51.94,78.85h0L48.14,89.74l.19,0,1.83-.28,5.4-.82c.26,0,.26-.05.17-.28Q53.87,83.69,52,79Z"/><path class="cls-2" d="M51.94,78.85,52,79q1.84,4.67,3.71,9.32c.09.23.09.24-.17.28l-5.4.82-1.83.28-.19,0,3.75-10.88Zm-2.22,9.58,4.6-.71L52,81.92h0Z"/><path class="cls-1" d="M49.72,88.43,52,81.93h0l2.31,5.8Z"/><path class="cls-1" d="M6.94,109v-.25q0-14.61,0-29.2a.62.62,0,0,1,.28-.49c.1-.09.18-.19.27-.28a2.41,2.41,0,0,1,.21-.24c.09-.08.2-.14.29-.23s.38-.42.58-.63.32-.26.47-.41.38-.44.59-.65.31-.26.45-.4.27-.3.41-.45a.25.25,0,0,1,.14-.08l5.17-.8L21,74.12c1.66-.26,3.32-.55,5-.77a9.41,9.41,0,0,1,6,1,7.64,7.64,0,0,1,4,5.9,10,10,0,0,1-.72,5.17.34.34,0,0,0,.08.39,8.17,8.17,0,0,1,2.08,4.4,10.41,10.41,0,0,1-2.79,8.89c-1.42,1.54-2.91,3-4.44,4.43a11.3,11.3,0,0,1-6.07,2.84l-9.44,1.47L7.12,109Zm4.3-4.42.32,0,1.59-.25,7.21-1.12,7-1.08a11.07,11.07,0,0,0,5.81-2.61,9.94,9.94,0,0,0,3.65-7.91A7.65,7.65,0,0,0,34.46,86a.31.31,0,0,1-.08-.42,9.31,9.31,0,0,0,.91-4.67A6.91,6.91,0,0,0,31,74.71a9,9,0,0,0-5.08-.57c-1.58.23-3.15.49-4.73.73l-9.64,1.5c-.2,0-.27.09-.27.3q0,13.86,0,27.7Z"/><path class="cls-2" d="M11.24,104.62v-.25q0-13.84,0-27.7c0-.21.07-.27.27-.3l9.64-1.5c1.58-.24,3.15-.5,4.73-.73a9,9,0,0,1,5.08.57,6.91,6.91,0,0,1,4.34,6.2,9.31,9.31,0,0,1-.91,4.67.31.31,0,0,0,.08.42,7.65,7.65,0,0,1,2.33,5.61,9.94,9.94,0,0,1-3.65,7.91,11.07,11.07,0,0,1-5.81,2.61l-7,1.08-7.21,1.12-1.59.25ZM12.3,90.34V103.1c0,.3,0,.29.28.25l5-.78,4.74-.74c1.59-.25,3.18-.51,4.78-.74a10.12,10.12,0,0,0,4.47-1.69,9.07,9.07,0,0,0,4.16-7.35,6.67,6.67,0,0,0-2.5-5.73c-.28-.23-.28-.24-.11-.56a9.12,9.12,0,0,0,1.13-4.69,6,6,0,0,0-4.07-5.54,8.33,8.33,0,0,0-4.14-.36c-2,.3-4,.62-6,.93l-7.64,1.18c-.12,0-.17.07-.16.2,0,.35,0,.71,0,1.06Z"/><path class="cls-3" d="M12.3,90.34V78.54c0-.35,0-.71,0-1.06,0-.13,0-.18.16-.2l7.64-1.18c2-.31,4-.63,6-.93a8.33,8.33,0,0,1,4.14.36,6,6,0,0,1,4.07,5.54,9.12,9.12,0,0,1-1.13,4.69c-.17.32-.17.33.11.56a6.67,6.67,0,0,1,2.5,5.73,9.07,9.07,0,0,1-4.16,7.35,10.12,10.12,0,0,1-4.47,1.69c-1.6.23-3.19.49-4.78.74l-4.74.74-5,.78c-.28,0-.28.05-.28-.25Zm6.81,6.16.2,0,3.82-.59c.85-.13,1.7-.23,2.53-.42a3.07,3.07,0,0,0,2.48-2.33,2.3,2.3,0,0,0-.82-2.52,2.77,2.77,0,0,0-2.22-.46l-3.82.6-2,.3c-.16,0-.22.09-.2.25s0,.34,0,.51V96.5Zm0-9.2.17,0c1-.16,2.06-.31,3.09-.48.84-.13,1.68-.22,2.51-.41a3.06,3.06,0,0,0,2.38-2,2.35,2.35,0,0,0-.76-2.67,2.68,2.68,0,0,0-2-.44c-.71.09-1.4.21-2.1.32l-3.1.48c-.14,0-.19.08-.18.22s0,.35,0,.53v4.26C19.11,87.13,19.12,87.21,19.12,87.3Z"/><path class="cls-2" d="M19.11,96.5V91.82c0-.17,0-.34,0-.51s0-.22.2-.25l2-.3,3.82-.6a2.77,2.77,0,0,1,2.22.46,2.3,2.3,0,0,1,.82,2.52,3.07,3.07,0,0,1-2.48,2.33c-.83.19-1.68.29-2.53.42l-3.82.59Zm1.05-1.22h.17l4.35-.68a6.22,6.22,0,0,0,1.22-.3,1.94,1.94,0,0,0,1.24-1.57A1.26,1.26,0,0,0,26,91.2a2.36,2.36,0,0,0-.65,0l-5,.77c-.19,0-.23.1-.23.28,0,.93,0,1.87,0,2.81Z"/><path class="cls-2" d="M19.12,87.3c0-.09,0-.17,0-.25V82.79c0-.18,0-.35,0-.53s0-.2.18-.22l3.1-.48c.7-.11,1.39-.23,2.1-.32a2.68,2.68,0,0,1,2,.44,2.35,2.35,0,0,1,.76,2.67,3.06,3.06,0,0,1-2.38,2c-.83.19-1.67.28-2.51.41-1,.17-2.06.32-3.09.48Zm1.05-1.22h.1l3.66-.57a3.61,3.61,0,0,0,1.4-.38,1.91,1.91,0,0,0,1-1.44,1.18,1.18,0,0,0-1-1.37,2.11,2.11,0,0,0-.66,0L20.32,83c-.13,0-.17.08-.17.21,0,.91,0,1.81,0,2.72A1.48,1.48,0,0,0,20.17,86.08Z"/><path class="cls-1" d="M20.16,95.28v-.22c0-.94,0-1.88,0-2.81,0-.18,0-.25.23-.28l5-.77a2.36,2.36,0,0,1,.65,0,1.26,1.26,0,0,1,1.14,1.52,1.94,1.94,0,0,1-1.24,1.57,6.22,6.22,0,0,1-1.22.3l-4.35.68Z"/><path class="cls-1" d="M20.17,86.08a1.48,1.48,0,0,1,0-.2c0-.91,0-1.81,0-2.72,0-.13,0-.19.17-.21l4.36-.67a2.11,2.11,0,0,1,.66,0,1.18,1.18,0,0,1,1,1.37,1.91,1.91,0,0,1-1,1.44,3.61,3.61,0,0,1-1.4.38l-3.66.57Z"/></g></g></svg>