<?xml version="1.0" encoding="UTF-8"?>
<svg width="28px" height="32px" viewBox="0 0 28 32" version="1.1" xmlns="http://www.w3.org/2000/svg" xmlns:xlink="http://www.w3.org/1999/xlink">
    <title>juice</title>
    <g id="Page-1" stroke="none" stroke-width="1" fill="none" fill-rule="evenodd">
        <g id="juice" fill="#3F4870" fill-rule="nonzero">
            <path d="M27.935,8.258 C27.935,3.716 24.322,0 19.883,0 C15.754,0 12.348,3.097 11.935,7.226 L9.148,7.226 L9.148,3.407 C9.148,1.549 7.703,0.001 5.742,0.001 L1.097,0.001 C0.478,0.001 0.065,0.414 0.065,1.033 C0.065,1.652 0.478,2.065 1.097,2.065 L5.742,2.065 C6.465,2.065 7.084,2.684 7.084,3.407 L7.084,7.226 L3.471,7.226 C3.161,7.226 2.852,7.329 2.645,7.536 C2.542,7.742 2.439,7.949 2.439,8.259 L3.574,29.833 C3.574,30.246 3.884,30.659 4.297,30.762 C6.671,31.588 9.149,32.001 11.626,32.001 C14.103,32.001 16.581,31.588 18.955,30.762 C19.368,30.659 19.678,30.246 19.678,29.833 L20.401,16.414 C24.633,16.104 27.936,12.595 27.936,8.259 L27.935,8.258 Z M18.748,9.29 L18.438,15.587 L17.715,15.587 C16.373,15.587 14.309,15.793 12.244,16.929 C11.315,17.445 10.283,17.755 9.044,17.961 L9.044,13.109 C9.044,12.49 8.631,12.077 8.012,12.077 C7.393,12.077 6.98,12.49 6.98,13.109 L6.98,18.064 L4.915,18.064 L4.502,9.29 L18.747,9.29 L18.748,9.29 Z M5.639,29.006 L5.123,20.025 L7.91,20.025 C8.013,20.025 8.013,20.025 8.116,20.025 L8.116,20.025 L8.219,20.025 C10.077,20.025 11.832,19.509 13.277,18.683 C14.516,17.96 16.064,17.651 17.716,17.651 L18.232,17.651 L17.613,29.006 C13.69,30.245 9.561,30.245 5.639,29.006 Z M20.606,14.348 L20.916,8.258 C20.916,7.948 20.813,7.742 20.606,7.535 C20.399,7.328 20.193,7.225 19.883,7.225 L13.999,7.225 C14.515,4.335 16.993,2.064 19.883,2.064 C23.186,2.064 25.87,4.851 25.87,8.258 C25.87,11.355 23.496,13.935 20.605,14.348 L20.606,14.348 Z" id="Shape"></path>
            <path d="M20.503,3.613 C20.4,3.613 20.4,3.51 20.297,3.51 C20.194,3.51 20.194,3.407 20.091,3.407 C19.885,3.407 19.781,3.407 19.575,3.407 C19.472,3.407 19.369,3.407 19.369,3.51 C19.266,3.51 19.266,3.613 19.163,3.613 C19.06,3.613 19.06,3.716 18.957,3.716 C18.751,4.026 18.647,4.335 18.647,4.645 C18.647,4.955 18.75,5.264 18.957,5.471 C19.163,5.677 19.473,5.781 19.783,5.781 C20.093,5.781 20.402,5.678 20.609,5.471 C20.815,5.265 20.919,4.955 20.919,4.645 C20.919,4.335 20.816,4.026 20.609,3.819 C20.609,3.716 20.609,3.716 20.506,3.613 L20.503,3.613 Z" id="Path"></path>
            <path d="M24.219,7.329 C23.909,7.019 23.496,6.916 23.187,7.019 C23.084,7.019 22.981,7.019 22.981,7.122 C22.878,7.122 22.775,7.225 22.775,7.225 C22.672,7.225 22.672,7.328 22.569,7.328 C22.363,7.534 22.259,7.844 22.259,8.154 C22.259,8.464 22.362,8.773 22.569,8.98 C22.569,9.083 22.672,9.083 22.775,9.083 C22.775,9.289 22.878,9.289 22.878,9.289 C22.981,9.289 22.981,9.289 23.084,9.392 C23.187,9.392 23.187,9.392 23.29,9.392 C23.6,9.392 23.909,9.289 24.116,9.082 C24.219,8.979 24.219,8.979 24.322,8.876 C24.322,8.773 24.425,8.773 24.425,8.67 C24.425,8.567 24.528,8.567 24.528,8.464 C24.528,8.361 24.528,8.258 24.528,8.258 C24.528,7.948 24.425,7.639 24.218,7.329 L24.219,7.329 Z" id="Path"></path>
        </g>
    </g>
</svg>