<svg xmlns="http://www.w3.org/2000/svg" viewBox="0 0 212.42 138.7"><defs><style>.cls-1{fill:#ddb300;}</style></defs><g id="Calque_2" data-name="Calque 2"><g id="Calque_1-2" data-name="Calque 1"><path class="cls-1" d="M90.17,113.05c.66-1.14,1.58-.78,2.54-.72A4.3,4.3,0,0,0,97,110a45.17,45.17,0,0,0,3.45-8.18c.27-.8.49-1.62.72-2.43,0-.15,0-.31.08-.6A14.9,14.9,0,0,1,95.58,101a16,16,0,0,1-3.79.22,8.62,8.62,0,0,1-5.26-2.12,8,8,0,0,1-2.86-5.7,14.65,14.65,0,0,1,0-5.2c.42-1.49.87-3,1.35-4.45.38-1.18.84-2.34,1.23-3.43-1.45,1-3,2-4.46,3.17-1.7,1.37-3.28,2.88-4.92,4.33-.56.5-1.15,1-1.67,1.51a1.66,1.66,0,0,0-.42.93c-.11,1-.12,1.93-.19,2.89-.14,1.73-.31,3.46-.45,5.19-.1,1.15-.08,2.32-.28,3.45a4.58,4.58,0,0,1-2.32,3.11c-1,.6-2,1.19-3,1.81-.59.37-1,.26-1-.43s-.34-.75-.89-.72a.78.78,0,0,1-.58-.39,11,11,0,0,1-.77-2,7.22,7.22,0,0,1-.25-2.06c.07-1.76.2-3.53.35-5.29A61.61,61.61,0,0,1,66.93,86c.32-1.27.38-2.6.66-3.89a24,24,0,0,1,1.88-6.34,11,11,0,0,1,1.83-2.55A3.56,3.56,0,0,1,73,72.58c.7-.18,1.42-.26,2.12-.43.53-.13.83-.14.54.53a.46.46,0,0,0,0,.2c.06,1.12.12,2.24.17,3.36,0,.25,0,.51,0,.87a3.55,3.55,0,0,0,.45-.23l5.15-3.58a3.13,3.13,0,0,1,2.52-.23c1.39.27,1.92,1.54,2.75,2.45.2.22.29.54.47.78.31.43.36.76-.12,1.14s0,.81.19,1.42c.56-1.93,1.87-3.12,3.07-4.36a15.94,15.94,0,0,1,8.56-4.75,10.63,10.63,0,0,1,6.51.67,14.64,14.64,0,0,1,3.18,1.86c2.26,1.84,3.81,4.13,3.73,7.22,0,.14,0,.28,0,.47l.32,0,.54,0c-.31,2.67-.61,5.31-.94,7.94-.23,1.77-.46,3.55-.78,5.31-.51,2.82-1,5.64-1.67,8.44a67,67,0,0,1-2,7.12,34.12,34.12,0,0,1-2.51,5.42,14.26,14.26,0,0,1-7.11,6.18,10.72,10.72,0,0,1-7.46.42A8.71,8.71,0,0,1,88.06,119a4,4,0,0,1-.88-1.35,2,2,0,0,1-.19-1.13A15.31,15.31,0,0,1,87.6,114a5.48,5.48,0,0,1,.93-1.69c.13-.16.71,0,1.06.09.18.06.3.34.58.67Zm2.18-22.9.15,0a1.52,1.52,0,0,0,0,.21c.07.39.13.79.22,1.17.22.88.48,1.08,1.3.69a21.59,21.59,0,0,0,3.49-1.94,21.67,21.67,0,0,0,5.58-6.5,3.65,3.65,0,0,0,.55-2.69c-.26-1.57-2.37-2.93-3.81-2.32a6.74,6.74,0,0,0-3.52,2.7,3.16,3.16,0,0,1-2,1.51,1.06,1.06,0,0,0-.69.59c-.48,2.17-.9,4.36-1.34,6.55Z"/><path class="cls-1" d="M153.94,115.41c-.91-.46-1.83-.88-2.7-1.38a4.42,4.42,0,0,1-1.68-2.54,25.56,25.56,0,0,1-1.45-8.08,4,4,0,0,1,.21-2.45c-.4-1.5.5-2.89.38-4.37,0-.23.25-.48.25-.69,0-1-.11-2-.16-3.16-.64.33-1.18.58-1.7.89a.83.83,0,0,0-.25.53c-.2,1.56-.28,3.15-.61,4.69A8.81,8.81,0,0,1,145,101.3a5.17,5.17,0,0,1-3.18,2.39c-.86.26-1.68.67-2.53,1s-1.15-.08-.94-.88c.11-.42,0-.72-.4-.7-.84,0-1.06-.45-1.19-1.13-.23-1.14-.56-2.27-.7-3.42a10.49,10.49,0,0,1,.23-2.2c-.26.08-.47.14-.67.22a71.88,71.88,0,0,1-15.52,4.22,8.29,8.29,0,0,1-4.27-.55c-.11,0-.26-.17-.27-.27-.12-.81-.72-1.11-1.37-1.38l-1.2-.51a1.69,1.69,0,0,1,1.48-1,3,3,0,0,0,.74-.16q7.35-3.3,14.68-6.63c2.32-1,4.63-2.11,6.93-3.21a1.25,1.25,0,0,0,.6-.74c.53-3.25.95-6.53,1.53-9.77.5-2.8,1.18-5.57,1.77-8.35a1.42,1.42,0,0,0-1.38-1.57,8.93,8.93,0,0,0-1.4.41l-.93.26a2.79,2.79,0,0,1,1.12-2c.53-.45,1.13-.81,1.66-1.26a12,12,0,0,1,5.86-2.55c1.67-.3,3.31-.73,5-1a17.68,17.68,0,0,1,8.31.37,9,9,0,0,1,5.82,4.91,11.09,11.09,0,0,1,.78,5.44c-.35,3.61-2,6.69-3.85,9.69a25.89,25.89,0,0,1-5.92,6.9,1.41,1.41,0,0,0,.12.29c1.9,2.55,2.28,5.51,2.16,8.54a41,41,0,0,0,.7,9.19,4,4,0,0,0,.46,1.32,1.4,1.4,0,0,1,.14,1.34c-.37.88-.73,1.77-1.14,2.64-.51,1.1-1.07,2.18-1.58,3.29-.21.47-.58.69-.93.39-.66-.56-1-.23-1.43.26-.12.11-.25.2-.38.32Zm-5.09-46.69c-.29,4.25-.59,8.52-.9,13A25.34,25.34,0,0,0,151,79c1.48-1.81,2.82-3.75,4.14-5.69a8,8,0,0,0,.9-2.21c.26-.85,0-1.42-.82-1.65a27.12,27.12,0,0,0-3.79-.68,25.36,25.36,0,0,0-2.62,0Z"/><path class="cls-1" d="M9.53,107.46c-1.54.13-2.94.36-4.35.34a10.76,10.76,0,0,1-2.5-.62s-.1-.06-.1-.09c-.21-1.36-1.45-1.47-2.37-2A2.51,2.51,0,0,1,0,105a1.72,1.72,0,0,1,1.43-1,6.1,6.1,0,0,0,1.13-.32c2.7-1.23,5.39-2.47,8.07-3.74a1,1,0,0,0,.51-.58c.89-3.59,1.71-7.19,2.64-10.77.57-2.18,1.28-4.33,2-6.48.21-.67,0-1-.67-1-.25,0-.5.13-.76.14a4.21,4.21,0,0,1-.78-.12c.05-.29,0-.73.18-.83.89-.54,1-1.63,1.63-2.31a20.8,20.8,0,0,1,1.88-2A41.63,41.63,0,0,1,21.61,73a10.4,10.4,0,0,1,9-1,8.56,8.56,0,0,1,5.18,5.28c1.29,3.32,1,6.68.11,10a34.7,34.7,0,0,1-3.25,7.78c-.09.17-.18.33-.28.49-.3.48-.26.75.32,1.09a8.83,8.83,0,0,1,2.4,1.92,18.25,18.25,0,0,1,1.35,2.73,12.28,12.28,0,0,1,.36,8.73,18.8,18.8,0,0,1-7.15,9.14c-2.12,1.51-4.39,2.79-6.62,4.13a7.09,7.09,0,0,1-4.25.72l-.64,0c-.68,0-.68,0-1.62-.85a1.93,1.93,0,0,0-.34.5,4,4,0,0,1-1.79,2.11c-1.15.8-2.26,1.64-3.59,2.6a6.93,6.93,0,0,1-.41-1.33c-.07-.92,0-.92-.95-.86-.14,0-.28,0-.4,0a23.54,23.54,0,0,1-.92-4.09,34.3,34.3,0,0,1,.25-5.35c.23-2.32.56-4.63.86-6.94.09-.79.21-1.57.33-2.37Zm8.32,8.17A19.08,19.08,0,0,1,20.1,114a24.75,24.75,0,0,0,6.62-4.7c.74-.76,1.51-1.59,1.21-2.82-.19-.8-.48-1.61-1.34-1.84a11.89,11.89,0,0,0-6.66.23.8.8,0,0,0-.63.8c-.17,1.61-.34,3.23-.58,4.83s-.56,3.32-.87,5.12Zm9.18-29c-.15-.42-.38-.75-.34-1,.15-1,.41-2,.62-3a1.52,1.52,0,0,0-.87-1.86A3.91,3.91,0,0,0,23,81c-.11,0-.17.27-.2.42a8,8,0,0,0-.14,1c-.19,1.94-.33,3.89-.59,5.82-.23,1.77-.6,3.52-.89,5.28-.09.56-.16,1.12-.26,1.87.52-.28,1-.38,1.18-.66a31.65,31.65,0,0,0,2.18-3.44c.69-1.3,1.22-2.69,1.83-4,.18-.37.19-1,1-.63Z"/><path class="cls-1" d="M107,67.93c.07-.7.09-1.23.19-1.76.07-.38.28-.74.34-1.12q1-7,2-14,.63-4.49,1.25-9a3.47,3.47,0,0,0,0-.43l-8.08-.28c-.34.8-.76,1.74-1.12,2.7-.46,1.23-.87,2.49-1.31,3.73a6.1,6.1,0,0,1-2.6,3,20,20,0,0,1-4,1.74c-1,.35-1.28.06-1.14-1,.08-.65-.11-.94-.75-1-.4,0-.5-.25-.52-.61-.07-1.37-.22-2.73-.21-4.1a7.09,7.09,0,0,1,.44-2.27c.8-2.21,1.68-4.39,2.53-6.59a19.53,19.53,0,0,0,.8-2.17,2.62,2.62,0,0,0-.08-1.05c.37-.37.72-.59.87-.91,1-2.17,2-4.37,2.94-6.55.57-1.26,1.2-2.5,1.8-3.75.94-1.95,1.88-3.9,2.84-5.83a56,56,0,0,1,2.61-5,14,14,0,0,1,2.49-2.67,1.69,1.69,0,0,0,.58-1.69c-.09-.54-.09-1.1-.17-1.65a4.06,4.06,0,0,0-.32-.84.78.78,0,0,1,1.09-.34,5.16,5.16,0,0,1,1.47.78c.41.39.63.27.93,0s.41-.44.64-.69c2,1.92,3.94,3.78,4.69,6.46.61,2.18,1,4.44,1.42,6.67.31,1.62.59,3.24.79,4.87.25,2,.48,4,.57,6s0,4.19,0,6.34l.85-.17c-.15.83-.3,1.59-.41,2.35-.19,1.35-.37,2.7-.53,4.06s-.31,2.9-.46,4.36-.22,2.63-.41,3.93a23.78,23.78,0,0,1-2.63,8.59,9.09,9.09,0,0,1-1.29,1.35,1.87,1.87,0,0,0-.32.52c-.78,1.66-1.47,3.37-2.38,5a9.26,9.26,0,0,1-1.91,1.83.17.17,0,0,1-.13,0c-1.27-.57-2,.46-2.91,1a3.16,3.16,0,0,1-.47.21ZM109.57,24l-.23,0c-.83,2.2-1.65,4.4-2.52,6.71h3.66c-.31-2.3-.61-4.49-.91-6.67Z"/><path class="cls-1" d="M47,96.67c.43-.47.82-.85,1.15-1.26,1-1.23,2-2.46,2.89-3.74,1.09-1.5,2.19-3,3.15-4.58.58-1,.84-2.11,1.37-3.11a30.54,30.54,0,0,1,1.73-2.68c.21-.31.45-.6.68-.89a3,3,0,0,1,1.4-1.22,8,8,0,0,0,1.46-.85c1-.56,1.93-1.11,2.88-1.68.46-.28.62,0,.69.35a5.74,5.74,0,0,1,0,1l.78.12c-.5.68-.23,1,.33,1,0,1.08,0,2.11,0,3.14,0,1.51,0,3-.12,4.52-.19,1.68-.62,3.34-.89,5-.2,1.27-.29,2.56-.48,3.83-.23,1.54-.48,3.07-.78,4.6-.1.5-.62,1-.55,1.44.19,1.2-.47,2.25-.44,3.39,0,1.94-1.24,3.15-2.43,4.38a4.57,4.57,0,0,1-1.56.78c-1.07.47-2.14.94-3.23,1.36-.66.26-1,0-1-.66s-.4-.6-.76-.49c-.64.18-.87-.09-.92-.67a.74.74,0,0,0-.07-.34c-.94-1.52-.67-3.11-.26-4.71a3.9,3.9,0,0,0,0-.41c-.6.44-1.1.84-1.63,1.21a9.94,9.94,0,0,1-5.93,1.83,6.59,6.59,0,0,1-4.76-1.82,7.78,7.78,0,0,1-2.16-4.42,27.76,27.76,0,0,1,.87-11.68c.68-2.42,1.29-4.87,2.14-7.23a18.12,18.12,0,0,1,3.56-6,4.71,4.71,0,0,1,2.11-.83c.94-.28,1.9-.48,2.86-.7a.55.55,0,0,1,.42.06.42.42,0,0,1,0,.37c-.61.55-.27,1.27-.38,1.9-.19,1.11-.47,2.21-.65,3.32q-.45,2.75-.84,5.51c-.26,1.84-.57,3.68-.72,5.53-.13,1.62-.08,3.25-.1,4.87,0,.11,0,.21.11.44Z"/><path class="cls-1" d="M85.56,59.6c1.13-.4,2.13-.78,3.14-1.12,1.69-.57,3.36-1.2,5.08-1.64a50.41,50.41,0,0,1,5.33-1,2.48,2.48,0,0,1,1.37.43,5,5,0,0,1,2.18,2.81c.34.92.73,1.82,1.08,2.73.17.44.18.92-.33,1.07s-.53.48-.45.86.1.88-.45,1.07a.77.77,0,0,0-.31.29,4.78,4.78,0,0,1-3.28,1.58c-1.77.34-3.53.76-5.3,1.11-1.38.27-2.78.47-4.17.72-.23,0-.45.13-.67.18l-2.38.57c-.55.12-1.12.19-1.65.35a6.51,6.51,0,0,1-5.46-.5A7.2,7.2,0,0,1,77.6,67c-.35-.49-.63-1-.95-1.54-.2-.32-.57-.6-.12-1,.09-.08,0-.4-.08-.58a11.83,11.83,0,0,1-.84-5.39c.15-1.43.29-2.85.48-4.28.4-3.15.68-6.33,1.28-9.44.69-3.6,1.65-7.15,2.55-10.71s1.77-6.87,2.76-10.28a21.24,21.24,0,0,1,3.13-6.59A3.05,3.05,0,0,1,88,16.11c.77-.15,1.55-.27,2.33-.36a1.36,1.36,0,0,1,.88.13c.12.1,0,.53,0,.81,0,.13-.1.27-.08.4a17.4,17.4,0,0,1-.24,5.34c-.44,3.05-.76,6.12-1.23,9.16-.4,2.58-1,5.13-1.41,7.7-.47,2.85-.86,5.72-1.27,8.59s-.84,5.87-1.22,8.82a26.13,26.13,0,0,0-.16,2.9Z"/><path class="cls-1" d="M183.08,77.41c.14,2.59,1,3.58,2.9,4.16a6.63,6.63,0,0,0,7.46-2,16.86,16.86,0,0,0,1.21-1.47,21.21,21.21,0,0,1,4.08-3.78c.37-.32,1-.3,1.53-.48,1.07-.38,2.12-.78,3.22-1.19a2.78,2.78,0,0,1-.3,2.29c-.3.6-.39,1.11.34,1.47a.47.47,0,0,1,.17.44c-1.16,3-1.77,6.34-4.05,8.87-.73.81-1.56,1.54-2.35,2.3a22.5,22.5,0,0,1-1.75,1.64,13.24,13.24,0,0,1-8.38,2.85,11.16,11.16,0,0,1-6.74-2.32c-3-2.34-4.35-5.52-4.86-9.19a21.24,21.24,0,0,1,.55-7.46,44.14,44.14,0,0,1,5-13.73,11.42,11.42,0,0,1,4.57-4.31,3.82,3.82,0,0,1,1.27-.39c3.09-.37,6-.14,8.39,2.23a5.81,5.81,0,0,1,1.69,4.07,9.58,9.58,0,0,1-.54,4.72,34.1,34.1,0,0,1-2.39,4c-.8,1.16-1.73,2.22-2.63,3.31a14,14,0,0,1-3.72,2.76,7.76,7.76,0,0,1-4.7,1.26Zm4.76-15.26a9.89,9.89,0,0,0-2.39,5c1-1.12,2-2.31,2.93-3.5a.5.5,0,0,0,0-.45C188.25,62.86,188.06,62.55,187.84,62.15Z"/><path class="cls-1" d="M131.11,86.82l.2.14a11.88,11.88,0,0,1-8.6,2.66,9.55,9.55,0,0,1-7.16-4.24,11.85,11.85,0,0,1-1.93-7.79,21,21,0,0,1,1.74-6.93c.9-2,1.69-4.14,2.71-6.12a25.92,25.92,0,0,1,2.71-4,8.63,8.63,0,0,1,3.77-2.65,2.3,2.3,0,0,1,.9-.15,13.94,13.94,0,0,1,3.31.21c2.6.76,5,2.68,4.88,6.07a10.79,10.79,0,0,1-3.29,7.18,16.81,16.81,0,0,1-4,3.6c-1.79,1-3.59,2-5.78,1.66-.06,0-.13,0-.19.06a3.26,3.26,0,0,0,2,3.66c3.14,1.38,5.57.35,7.53-1.88a23.27,23.27,0,0,1,4-3.19,1.49,1.49,0,0,1,.6-.17c.46-.09.93-.14,1.38-.26.74-.19,1.48-.42,2.21-.63l.24.23a9.22,9.22,0,0,1-.55,1.58c-.35.63-.49,1.13.35,1.55-.5,1.07-1,2.09-1.45,3.15a13.41,13.41,0,0,1-4.4,5.69,8.3,8.3,0,0,1-1.15.61Zm-8-19,.26.24,2-2.25c.78-.88.78-.88.23-2a9.49,9.49,0,0,0-2.49,4Z"/><path class="cls-1" d="M151.82,0c5.9.09,10.64,1.2,14.93,3.91a15.2,15.2,0,0,1,5.9,7.06,3.49,3.49,0,0,1-1.87,4.53A3.53,3.53,0,0,1,166,14.34c-2.58-4.88-7-6.81-12.1-7.07-7.42-.37-13.71,2.53-19,7.62a10.74,10.74,0,0,0-3.26,8.87,3.7,3.7,0,0,1-7.38.43,18.42,18.42,0,0,1,4.36-12.75A32.1,32.1,0,0,1,147,.57a46.79,46.79,0,0,1,4.8-.57Zm18.53,12.56.3-.12a2.46,2.46,0,0,0,0-.9,12.36,12.36,0,0,0-1.14-2.34,17.27,17.27,0,0,0-9.1-6.48A29.58,29.58,0,0,0,157,2l-.06.25c.89.28,1.78.53,2.66.84,4.56,1.57,8.19,4.2,10.14,8.79a3,3,0,0,0,.61.68Z"/><path class="cls-1" d="M176.16,24.51a3.74,3.74,0,0,1-2.62,3.65,3.51,3.51,0,0,0-2,1.72c-.93,1.55-1.89,3.1-2.92,4.59-.9,1.29-1.66,1.38-3,.55s-2.94-1.78-4.41-2.69a2.34,2.34,0,0,0-1.83-.26c-5.16,1.16-10.31,2.42-15.51,3.43-4.25.83-8.55,1.38-12.84,2a3.28,3.28,0,0,1-3.93-2.4,2,2,0,0,1,1.31-2.5c1.4-.47,2.85-.8,4.29-1.15,5.34-1.27,10.71-2.41,16-3.8s10.73-3.07,16.08-4.62c2.26-.65,4.51-1.34,6.78-2a3.55,3.55,0,0,1,4.64,3.44Z"/><path class="cls-1" d="M139.05,50.37c-2-.11-3.91-.2-5.86-.35a3.06,3.06,0,0,1-2.93-3.13,2.24,2.24,0,0,1,1.88-2.38,11.68,11.68,0,0,1,2-.25,138.49,138.49,0,0,0,18.39-2.15c7.51-1.44,15-3.1,22.36-5.16a7.35,7.35,0,0,1,3.05-.24c1.63.26,2.32,1.59,2.45,3.52A3.13,3.13,0,0,1,178,43.56c-2.72.77-5.46,1.45-8.17,2.23-4.35,1.26-8.83,1.82-13.25,2.69a95.22,95.22,0,0,1-17.57,1.89Z"/><path class="cls-1" d="M173.53,67c.09.49.15.79.21,1.1a6.74,6.74,0,0,1,.23,1.38c-.14,2.54-.19,5.09-.52,7.61-.4,3.1-.87,6.19-1,9.32-.12,2.45-.43,4.88-.63,7.32a21.31,21.31,0,0,0,0,2.26,3.63,3.63,0,0,1-.69,2.32,6.1,6.1,0,0,1-2.51,2.29A22.38,22.38,0,0,0,166.3,102a2.56,2.56,0,0,1-1.1.39c-.22,0-.5-.29-.67-.51s0-.4-.05-.72l-1.64.17a15.34,15.34,0,0,1-1.18-3.88,44.93,44.93,0,0,1,.41-7.33c.4-3,1-6,1.63-9,.44-2.06,1.11-4.08,1.61-6.13a13.43,13.43,0,0,1,3.17-6.12,5,5,0,0,1,1.83-1c.85-.32,1.74-.54,2.62-.78a3.27,3.27,0,0,1,.6,0Z"/><path class="cls-1" d="M174.38,52.88c.72-.05,1.44-.11,2.16-.13.2,0,.53.07.57.19.21.58.67.49,1.11.53a1.84,1.84,0,0,1,1.31,2.18,15.79,15.79,0,0,1-2.79,5,11.78,11.78,0,0,0-1.17,1.54,3.87,3.87,0,0,1-2.86,1.63,9.08,9.08,0,0,1-2.31-.18c-.65-.08-1.29-.26-1.94-.32a1.14,1.14,0,0,1-1.2-1.43,11.9,11.9,0,0,1,1.22-4.3,25.49,25.49,0,0,0,1.28-3.52,1,1,0,0,1,1-.84c1.21-.12,2.41-.32,3.62-.49C174.37,52.8,174.37,52.84,174.38,52.88Z"/><path class="cls-1" d="M101.82,127.43c.45,2,.89,4.07,1.34,6.1h.1c.28-1.29.57-2.58.85-3.87.09-.39.18-.78.26-1.17.25-1.12.25-1.12,1.43-1.12h1.56s.09,0,.18,0v11h-1.89v-6.81h-.13c-.45,2.08-.94,4.15-1.34,6.24-.15.81-.67.59-1.15.64s-.73-.16-.83-.69q-.61-3.11-1.45-6.19v1c0,1.75,0,3.49,0,5.24,0,.48-.12.68-.63.67-1.67,0-1.34.07-1.35-1.29q0-4.5,0-9v-.75Z"/><path class="cls-1" d="M81.78,127.42h3q.66,3,1.33,6l.1,0c.09-.38.19-.76.27-1.15.33-1.49.64-3,1-4.48,0-.19.29-.46.45-.47.84-.05,1.69,0,2.58,0v11h-1.9v-6.93h-.1c-.46,2.11-1,4.21-1.35,6.33-.15.79-.64.62-1.14.66s-.74-.12-.85-.67c-.38-2-.83-4-1.26-5.94a2.83,2.83,0,0,0-.19-.46c0,2.15,0,4.2,0,6.26,0,.67-.2.9-.83.82a2,2,0,0,0-.49,0c-.53.06-.68-.18-.68-.7,0-2.5,0-5,0-7.5v-2.85Z"/><path class="cls-1" d="M133.18,127.45c1.32,0,2.57-.06,3.81,0a2.25,2.25,0,0,1,2.2,1.78,2.78,2.78,0,0,1-.84,3.14l-.21.19a.35.35,0,0,0,0,.11,2.54,2.54,0,0,1,1.49,2.26c.08,2.26-1,3.44-3.27,3.49-1,0-2.07,0-3.15,0,0-3.7,0-7.34,0-11Zm2.23,9.09c.66.06,1.27.15,1.61-.42a1.74,1.74,0,0,0,0-1.93c-.22-.31-.78-.39-1.2-.52-.1,0-.39.2-.4.32C135.39,134.83,135.41,135.67,135.41,136.54Zm0-4.86c1.32.19,2-.53,1.65-1.69a1.09,1.09,0,0,0-1.3-.72c-.58.09-.32.54-.34.84,0,.5,0,1,0,1.57Z"/><path class="cls-1" d="M148.6,127.49c1.39,0,2.72-.08,4,0a2.28,2.28,0,0,1,2.15,2c.25,1.37.3,2.73-.86,3.81-.13.12-.11.47,0,.69.35,1.27.74,2.53,1.1,3.79.05.17.07.35.12.62-.72,0-1.37,0-2,0-.15,0-.37-.26-.42-.43-.34-1.15-.66-2.31-1-3.47-.12-.46-.33-.65-.88-.43,0,1.19,0,2.41,0,3.63,0,.55-.13.78-.7.73s-1,0-1.52,0Zm2.21,4.64a1.37,1.37,0,0,0,1.54-.39,1.61,1.61,0,0,0,.07-1.87c-.22-.32-.76-.44-1.17-.58-.09,0-.41.23-.41.37-.05.82,0,1.64,0,2.47Z"/><path class="cls-1" d="M177,138.45a19,19,0,0,1-2,0c-.19,0-.43-.32-.49-.54-.33-1.11-.62-2.22-.9-3.34-.11-.45-.31-.67-.89-.46,0,1.18,0,2.4,0,3.62,0,.59-.15.82-.75.76s-.93,0-1.45,0V127.32c1.42.06,2.81,0,4.17.23a2.87,2.87,0,0,1,1.55,1c.82,1,.88,3.72-.36,4.72a.76.76,0,0,0-.16.65c.33,1.23.71,2.44,1.07,3.66l.23.88Zm-4.25-9.14v2.86c.65.06,1.34.07,1.52-.55a3.26,3.26,0,0,0-.06-1.88C174,129.17,173.37,129.24,172.79,129.31Z"/><path class="cls-1" d="M116.71,127.48c1.4,0,2.75-.09,4.07,0a2.13,2.13,0,0,1,2,2.09c.09,2.21.1,4.42,0,6.63a2.32,2.32,0,0,1-2.32,2.17c-1.13.08-2.26.06-3.39,0-.16,0-.46-.27-.46-.42,0-3.47,0-6.94,0-10.4,0,0,0-.09,0-.13Zm2.24,1.85v7.2c1.34.12,1.7-.2,1.7-1.46,0-1.46,0-2.92,0-4.39C120.64,129.51,120.19,129.16,119,129.33Z"/><path class="cls-1" d="M72.42,138.45H70.61c-.43,0-.41-.28-.41-.58v-4.09H68.35c0,1.27,0,2.54,0,3.8,0,.76-.23.95-.92.88-.41,0-.84,0-1.3,0v-11h2.19c0,1.16,0,2.32,0,3.46,0,.7.22.94.88.84a1.48,1.48,0,0,1,.42,0c.43,0,.58-.14.57-.57,0-1.22,0-2.45,0-3.73h2.21C72.42,131.08,72.42,134.7,72.42,138.45Z"/><path class="cls-1" d="M162.46,131.27h-2.35c0-.34-.05-.69-.07-1,0-.55-.2-1-.82-1s-.9.46-.92,1c0,1,0,2,0,3,0,.73,0,1.46,0,2.19,0,.56.15,1.1.89,1.13s.95-.42,1-1c.06-.32,0-.65.07-1l-1-.17v-1.88c1,0,1.92,0,2.87,0,.1,0,.27.26.27.4,0,1.67,0,3.35,0,5,0,.15-.15.43-.23.43a1.89,1.89,0,0,1-.85-.15c-.16-.08-.24-.33-.39-.58a2.69,2.69,0,0,1-2.39,1,2.65,2.65,0,0,1-2.52-2.83,50,50,0,0,1,0-5.87,3.13,3.13,0,0,1,5.07-2.2,2.89,2.89,0,0,1,.93,1.36,13.67,13.67,0,0,1,.35,2.17Z"/><path class="cls-1" d="M80.35,133c-.07,1.13-.1,2.26-.24,3.38a2.44,2.44,0,0,1-2.35,2.25c-1.88.25-3.63-.42-3.7-2.71-.06-2-.11-4,0-5.93s1.15-2.82,3.31-2.76c1.76.05,2.75,1,2.86,2.93.05.94,0,1.89,0,2.83ZM78,132.92c0-.92,0-1.84,0-2.75,0-.52-.28-1-.9-1a.83.83,0,0,0-.83,1c0,1.88,0,3.76,0,5.63,0,.66.52,1,1,.76a1.45,1.45,0,0,0,.66-1,22.7,22.7,0,0,0,0-2.61Z"/><path class="cls-1" d="M140.65,127.4h2.19c0,.27,0,.52,0,.76V135a1.9,1.9,0,0,0,.1.9,1.53,1.53,0,0,0,.78.64.7.7,0,0,0,.9-.59,3.37,3.37,0,0,0,.08-.84v-7.73H147v1.36c0,2.38,0,4.77,0,7.15,0,1.53-.9,2.39-2.57,2.69a3.08,3.08,0,0,1-3.46-1.57,2.48,2.48,0,0,1-.25-.95c0-2.87,0-5.74,0-8.69Z"/><path class="cls-1" d="M113.69,127.38c.67,3.68,1.34,7.31,2,11.07-.68,0-1.29,0-1.89,0a.6.6,0,0,1-.39-.37c-.14-.52-.21-1.06-.32-1.62h-2c-.09.5-.22,1-.26,1.51s-.2.52-.58.51c-.56,0-1.12,0-1.77,0,.28-1.62.54-3.15.82-4.67.35-1.95.74-3.89,1.08-5.83.08-.44.22-.6.67-.58.85,0,1.7,0,2.59,0Zm-1.5,2.9-.13,0c-.2,1.34-.39,2.67-.59,4h1.31C112.57,133,112.38,131.62,112.19,130.28Z"/><path class="cls-1" d="M177.61,135.41l2-.2a6.19,6.19,0,0,0,.38.86,1.22,1.22,0,0,0,1.61.41,1,1,0,0,0,.08-1.5,6.89,6.89,0,0,0-1.11-1c-.39-.3-.84-.53-1.23-.82a3.73,3.73,0,0,1-1.52-2.3,2.87,2.87,0,0,1,2.13-3.54c2.27-.57,4.1.53,4.15,2.87l-2,.16c-.09-.22-.14-.39-.22-.56a.93.93,0,0,0-1.34-.48.91.91,0,0,0-.26,1.35,6.46,6.46,0,0,0,1.19,1.08c.52.4,1.11.72,1.61,1.14a3.47,3.47,0,0,1,1.26,2.88c-.06,1.64-1,2.57-2.76,2.87A3.29,3.29,0,0,1,177.61,135.41Z"/><path class="cls-1" d="M166.3,133.69c0,.89,0,1.71,0,2.52,0,.12.31.31.49.32.8,0,1.6,0,2.46,0v1.85c-.25,0-.5,0-.75,0-1.3,0-2.59,0-3.89,0-.36,0-.63,0-.63-.51,0-3.44,0-6.88,0-10.32a.9.9,0,0,1,.06-.18h5.15v1.88h-2.94c0,.74,0,1.41,0,2.08,0,.12.26.3.42.33.37.05.76,0,1.13,0s.76.12.77.23a7.14,7.14,0,0,1,0,1.6s-.33.1-.51.11Z"/><path class="cls-1" d="M92.39,127.42h5.12v1.9H94.6c0,.73,0,1.39,0,2,0,.14.33.35.52.37.58.05,1.17,0,1.8,0v1.95c-.58,0-1.12,0-1.65,0s-.75.11-.7.66a11.6,11.6,0,0,1,0,1.56c0,.49.14.68.65.66.77,0,1.54,0,2.3,0a1.37,1.37,0,0,1,.1.27c0,2,.25,1.59-1.54,1.62-1.22,0-2.44,0-3.7,0,0-3.73,0-7.38,0-11Z"/><path class="cls-1" d="M124.39,127.42h5.14v1.89h-2.91c0,.73,0,1.39,0,2,0,.14.33.35.52.37.58.05,1.17,0,1.8,0v1.95c-.58,0-1.12,0-1.65,0s-.75.11-.7.66a11.6,11.6,0,0,1,0,1.56c0,.48.14.68.64.66.77,0,1.54,0,2.3,0a1.37,1.37,0,0,1,.1.27c0,2,.26,1.59-1.54,1.62-1.22,0-2.44,0-3.71,0,0-3.69,0-7.31,0-11Z"/><path class="cls-1" d="M212.42,89.73a5.12,5.12,0,0,1-5.29,5.11,5.29,5.29,0,0,1-5.34-5.2,5.32,5.32,0,0,1,10.63.09Zm-1.53-.1a3.74,3.74,0,0,0-3.81-3.87,3.84,3.84,0,0,0-3.75,4,3.78,3.78,0,1,0,7.56-.1Z"/><path class="cls-1" d="M208.44,89.85c.95.59.8,1.51,1,2.37-.48,0-.94.13-1.24,0a1.53,1.53,0,0,1-.52-.94c-.21-.76-.36-.9-1.24-.83-.07.51-.14,1-.21,1.63l-1.4-.11c.11-1.49.2-2.92.34-4.34a.54.54,0,0,1,.39-.36,22.65,22.65,0,0,1,2.74.14,1.32,1.32,0,0,1,1.23,1.1C209.68,89.25,209.12,89.53,208.44,89.85Zm-1.93-.26a12.15,12.15,0,0,0,1.32-.52.67.67,0,0,0-.05-.55,8.06,8.06,0,0,0-1.17-.37c0,.5-.06.82-.1,1.44Z"/></g></g></svg>