<svg xmlns="http://www.w3.org/2000/svg" viewBox="0 0 142.11 63.63"><defs><style>.cls-1{fill:#ee4323;}</style></defs><g id="Calque_2" data-name="Calque 2"><g id="Calque_1-2" data-name="Calque 1"><path class="cls-1" d="M131.36,57.2c0-2.17,0-4.31-.06-6.55l4.16-.06c-.12-13.47-.24-26.9-.36-40.38l-43.34.38c0-2.21-.05-4.38-.06-6.61l4.44-.06,40.46-.35a7.94,7.94,0,0,1,2.49.27,3.84,3.84,0,0,1,2.61,3.74l.3,33.06q0,6.2.11,12.39a4,4,0,0,1-4,4.16c-2.15.05-4.3.05-6.45.06a1.72,1.72,0,0,1-.35,0Z"/><path class="cls-1" d="M45,4.44c0,2.19,0,4.35.07,6.58l-38.41.35c.12,13.47.24,26.9.36,40.38,1.84,0,3.63,0,5.49,0,0,2.21.05,4.39.06,6.61-2.48,0-4.87.07-7.27.05A7.07,7.07,0,0,1,2.86,58a3.64,3.64,0,0,1-2.4-3.49C.38,49.73.35,44.93.31,40.12.22,29.86.18,19.6,0,9.34A4.35,4.35,0,0,1,4.45,4.73c13.39-.05,26.76-.21,40.14-.33.13,0,.26,0,.44,0Z"/><path class="cls-1" d="M78.66,30a6,6,0,0,1,4.27,6.46c-.24,3.65-1.93,5.71-5.47,6.68a26.57,26.57,0,0,1-6.71.69c-2.72,0-5.44.06-8.15.08-1.75,0-2.64-.81-2.66-2.48q-.06-7.76-.13-15.49c0-1.56,0-3.12,0-4.68a2.2,2.2,0,0,1,2.37-2.49c4.32,0,8.64-.1,13,0a10.24,10.24,0,0,1,3.45.69,5.06,5.06,0,0,1,3,6.73,8.28,8.28,0,0,1-2.28,3.29c-.18.16-.37.33-.6.56Zm-9.74,3.31C69,35,69,36.48,69,38c.88,0,1.7,0,2.52,0a2.36,2.36,0,0,0,2.26-2.22,2.32,2.32,0,0,0-2.12-2.41c-.86-.08-1.75,0-2.71,0Zm0-5.35c.88,0,1.73,0,2.54-.1a2.06,2.06,0,0,0,1.66-2,1.92,1.92,0,0,0-1.56-2,23.91,23.91,0,0,0-2.69-.07c0,1.41,0,2.71,0,4.1Z"/><path class="cls-1" d="M128.18,29.58c2.93.81,4.39,3.41,4.28,6.33-.14,3.55-1.81,5.75-5.22,6.75a26,26,0,0,1-7.08.77c-2.67,0-5.34,0-8,.08-1.8,0-2.65-.79-2.66-2.6-.07-6.74-.12-13.48-.19-20.23a2.18,2.18,0,0,1,2.17-2.31c4.41-.05,8.81-.11,13.21-.06A10.65,10.65,0,0,1,128,19a5.12,5.12,0,0,1,3,7,8.56,8.56,0,0,1-2.2,3.06c-.17.18-.36.34-.61.57Zm-9.67,8c.93,0,1.79,0,2.64,0a2.38,2.38,0,0,0,2.15-2.27,2.25,2.25,0,0,0-1.92-2.3,25.33,25.33,0,0,0-2.91-.08C118.48,34.49,118.49,36,118.51,37.59Zm-.1-10a22.85,22.85,0,0,0,2.52-.09,2,2,0,0,0,1.69-2.07A1.94,1.94,0,0,0,121,23.5a24.85,24.85,0,0,0-2.6,0c0,1.38,0,2.68,0,4.09Z"/><path class="cls-1" d="M86.6,31.15Q88,25.72,89.32,20.29a2.17,2.17,0,0,1,2.13-1.74q4.47-.06,8.91-.08a2.2,2.2,0,0,1,2.11,1.85q1.65,6.11,3.31,12.2l2.43,9c.37,1.33-.16,2-1.53,2l-4.8.06a2.28,2.28,0,0,1-2.56-2c-.17-.75-.35-1.51-.51-2.28a.63.63,0,0,0-.74-.59c-1.39,0-2.78,0-4.17,0a.71.71,0,0,0-.78.66c-.12.75-.27,1.5-.41,2.24a2.23,2.23,0,0,1-2.46,2l-4.73,0c-1.36,0-1.9-.67-1.57-2,.88-3.52,1.76-7.07,2.65-10.61Zm10.71,1.59c-.47-2.22-.91-4.35-1.37-6.46h-.13l-1.26,6.49C95.45,32.75,96.32,32.75,97.31,32.74Z"/><path class="cls-1" d="M47.44,26.58c0,.83,0,1.6,0,2.44l4.64,0c.65,0,1.31,0,2,0a1.35,1.35,0,0,1,1.42,1.37c0,.66,0,1.31,0,2a1.41,1.41,0,0,1-1.6,1.6L48,34l-.52,0c0,.82,0,1.63,0,2.52l3.89,0c1.32,0,2.66,0,4,0a2.16,2.16,0,0,1,2.34,2.32c0,1,0,1.9,0,2.84A2.21,2.21,0,0,1,55.39,44L41,44.14a2.26,2.26,0,0,1-2.57-2.5l-.18-20.22A2.2,2.2,0,0,1,40.6,19c4.91,0,9.83-.1,14.73-.13A2.15,2.15,0,0,1,57.56,21c0,1.07,0,2.14,0,3.22a2.11,2.11,0,0,1-2.19,2.2c-2.5.05-5,.06-7.52.08l-.43,0Z"/><path class="cls-1" d="M22.33,29.85c.34-.83.86-2.08,1.38-3.31.85-2,1.71-3.95,2.55-5.92a2.26,2.26,0,0,1,2.27-1.49c1.75,0,3.5,0,5.24-.05a1.39,1.39,0,0,1,1.37,2.06q-2.16,5-4.36,10a1,1,0,0,0,0,1c1.75,3.25,3.46,6.52,5.19,9.78.06.11.12.23.17.34a1.37,1.37,0,0,1-1.22,2c-1.83.05-3.67.06-5.49.07a2.2,2.2,0,0,1-2.07-1.3q-2.32-4.43-4.66-8.84a6.42,6.42,0,0,1-.42-4.38Z"/><path class="cls-1" d="M69.91,16.56a1,1,0,0,1-1-1.11c0-1.07,0-2.15,0-3.22s-.27-1.34-1.34-1.34a5.61,5.61,0,0,0-.58,0c-.75,0-1.08.34-1.07,1.09,0,1.1,0,2.2,0,3.29s-.32,1.31-1.27,1.33-2,0-3,0c-.81,0-1.19-.35-1.2-1.19L60.4,7.78c0-2,0-4.05-.06-6.07,0-1.16.28-1.47,1.43-1.48.93,0,1.86,0,2.79,0s1.29.34,1.29,1.29,0,2.2,0,3.29.23,1.41,1.4,1.4h.43c.83,0,1.14-.34,1.14-1.16,0-1.25,0-2.49,0-3.74A1,1,0,0,1,69.94.16c1.07,0,2.14,0,3.22,0,.77,0,1.14.35,1.14,1.12,0,4.71.09,9.44.13,14.16,0,.59-.25,1-.85,1.07-1.24.09-2.51.06-3.67.08Z"/><path class="cls-1" d="M74.49,63.09a1,1,0,0,1-.89-1.15c0-3.79-.06-7.58-.1-11.38,0-.77,0-1.56,0-2.34S73.8,47,74.73,47l2.84,0c1,0,1.3.31,1.31,1.28,0,1.17,0,2.35.05,3.54,0,.81.32,1.09,1.12,1.09h.25c1.37,0,1.57-.19,1.55-1.57,0-1.07,0-2.15,0-3.23,0-.78.33-1.13,1.1-1.15q1.54,0,3.09,0c.89,0,1.21.34,1.22,1.24,0,3.18.05,6.37.09,9.54,0,1.39,0,2.79,0,4.17A1,1,0,0,1,86.2,63c-1,0-2.06,0-3.1,0a1,1,0,0,1-1.16-1.1c0-1.14,0-2.28,0-3.41,0-.78-.3-1-1.07-1.07-1.74,0-1.86.08-1.84,1.78,0,.87,0,1.72,0,2.59s-.36,1.24-1.27,1.25l-3.25,0Z"/><path class="cls-1" d="M16.76,47.48c1.44,0,2.84,0,4.24,0a24.27,24.27,0,0,1,3.72.17c2.64.41,3.77,1.88,3.52,4.54a8.81,8.81,0,0,1-.74,2.39,1,1,0,0,0,.17,1.25,4.61,4.61,0,0,1-1.33,7.13,10.58,10.58,0,0,1-4.28.65l-4.92,0c-1.1,0-1.43-.29-1.44-1.42,0-4.48-.1-9-.12-13.46,0-.89.05-1.79.08-2.68,0-.36.09-.72.53-.72s.54.31.53.69,0,.91,0,1.45Zm5.91,9.74c-1.05-.16-1.49,0-1.57.43-.21,1.11,0,2.07.5,2.09,1.25.07,1.88,0,2-.84C23.75,57.9,23.45,57.35,22.67,57.22Zm.91-4.31c-.23-.61-.27-1.29-.61-1.49a2.65,2.65,0,0,0-1.66-.15c-.16,0-.2.76-.27,1.16a3.62,3.62,0,0,0,0,.57c0,.47.18.7.67.68a2.4,2.4,0,0,0,.81-.07,9.06,9.06,0,0,0,1-.7Z"/><path class="cls-1" d="M115.57,54.55c-.38.71-.84,1.51-1.22,2.33a1.75,1.75,0,0,0-.18,1c.29,1.21.66,2.39,1,3.59.24.84,0,1.2-.9,1.22l-3.41,0a.89.89,0,0,1-1-.82c-.18-.87-.4-1.72-.6-2.58-.09-.41-.27-.74-.74-.71s-.64.42-.63.86c0,.75,0,1.52,0,2.27s-.25,1-1,1c-1.09,0-2.19,0-3.28,0-.93,0-1.14-.2-1.15-1.14,0-3.86-.08-7.71-.11-11.57,0-.81,0-1.64,0-2.45,0-.57.22-1,.85-.95,2.56,0,5.13-.07,7.7,0,2.87.14,4.38,1.67,4.64,4.53C115.62,52.3,115.56,53.34,115.57,54.55ZM110.16,53a5,5,0,0,0-.12-1.08,1.37,1.37,0,0,0-1.92-.7c-.5.31-.49,2.54,0,2.86a1.42,1.42,0,0,0,2-1.08Z"/><path class="cls-1" d="M43.4,55.11c-.42.81-.87,1.6-1.26,2.43a1.59,1.59,0,0,0-.19,1c.29,1.2.67,2.39,1,3.59.25.89,0,1.25-1,1.27l-3.35,0a.87.87,0,0,1-1-.78c-.19-.88-.41-1.76-.62-2.65-.09-.4-.28-.75-.75-.7s-.65.42-.63.87c0,.73,0,1.47,0,2.21s-.25,1.06-1.06,1.06c-1.13,0-2.28,0-3.41,0-.65,0-.94-.26-.94-.9-.05-4.78-.09-9.57-.13-14.34a.78.78,0,0,1,.85-.88c2.56,0,5.14-.09,7.7,0,2.85.15,4.31,1.64,4.63,4.48a16,16,0,0,1,.06,2c0,.39-.09.8-.13,1.19l.13.09ZM38,53.82a9.24,9.24,0,0,0-.11-1.18,1.36,1.36,0,0,0-1.93-.79c-.56.32-.54,2.56,0,2.88a1.44,1.44,0,0,0,2-.91Z"/><path class="cls-1" d="M44.94,52.14A5.77,5.77,0,0,1,50.35,47a10.74,10.74,0,0,1,4.94.33,5,5,0,0,1,3.28,3,13.91,13.91,0,0,1,.14,9.54,5,5,0,0,1-3.81,3.37,10.63,10.63,0,0,1-6.17-.16,5.35,5.35,0,0,1-3.41-3.56,16.11,16.11,0,0,1-.38-7.39Zm5.34,1a12.4,12.4,0,0,0,.17,4.63A1.49,1.49,0,0,0,52.2,59a1.45,1.45,0,0,0,1.58-1.32,12.46,12.46,0,0,0,0-4.83,1.63,1.63,0,0,0-2.13-1.41c-.82.14-1.16.58-1.37,1.74Z"/><path class="cls-1" d="M122,57.23c-1-.33-2-.6-3-1A3.18,3.18,0,0,1,117.14,54a8.42,8.42,0,0,1,.16-5,3.45,3.45,0,0,1,2.57-2.32,18.25,18.25,0,0,1,3.75-.41,38.62,38.62,0,0,1,4.28.37A1.19,1.19,0,0,1,129.07,48c0,.57,0,1.14,0,1.7-.05,1-.53,1.4-1.55,1.35-1.41-.08-2.82-.12-4.23-.17a.89.89,0,0,0-.43,0,2.43,2.43,0,0,0-.49.29c.14.16.25.41.42.47.68.21,1.39.35,2.08.53s1.58.43,2.35.72a3.35,3.35,0,0,1,2.43,3.27,19.32,19.32,0,0,1-.14,3.14,3.92,3.92,0,0,1-2.81,3.2,12.31,12.31,0,0,1-5,.39c-1.17-.09-2.33-.31-3.49-.51a1.14,1.14,0,0,1-1-1.31c0-.61,0-1.22.09-1.83A1.16,1.16,0,0,1,118.63,58l4.48.28a1.42,1.42,0,0,0,.62-.06,2.19,2.19,0,0,0,.51-.46c-.17-.13-.32-.33-.51-.38-.53-.14-1.08-.22-1.61-.32a.26.26,0,0,0-.08.13Z"/><path class="cls-1" d="M88.21,15.92c-.24.14-.52.45-.82.45-3.39.07-6.78.09-10.17.11-.64,0-.84-.26-.85-1.07,0-3-.05-6.07-.07-9.1,0-1.76,0-3.54,0-5.31,0-.65.23-.9.86-.91l10-.09c.72,0,1,.23,1,1,0,.89,0,1.77,0,2.65,0,.72-.21.95-.93,1l-4.11,0c-.19,0-.41-.06-.55,0s-.59.37-.65.62c-.1.41.2.67.63.68.8,0,1.6,0,2.4,0,1.08,0,1.25.14,1.27,1.22,0,.77,0,1.56,0,2.33s-.24,1-1,1-1.65,0-2.47,0c-.5,0-.84.18-.84.72s.39.69.87.68c1.52,0,3,0,4.55,0,.5,0,.86.19.88.69C88.19,13.58,88.19,14.65,88.21,15.92Z"/><path class="cls-1" d="M100.29,46.66c.16.28.43.56.46.85.06.93,0,1.89,0,2.83,0,.64-.25.87-.9.88-1.47,0-2.95,0-4.42,0-.49,0-.86.13-.86.68s.41.63.84.64l2.34,0c.84,0,1,.21,1.07,1s0,1.65,0,2.47-.21,1-.94,1l-2.46,0c-.5,0-.84.18-.82.73s.38.64.82.64l4.18,0c1,0,1.21.16,1.22,1.2,0,.79,0,1.6,0,2.39s-.24.9-.86.92c-3.3,0-6.61.07-9.91.09-.64,0-.86-.27-.86-1.05q0-3.85-.07-7.71l-.06-6.26c0-.92.19-1.12,1.1-1.13l9.54-.09c.13,0,.25,0,.38,0Z"/><path class="cls-1" d="M47.14,1.51A1.23,1.23,0,0,1,48.51.36c2.77,0,5.56,0,8.34-.09,1.8-.06,2.13.39,2,2.07,0,.46,0,.93,0,1.38A1.14,1.14,0,0,1,57.67,5h-.58A1.08,1.08,0,0,0,55.91,6.2c0,2.9,0,5.81.06,8.72a4,4,0,0,1,0,.69,1.09,1.09,0,0,1-1.11,1.07c-1,0-2.07.05-3.1,0-.83,0-1.22-.42-1.23-1.27q0-4.42-.08-8.85C50.43,5.37,50.1,5,48.86,5s-1.67-.31-1.7-1.66c0-.68,0-1.35,0-1.87Z"/><path class="cls-1" d="M64.79,63.17a1.14,1.14,0,0,1-1-1.29c0-2.7-.06-5.41-.09-8.1a1.28,1.28,0,0,1,0-.19c0-1.33-.06-2.08-1.91-1.94-.85.07-1.29-.42-1.31-1.27,0-.69,0-1.39,0-2.09a1.1,1.1,0,0,1,1.14-1.23Q66.24,47,70.86,47c.76,0,1.14.43,1.17,1.21s0,1.43,0,2.14a1.12,1.12,0,0,1-1.15,1.22,3.27,3.27,0,0,1-.44,0c-1,0-1.38.4-1.37,1.39,0,2.93.05,5.86.07,8.79,0,.94-.4,1.38-1.32,1.39s-2.12,0-3.06,0Z"/><path class="cls-1" d="M21.47,26.77a1.59,1.59,0,0,1-1.33,1.34c-2.66.43-5.33.82-8,1.22a1.13,1.13,0,0,1-1.41-1.08c-.09-.69-.17-1.37-.2-2.07a1.38,1.38,0,0,1,1.22-1.52Q16,24,20.32,23.38c.91-.13,1.39.37,1.32,1.3-.07.71-.12,1.4-.17,2.09Z"/><path class="cls-1" d="M21.08,32.2a1.68,1.68,0,0,1-1.49,1.6c-2.29.35-4.58.7-6.86,1.07a1.16,1.16,0,0,1-1.52-1.14c-.08-.64-.13-1.3-.18-1.95a1.36,1.36,0,0,1,1.22-1.57q3.84-.62,7.68-1.17c.88-.12,1.32.32,1.28,1.19C21.18,31,21.12,31.66,21.08,32.2Z"/><path class="cls-1" d="M18.79,19.06c.77.28,1.54.56,2.3.87a1.14,1.14,0,0,1,.79,1.17A1.44,1.44,0,0,1,21,22.35a3.06,3.06,0,0,1-.79.2c-2.75.41-5.49.8-8.24,1.22-1.17.17-1.63-.18-1.74-1.37-.21-2,0-2.4,2-3a16.31,16.31,0,0,1,6.6-.38Z"/><path class="cls-1" d="M20.68,38a1.6,1.6,0,0,1-1.33,1.37c-2.1.35-4.2.68-6.3,1a1.08,1.08,0,0,1-1.35-1c-.1-.75-.16-1.51-.2-2.27a1.3,1.3,0,0,1,1.11-1.4q3.53-.59,7.05-1.12a.93.93,0,0,1,1.15,1c0,.83-.08,1.66-.13,2.38Z"/><path class="cls-1" d="M14.33,44.66a18.37,18.37,0,0,1-1.77-.86A1.24,1.24,0,0,1,12,42.36a1.29,1.29,0,0,1,1.12-1.06c2.06-.33,4.12-.68,6.17-1a.94.94,0,0,1,1.17,1v.06c0,2.12-.55,2.87-2.65,3.15a31.91,31.91,0,0,1-3.49.16Z"/><path class="cls-1" d="M15.4,15.92c.14-.1.36-.35.53-.33a.78.78,0,0,1,.51.49,6.35,6.35,0,0,1,0,1.63.74.74,0,0,1-.49.51.71.71,0,0,1-.53-.46,15.37,15.37,0,0,1,0-1.84Z"/></g></g></svg>