<?xml version="1.0" encoding="UTF-8"?>
<svg width="42px" height="32px" viewBox="0 0 42 32" version="1.1" xmlns="http://www.w3.org/2000/svg" xmlns:xlink="http://www.w3.org/1999/xlink">
    <title>spring-rolls (1)</title>
    <g id="Page-1" stroke="none" stroke-width="1" fill="none" fill-rule="evenodd">
        <g id="spring-rolls-(1)" fill="#3F4970" fill-rule="nonzero">
            <path d="M20.1858868,10.3674973 C20.2542991,10.5017792 20.3905914,10.5900816 20.5434236,10.5991418 C20.6962559,10.6082019 20.8424093,10.5366434 20.9268292,10.4114216 C21.0112492,10.2861999 21.0211103,10.126339 20.952698,9.9920571 L20.1914558,8.49995514 L20.9548399,7.00785317 C21.0232522,6.87357126 21.0133911,6.7137104 20.9289712,6.58848863 C20.8445512,6.46326686 20.6983978,6.39170835 20.5455656,6.40076851 C20.3927333,6.40982866 20.256441,6.49813102 20.1880288,6.63241294 L19.4477775,8.07999962 L16.5501737,8.07999962 L15.8142063,6.63241294 C15.745794,6.49813103 15.6095018,6.40982867 15.4566695,6.40076852 C15.3038372,6.39170837 15.1576838,6.46326688 15.0732639,6.58848864 C14.9888439,6.71371041 14.9789828,6.87357126 15.0473951,7.00785317 L15.8064953,8.49995514 L15.0452532,9.9920571 C14.9394969,10.1996389 15.0254211,10.4519624 15.2371702,10.5556374 C15.4489192,10.6593124 15.7063081,10.5750792 15.8120644,10.3674973 L16.5501737,8.91991066 L19.4477775,8.91991066 L20.1858868,10.3674973 Z" id="Shape"></path>
            <path d="M11.7203565,21.1016925 C11.6017427,21.0435822 11.464422,21.0340515 11.3386338,21.0751993 C11.2128456,21.1163471 11.1089054,21.2047988 11.0497019,21.3210766 L10.1886455,23.011509 L6.80838667,23.011509 L5.94982893,21.323525 C5.87002118,21.1669432 5.71102667,21.0639767 5.53273709,21.0534119 C5.35444752,21.0428472 5.1839493,21.1262893 5.08546748,21.2723063 C4.98698565,21.4183234 4.97548195,21.604732 5.05528971,21.7613138 L5.94083356,23.5012056 L5.052791,25.2410974 C4.92941893,25.4831519 5.02965551,25.7773782 5.27667568,25.8982702 C5.52369586,26.0191622 5.82395811,25.9209406 5.94733021,25.6788862 L6.80838667,23.9909021 L10.1886455,23.9909021 L11.0497019,25.6788862 C11.173074,25.9209407 11.4733363,26.0191622 11.7203565,25.8982702 C11.9673767,25.7773782 12.0676132,25.4831519 11.9442411,25.2410974 L11.0561986,23.5012056 L11.9467399,21.7613138 C12.0066599,21.6445358 12.0164499,21.5091309 11.9739307,21.3852411 C11.9314115,21.2613514 11.8401121,21.1592597 11.7203565,21.1016925 L11.7203565,21.1016925 Z" id="Shape"></path>
            <path d="M34.6698804,15.3654301 C37.82104,13.3727857 39.2671933,9.55585362 38.2189771,5.99805397 C37.170761,2.44025432 33.8799733,-0.0037738739 30.1428455,4.37447664e-06 L17.5249101,4.37447664e-06 C13.8129688,-0.00173539698 10.539113,2.41101661 9.46967841,5.93651853 C8.40024375,9.46202047 9.7883253,13.2659179 12.8850149,15.2959033 L8.41195677,15.2959033 C3.7661613,15.2959034 0,19.031288 0,23.6391185 C0,28.2469489 3.7661613,31.9823336 8.41195677,31.9823337 L21.0298922,31.9823337 C21.9868002,31.9794378 22.9362158,31.8148536 23.8373828,31.4956461 C25.6774984,32.1429406 26.3175081,31.9823337 33.6478276,31.9823337 C38.0714625,31.9510318 41.7147969,28.5268129 41.9841632,24.1473574 C42.2535296,19.7679019 39.0568759,15.929825 34.6698804,15.3654301 Z M30.0467472,2.34576226 C33.074189,2.34136257 35.5582144,4.90694222 35.6583819,8.14164106 C35.7585495,11.3763399 33.4386832,14.1119307 30.4175972,14.3215845 C31.1914049,13.7719502 31.8505835,13.0572537 32.3537597,12.2223528 C32.4708258,12.0419611 32.4863388,11.8076059 32.3942021,11.6113878 C32.3020654,11.4151698 32.1170054,11.2884504 31.9117497,11.28103 C31.706494,11.2736095 31.5138488,11.386674 31.4095228,11.5757895 C30.3378045,13.3701026 28.4566823,14.4226259 26.4667263,14.3413772 C28.3502457,13.0098564 29.483927,10.7575707 29.4857034,8.34357257 C29.4857034,8.01232299 29.2345154,7.7437921 28.9246595,7.7437921 C28.6148035,7.7437921 28.3636156,8.01232299 28.3636156,8.34357257 C28.3594694,11.2191027 26.4492518,13.687989 23.8079393,14.2316174 C25.6334074,12.8685801 26.7088089,10.6274117 26.6794854,8.24723085 C26.6501618,5.86704996 25.519921,3.65693667 23.6615069,2.34576226 L30.0467472,2.34576226 Z M11.52491,8.5 C11.52491,4.91014912 14.4350591,2 18.02491,2 C21.6147609,2 24.52491,4.91014912 24.52491,8.5 C24.52491,12.0898509 21.6147609,15 18.02491,15 C14.4366926,14.9960594 11.5288506,12.0882174 11.52491,8.5 Z M2.41195677,23.6391185 C2.41195677,20.32541 5.09824827,17.6391185 8.41195677,17.6391185 C11.7256653,17.6391185 14.4119568,20.32541 14.4119568,23.6391185 C14.4119568,26.952827 11.7256653,29.6391185 8.41195677,29.6391185 C5.09975611,29.635481 2.41559419,26.9513191 2.41195677,23.6391185 Z M13.051852,29.6377619 C15.406106,28.3069537 16.8224592,26.0537795 16.8224592,23.6393751 C16.8224592,21.2249708 15.406106,18.9717966 13.051852,17.6409884 L21.9979682,17.6409884 C19.6602677,18.9625521 18.246223,21.1942619 18.227509,23.5916986 C18.2087951,25.9891353 19.5878746,28.2368091 21.9047357,29.5849761 C21.2023373,29.6605557 21.7063537,29.6377619 13.051852,29.6377619 Z M20.6378635,23.6391185 C20.6378635,20.32541 23.324155,17.6391185 26.6378635,17.6391185 C29.951572,17.6391185 32.6378635,20.32541 32.6378635,23.6391185 C32.6378635,26.952827 29.951572,29.6391185 26.6378635,29.6391185 C23.3256628,29.635481 20.6415009,26.9513191 20.6378635,23.6391185 Z M35.1104084,29.5755015 C37.0306097,28.2184695 38.1752047,25.9995898 38.1768888,23.6309084 C38.1768888,23.2964776 37.9087423,23.0253677 37.5779668,23.0253677 C37.2471914,23.0253677 36.9790449,23.2964776 36.9790449,23.6309084 C36.9746188,26.5340549 34.9354356,29.0266522 32.1157987,29.5755015 C34.0645106,28.1993737 35.2125163,25.9366813 35.181213,23.5336415 C35.1499097,21.1306015 33.9433623,18.8992625 31.95948,17.5755015 L33.9844351,17.5755015 C37.0675076,17.5830416 39.6412179,19.955774 39.9323964,23.0589939 C40.223575,26.1622138 38.1370786,28.9819366 35.1104084,29.5755015 Z" id="Shape"></path>
            <path d="M29.7203565,21.1016925 C29.6017427,21.0435822 29.464422,21.0340515 29.3386338,21.0751993 C29.2128456,21.1163471 29.1089054,21.2047988 29.0497019,21.3210766 L28.1886455,23.011509 L24.8083867,23.011509 L23.9498289,21.323525 C23.8700212,21.1669432 23.7110267,21.0639767 23.5327371,21.053412 C23.3544475,21.0428472 23.1839493,21.1262893 23.0854675,21.2723064 C22.9869857,21.4183234 22.975482,21.604732 23.0552897,21.7613138 L23.9408336,23.5012056 L23.052791,25.2410974 C22.9294189,25.4831519 23.0296555,25.7773782 23.2766757,25.8982702 C23.5236959,26.0191622 23.8239581,25.9209407 23.9473302,25.6788862 L24.8083867,23.9909021 L28.1886455,23.9909021 L29.0497019,25.6788862 C29.173074,25.9209407 29.4733363,26.0191622 29.7203565,25.8982702 C29.9673767,25.7773782 30.0676132,25.4831519 29.9442411,25.2410974 L29.0561986,23.5012056 L29.9467399,21.7613138 C30.0066599,21.6445358 30.0164499,21.5091309 29.9739307,21.3852411 C29.9314115,21.2613514 29.8401121,21.1592597 29.7203565,21.1016925 L29.7203565,21.1016925 Z" id="Shape"></path>
        </g>
    </g>
</svg>