<svg xmlns="http://www.w3.org/2000/svg" viewBox="0 0 121.39 118.37"><defs><style>.cls-1{fill:#eb2b34;}</style></defs><g id="Calque_2" data-name="Calque 2"><g id="Calque_1-2" data-name="Calque 1"><path class="cls-1" d="M24.6,63.42c-.24-1.29-.49-2.57-.72-3.84q-1.17-6.49-2.32-13c-.06-.35-.06-.75-.4-1-.37.13-.34.46-.39.74Q20,50.42,19.26,54.5c-.15.78-.31,1.55-.47,2.37a5.5,5.5,0,0,1-.78,0l-4.76-.37-1-.1c-1.06-.15-1.28-.35-1.44-1.39-.2-1.28-.36-2.57-.54-3.86-.57-3.94-1-7.89-1.73-11.81C7.83,35.25,7,31.15,6.1,27.05S4.27,18.7,3.36,14.53c0-.24-.07-.49-.12-.81,2.36-.91,4.73-1.74,7-2.58.4.13.39.45.45.73Q12.36,18.53,14,25.18l1.29,5.38c.07.28.18.55.27.83.34,0,.28-.28.34-.44a4.11,4.11,0,0,0,.17-.6c.49-2,1-4.06,1.45-6.11.3-1.47.77-1.5,1.87-1.49h5.53a5.23,5.23,0,0,1,.69.08c.42,1.54.57,3.13.86,4.68s.56,3.22.84,4.83.54,3.13.8,4.66c.47.08.48-.22.54-.44.68-2.59,1.36-5.19,2-7.78s1.37-5.27,2.06-7.9c.08-.32.19-.63.3-1a3.5,3.5,0,0,1,.76.06c1.85.55,3.69,1.1,5.53,1.69,1.11.35,1.31.73,1,1.87s-.55,2.11-.84,3.16c-1.56,5.74-3,11.5-4.23,17.33a150.32,150.32,0,0,0-2.48,15.51c-.07.67-.13,1.33-.21,2-.11.92-.43,1.26-1.34,1.36-2.08.24-4.16.46-6.25.68a2,2,0,0,0-.39-.13Z"/><path class="cls-1" d="M0,63.38a78.51,78.51,0,0,1,7.09-4c1.22,2.56,2.33,5.17,3.5,7.76s2.32,5.21,3.49,7.81,2.33,5.19,3.56,7.94a7,7,0,0,0,.41-.76c1.11-3.74,2.2-7.48,3.3-11.22.13-.44.26-.88.41-1.32a1.42,1.42,0,0,1,1.43-1c1.8,0,3.6-.1,5.41-.17a1.33,1.33,0,0,1,1.45.94c.1.28.21.55.31.82q2.16,5.51,4.33,11a3.79,3.79,0,0,0,.76,1.44c.4-.92.55-2.15,1-6.81.21-2.25.49-4.5.74-6.75s.44-4.57.8-6.9a5.09,5.09,0,0,1,.68,0c2.3.4,4.64.61,6.94,1.1a4.58,4.58,0,0,1,0,.56l-3.51,37.56a7.65,7.65,0,0,1-2.24.49c-1.32.21-2.65.42-4,.61a1.35,1.35,0,0,1-1.73-.87,9.83,9.83,0,0,1-.49-1.16L27.19,84a3.88,3.88,0,0,0-.76-1.4c-.15.39-.3.68-.38,1-.67,2.55-1.35,5.1-2,7.67-.56,2.32-1.06,4.66-1.58,7-.05.2-.1.41-.16.61-.22.71-.48.92-1.17.86-1.71-.16-3.42-.34-5.13-.52A6,6,0,0,1,15.3,99,1.63,1.63,0,0,1,14,97.82c-.34-1.25-.72-2.5-1.11-3.74A178.87,178.87,0,0,0,6.39,77.19C4.57,73,2.62,68.78.59,64.63c-.2-.36-.38-.78-.59-1.25Z"/><path class="cls-1" d="M55.66,2.74A58.54,58.54,0,0,1,63,0c.13.28.29.56.4.86a103.44,103.44,0,0,1,3.69,12.92c.63,2.82,1.19,5.66,1.79,8.48.06.27.17.54.25.81.53-.09.75-.48,1-.76a44.31,44.31,0,0,0,6.27-7.84c.91-1.41,1.75-2.86,2.63-4.28.19-.31.4-.62.64-1a22.24,22.24,0,0,1,2.4,1.16c.75.37,1.5.76,2.24,1.15s1.58.75,2.38,1.26c-.66,1.35-1.38,2.56-2.11,3.77s-1.5,2.42-2.31,3.59-1.65,2.33-2.53,3.44-1.82,2.2-2.78,3.24-2,2-3,3a2.16,2.16,0,0,0,.84,1A20,20,0,0,0,79,33.45a72.36,72.36,0,0,0,7.9,3.24l1.25.47a46,46,0,0,1-.54,7.68,2.2,2.2,0,0,1-1.22,0,23.94,23.94,0,0,1-7.06-2.19c-2.18-1.06-4.33-2.21-6.49-3.32-.37-.19-.74-.36-1.2-.58a2.35,2.35,0,0,0-.1.53q.51,4.82,1,9.62.3,2.81.59,5.63c0,.41,0,.83.07,1.28a4.37,4.37,0,0,1-.62.2c-2,.25-3.91.5-5.86.72a11,11,0,0,1-1.29,0c-.08-.38-.18-.74-.22-1.1-.27-2.54-.52-5.09-.81-7.63-.38-3.33-.76-6.66-1.2-10-.4-3.07-.84-6.14-1.34-9.2A166.89,166.89,0,0,0,56.15,4.35c-.16-.52-.32-1.07-.49-1.61Z"/><path class="cls-1" d="M77,47.76c2.54-.39,5-.59,7.6-.93a3.75,3.75,0,0,1,.26.83c.2,2.63.49,5.27.53,7.9.07,4.15,0,8.3-.07,12.45,0,.71-.07,1.42-.1,2.14a4.69,4.69,0,0,0,0,.62,1.91,1.91,0,0,0,1.19-.48A43.3,43.3,0,0,0,94,64.55c1.34-1.27,2.62-2.6,3.93-3.9l.94-.92a18.39,18.39,0,0,1,2.07,1.67c.65.53,1.28,1.09,1.92,1.63l2,1.77a70.86,70.86,0,0,1-5,5.21,58.52,58.52,0,0,1-5.38,4.55,53.11,53.11,0,0,1-6.06,3.9,7.84,7.84,0,0,0,.39.74,14,14,0,0,0,2.46,2.85c1.37,1.17,2.76,2.32,4.21,3.39s2.77,1.89,4.16,2.83l.91.63a2,2,0,0,1,0,.43q-1,3.24-2,6.48a3.84,3.84,0,0,1-.25.5c-.26-.07-.5-.12-.72-.2a24.14,24.14,0,0,1-7.23-4.24c-1.74-1.44-3.44-3-5.16-4.42-.31-.27-.64-.52-.91-.74-.36.1-.32.34-.34.53-.24,1.79-.48,3.57-.71,5.36-.44,3.45-.87,6.9-1.32,10.35a3.54,3.54,0,0,1-.17.58,51.17,51.17,0,0,1-7.65-.79c-.27-.33-.12-.71-.08-1.07.17-1.46.38-2.91.57-4.37.39-3.16.8-6.32,1.16-9.49s.69-6.08.94-9.13c.28-3.38.46-6.78.66-10.17.27-4.65.22-9.31.08-14,0-1.84-.24-3.68-.35-5.52,0-.35,0-.73,0-1.27Z"/><path class="cls-1" d="M60.18,96.33c-2-.07-4.1-.17-6.16-.21a6.47,6.47,0,0,1-5.11-2.55c-1.44-1.76-1.57-2.08-1.38-4.36.28-3.38.6-6.76.9-10.14.2-2.3.39-4.59.59-6.89.09-1,.18-2,.31-3a8.65,8.65,0,0,1,1.07-3.07,4.58,4.58,0,0,1,1.72-1.8,13.13,13.13,0,0,1,2-1A37.75,37.75,0,0,1,62.87,61a19.09,19.09,0,0,1,5.39.07,4.39,4.39,0,0,1,1.94.84,7,7,0,0,1,2.86,6.72c-.07.88-.09,1.76-.12,2.63A2.07,2.07,0,0,0,73,72,4.55,4.55,0,0,1,73,74.23c-.3,2.79-.6,5.58-.92,8.37-.4,3.5-.81,7-1.22,10.49a5.16,5.16,0,0,1-.29,1.22A3.36,3.36,0,0,1,68,96.56a7.89,7.89,0,0,1-1.75.11c-2-.08-4-.21-6-.31C60.17,96.35,60.18,96.34,60.18,96.33Zm-4.47-8.11a3.36,3.36,0,0,0,.5.09l6,.32a4.17,4.17,0,0,0,.5,0,.84.84,0,0,0,.86-.76c.11-.62.17-1.25.23-1.87.23-2.34.44-4.67.68-7a74.26,74.26,0,0,0,.27-9.55,3.52,3.52,0,0,0-.21-.72l-6.06,1.45-.12,0a2,2,0,0,0-1.33,1.54c-.05.24-.06.5-.09.75-.38,4.13-.77,8.26-1.14,12.39a24.31,24.31,0,0,0-.12,3.33Z"/><path class="cls-1" d="M115,88a63,63,0,0,1-8-2.44,1.76,1.76,0,0,1,0-.46q3-13.94,6-27.92a3.24,3.24,0,0,1,.68,0l7.15,1.4c.2,0,.39.1.53.14a1.32,1.32,0,0,1,.1.18.25.25,0,0,1,0,.12c-.93,4.85-1.83,9.71-2.81,14.56-.91,4.52-2,9-3.28,13.43C115.2,87.29,115.09,87.61,115,88Z"/><path class="cls-1" d="M104.91,89.89c2.65.73,5.3,1.47,8,2.29-.78,2.72-1.47,5.34-2.29,7.92a2.07,2.07,0,0,1-.57,0L102.62,98a2.67,2.67,0,0,1,0-.64c.68-2.42,1.38-4.83,2.08-7.24,0,0,.05-.07.2-.22Z"/><path class="cls-1" d="M91.22,112.27c-1.58.39-1.6.63-1.6,2,0,.66,0,1.33,0,2a1.68,1.68,0,0,1-1.36.09,22.58,22.58,0,0,1,0-5.14,1.3,1.3,0,0,1,1.2-.07c.15,0,.35.15.44.09.84-.55,1.69-.15,2.54-.1a29.35,29.35,0,0,0,1.28,2.9c.38-1,.7-1.93,1-2.83a1.7,1.7,0,0,1,1.46,0,63.79,63.79,0,0,1-2.56,7,1.6,1.6,0,0,1-1.49,0l.71-1.93c-.5-1.28-1-2.6-1.57-4Z"/><path class="cls-1" d="M54.05,111.35l.19-1.94a1.81,1.81,0,0,1,1.41,0,17.14,17.14,0,0,1,.06,2.37c0,.75,0,1.5,0,2.26s0,1.58,0,2.38c-.61.15-1.12.28-1.62-.22a2.79,2.79,0,0,1-2.36.36,2.65,2.65,0,0,1-1.31-.91,3.14,3.14,0,0,1,0-3.64c.8-1.06,1.94-1.28,3.68-.62Zm-2.66,2.46a1.4,1.4,0,0,0,1.45,1.4,1.47,1.47,0,0,0,1.42-1.46,1.4,1.4,0,0,0-1.48-1.37A1.33,1.33,0,0,0,51.39,113.81Z"/><path class="cls-1" d="M63.34,111.33c0-.73.07-1.31.11-1.91a1.93,1.93,0,0,1,1.38-.1,6.06,6.06,0,0,1,.13.76,42.53,42.53,0,0,1-.14,6.29,1,1,0,0,1-1,.07c-.45-.33-.76-.11-1.14,0a2.58,2.58,0,0,1-3.36-1.58,3.1,3.1,0,0,1-.09-2A2.59,2.59,0,0,1,62.26,111a9.81,9.81,0,0,1,1.08.34Zm-1.32,1a1.4,1.4,0,0,0-1.42,1.44,1.45,1.45,0,0,0,2.9-.06A1.4,1.4,0,0,0,62,112.37Z"/><path class="cls-1" d="M28.84,116.39a1.54,1.54,0,0,1-1.24,0c-.37-.2-.6-.07-.92,0a2.59,2.59,0,0,1-3.62-2.26,3.7,3.7,0,0,1,0-.88,2.61,2.61,0,0,1,3.57-2.22c.19.07.37.18.55.26a1.74,1.74,0,0,1,1.61-.18,3.47,3.47,0,0,1,.17,1.69c0,.58,0,1.17,0,1.76A4.65,4.65,0,0,1,28.84,116.39Zm-2.83-4a1.4,1.4,0,0,0-1.44,1.41A1.42,1.42,0,0,0,26,115.25a1.4,1.4,0,0,0,1.43-1.43A1.36,1.36,0,0,0,26,112.37Z"/><path class="cls-1" d="M17.39,109.3h1.34c.38.6,0,1.34.33,2,.34-.11.65-.21,1-.29a2.07,2.07,0,0,1,.5,0,1.66,1.66,0,0,1,1.7,1.37,2.38,2.38,0,0,1,.06.37,26.44,26.44,0,0,1,0,3.67,1.93,1.93,0,0,1-1.36.05,7.45,7.45,0,0,1-.1-1.88c0-.42,0-.84,0-1.25a.89.89,0,0,0-1-.89.84.84,0,0,0-.85.9c0,.58,0,1.17,0,1.76a2.76,2.76,0,0,1-.18,1.4H17.49a7.54,7.54,0,0,1-.15-2.36c0-.79,0-1.59,0-2.38a17.65,17.65,0,0,1,.05-2.4Z"/><path class="cls-1" d="M70.88,115.07a2.65,2.65,0,0,1-3.6,1.3A2.86,2.86,0,0,1,69,111a2.58,2.58,0,0,1,1.67,1,2.87,2.87,0,0,1,.58,2.17c-1.29.35-2.6,0-3.81.21-.24.34-.07.53.15.67a1.43,1.43,0,0,0,1.65,0,1.89,1.89,0,0,1,1.33-.22,1.12,1.12,0,0,1,.29.21Zm-1.26-2c-.08-.21-.1-.39-.2-.48a1.31,1.31,0,0,0-1.89,0c-.11.09-.1.33-.17.54a7.44,7.44,0,0,0,2.26,0Z"/><path class="cls-1" d="M87.33,114.21c-1.29.31-2.59,0-4,.25.12.24.16.46.29.56a1.38,1.38,0,0,0,1.64.11A1.81,1.81,0,0,1,87,115a2.52,2.52,0,0,1-3.28,1.51,2.85,2.85,0,0,1,1.5-5.49,2.59,2.59,0,0,1,1.72,1.17,2.43,2.43,0,0,1,.43,2Zm-1.63-1.08a.91.91,0,0,0-.76-.88,1.27,1.27,0,0,0-1.17.22c-.21.16-.37.34-.18.66Z"/><path class="cls-1" d="M46.46,111a2.81,2.81,0,0,1,3,2.78,2.91,2.91,0,0,1-5.81.09A2.8,2.8,0,0,1,46.46,111Zm1.38,2.81a1.34,1.34,0,1,0-2.68,0,1.37,1.37,0,0,0,1.39,1.45,1.35,1.35,0,0,0,1.29-1.41Z"/><path class="cls-1" d="M40.16,111a2.84,2.84,0,1,1,.1,5.67,2.85,2.85,0,0,1-2.95-2.79A2.81,2.81,0,0,1,40.16,111Zm1.39,2.86a1.34,1.34,0,1,0-2.68-.12,1.38,1.38,0,0,0,1.34,1.49A1.36,1.36,0,0,0,41.55,113.84Z"/><path class="cls-1" d="M16.9,109.29v1.4l-1.31.25a8.47,8.47,0,0,0-.09.85c0,1.21,0,2.42,0,3.63,0,.32-.05.65-.08,1a3.1,3.1,0,0,1-1.54,0,4.69,4.69,0,0,1-.14-1.74c0-.62,0-1.25,0-1.88V111l-1.4-.33V109.4a1.68,1.68,0,0,1,.46-.13c1.34,0,2.67,0,4.12,0Z"/><path class="cls-1" d="M78.39,116.45c-.66-1.76-1.29-3.43-1.83-5.15a1.65,1.65,0,0,1,1.4-.12c.51.91.61,2,1.1,3,.16-.19.32-.31.37-.47.28-.83.54-1.66.79-2.47a1.75,1.75,0,0,1,1.38-.06,22.92,22.92,0,0,1-1.77,5.22,3.17,3.17,0,0,1-.46.07,8.57,8.57,0,0,1-1,0Z"/><path class="cls-1" d="M36.57,116.44l-1.32.06a6.93,6.93,0,0,1-.12-.91c0-.79,0-1.59,0-2.39,0-.42,0-.8-.47-1.06-.32-.17-.29-.71,0-1a1.25,1.25,0,0,0,.48-.67c.26-1,.56-1.21,1.57-1.3a3,3,0,0,1,.45,0c.55.76-.22,1-.57,1.52.21.15.37.25.51.37a.63.63,0,0,1,0,1,.79.79,0,0,0-.43.81v2.39c0,.33,0,.66-.07,1.07Z"/><path class="cls-1" d="M72.09,116.41a50.67,50.67,0,0,1,0-7,1.79,1.79,0,0,1,1.27-.1c.07.17.16.28.16.39q0,3,0,5.91a4.82,4.82,0,0,1-.09.74A1.81,1.81,0,0,1,72.09,116.41Z"/><path class="cls-1" d="M30,111.21a2.26,2.26,0,0,1,.45-.1c.24,0,.49,0,.72.06a18.9,18.9,0,0,1,0,5.27H30.05a19.86,19.86,0,0,1,0-5.23Z"/><path class="cls-1" d="M75.92,116.5l-1.34-.06a24.31,24.31,0,0,1,0-5.19,1.43,1.43,0,0,1,1.22-.06,7,7,0,0,1,.16,2.54c0,.86,0,1.73,0,2.77Z"/><path class="cls-1" d="M74.42,109.31h1.44v1H74.53c0-.31-.06-.61-.11-1Z"/><path class="cls-1" d="M31.34,109.25v1a2.27,2.27,0,0,1-1.39,0c0-.24-.05-.44-.05-.64a.41.41,0,0,1,.47-.45Z"/><path class="cls-1" d="M51,58.11c-1.82.09-3.63.16-5.45.27a5.72,5.72,0,0,1-4.69-1.87c-1.4-1.45-1.54-1.72-1.54-3.74,0-3,0-6,0-9,0-2,0-4.08,0-6.12,0-.89,0-1.78,0-2.67a7.53,7.53,0,0,1,.72-2.79,4.22,4.22,0,0,1,1.38-1.72,12.89,12.89,0,0,1,1.7-1,33.13,33.13,0,0,1,7.53-2.68,16.52,16.52,0,0,1,4.76-.33,3.92,3.92,0,0,1,1.77.59,6.2,6.2,0,0,1,3,5.71c0,.78.05,1.55.09,2.33a1.79,1.79,0,0,0,.09.66,4,4,0,0,1,.22,2c-.06,2.48-.12,5-.19,7.45-.09,3.11-.19,6.23-.3,9.34A5,5,0,0,1,60,55.55a3,3,0,0,1-2.17,2.18,6.57,6.57,0,0,1-1.53.22c-1.78.07-3.56.11-5.34.17Zm-4.53-6.82a3.39,3.39,0,0,0,.45,0l5.34-.16a2.12,2.12,0,0,0,.44,0,.74.74,0,0,0,.7-.74c0-.55.06-1.11.07-1.67,0-2.08,0-4.15.08-6.23a64.35,64.35,0,0,0-.47-8.44,2.45,2.45,0,0,0-.24-.62L47.6,35.16l-.1.05a1.75,1.75,0,0,0-1.06,1.46,5,5,0,0,0,0,.67c0,3.67-.07,7.34-.09,11a17.22,17.22,0,0,0,.13,2.93Z"/></g></g></svg>