<svg xmlns="http://www.w3.org/2000/svg" viewBox="0 0 102.29 115.26"><defs><style>.cls-1{fill:#e64f4f;}</style></defs><g id="Calque_2" data-name="Calque 2"><g id="Calque_1-2" data-name="Calque 1"><path class="cls-1" d="M74.59,85.58c-.1,1.42-.14,2.84-.32,4.25a12.06,12.06,0,0,1-6.58,9.56,18.33,18.33,0,0,1-7.34,2.15,17.89,17.89,0,0,1-11.74-3.31,8.86,8.86,0,0,1-3.68-5.08,9.13,9.13,0,0,1,0-4.81,23.19,23.19,0,0,1,1-2.91c.49-1.21,1.08-2.37,1.6-3.57a18.8,18.8,0,0,0,.68-1.76,2.81,2.81,0,0,0-.77-2.94A15.26,15.26,0,0,0,46,76a11.21,11.21,0,0,1-1.2-1,2.75,2.75,0,0,1-.72-2.73,2.22,2.22,0,0,1,1.64-1.7,5.28,5.28,0,0,1,3.8.44A8.1,8.1,0,0,1,54,80.6,16.6,16.6,0,0,1,53,83c-.36.83-.83,1.62-1.19,2.45a7.83,7.83,0,0,0-.41,5.33,5.64,5.64,0,0,0,2.86,3.62,8.9,8.9,0,0,0,8.31.43,10.16,10.16,0,0,0,6-7.43,2.14,2.14,0,0,0,.06-.35,20.82,20.82,0,0,0-.55-6.94A13.56,13.56,0,0,0,64.28,74a19.92,19.92,0,0,0-3.76-2.68c-2.1-1.18-4.22-2.33-6.32-3.52-1-.56-2-1.15-2.94-1.78a15.08,15.08,0,0,1-6.73-10.45,23,23,0,0,1,0-7.9,13.1,13.1,0,0,1,6.21-9,13.59,13.59,0,0,1,9.55-1.92,16.12,16.12,0,0,1,5.29,1.64,12.07,12.07,0,0,1,3.13,2.32,7.87,7.87,0,0,1,1,9.92,13.5,13.5,0,0,0-1.14,2.2,3.86,3.86,0,0,0,.64,4c.44.56.92,1.08,1.39,1.61a2.28,2.28,0,0,1,.63,1.61,2,2,0,0,1-1.61,2.06A4.46,4.46,0,0,1,66.86,62a7,7,0,0,1-4.63-7.33,10.58,10.58,0,0,1,1-3.39,16,16,0,0,0,.81-2,4.67,4.67,0,0,0-1.79-5.55,7.41,7.41,0,0,0-10,1.1A6,6,0,0,0,51,47.07a14.45,14.45,0,0,0-.15,7.5,11.67,11.67,0,0,0,3.66,5.84,19.49,19.49,0,0,0,3.41,2.35c1.55.87,3.12,1.71,4.67,2.57,1,.58,2.07,1.16,3.08,1.78A17.51,17.51,0,0,1,74,79.41a31.45,31.45,0,0,1,.64,6.17Z"/><path class="cls-1" d="M38,51.19a13.94,13.94,0,0,1-.49,4,11.08,11.08,0,0,1-8.4,8.46,24.28,24.28,0,0,1-5.17.62,10.5,10.5,0,0,0-3.75.17,36.51,36.51,0,0,0-3.63.55,6.88,6.88,0,0,0-5.41,4.93,9.51,9.51,0,0,0,.64,7.58c.46.87.93,1.74,1.4,2.61a13.09,13.09,0,0,1,1.18,9.54,27.18,27.18,0,0,1-2,6,26,26,0,0,1-1.76,3.08A8.75,8.75,0,0,1,9,100.42a2.07,2.07,0,0,1-2.54.12,2.11,2.11,0,0,1-1.29-2.2c.16-1,.38-2.1.62-3.14a33.23,33.23,0,0,1,1.72-5.54,8.58,8.58,0,0,0-.19-7.56c-.59-1.2-1.16-2.42-1.78-3.62A15,15,0,0,1,4,74.28a9.61,9.61,0,0,1,.67-5.68c.4-.94,1-1.8,1.47-2.7s.94-1.56,1.3-2.39a7.78,7.78,0,0,0,0-6.34,13.86,13.86,0,0,0-1.48-2.56,14.43,14.43,0,0,1-2.27-4.92,11.53,11.53,0,0,1-.38-3.41,4.84,4.84,0,0,0-1-3.2L.9,41.28a4.63,4.63,0,0,1-.85-1.94,1.33,1.33,0,0,1,1.21-1.78,11.74,11.74,0,0,1,4-.1,16.09,16.09,0,0,0,3.67.08c2.76-.24,5.5-.56,8.26-.75a29.22,29.22,0,0,1,10.56,1.06,15.14,15.14,0,0,1,6.56,3.88A12.38,12.38,0,0,1,38,50.48c0,.22,0,.41,0,.71Zm-23.2,8a14.76,14.76,0,0,1,1.88-.54c1.68-.23,3.37-.42,5.06-.58,1.3-.12,2.6-.14,3.9-.24a11.13,11.13,0,0,0,1.52-.22A5.06,5.06,0,0,0,31.06,54a10,10,0,0,0,.37-4.68,7,7,0,0,0-4.7-5.88,14.65,14.65,0,0,0-3.2-.84,33.36,33.36,0,0,0-5.91-.3,29,29,0,0,0-5.86.79,1.5,1.5,0,0,0-1.25.94,6.8,6.8,0,0,0,.4,6.36c.55.86,1.12,1.72,1.69,2.57a11.38,11.38,0,0,1,2.07,5.72A3.54,3.54,0,0,0,14.77,59.16Z"/><path class="cls-1" d="M34.37,69.94c.28-.47.51-.88.76-1.27.48-.77.94-1.56,1.47-2.29a3.43,3.43,0,0,1,3.31-1.45A2.12,2.12,0,0,1,42,67.21a10.29,10.29,0,0,1-.66,3.6c-.77,2-1.56,4.06-2.32,6.09-.4,1.07-.79,2.15-1.13,3.24a13.44,13.44,0,0,0,.72,10.15c.59,1.25,1.3,2.44,2,3.65.51.94,1.07,1.85,1.55,2.8a5,5,0,0,1,.47,1.46,2.18,2.18,0,0,1-.83,2.11,2.87,2.87,0,0,1-3.71,0,6.5,6.5,0,0,1-1.11-1.23c-.68-.92-1.31-1.88-2-2.82l-.31-.43-.77.78c-.59.64-1.16,1.3-1.78,1.91a9,9,0,0,1-13.06-1,5.59,5.59,0,0,1-1.12-4.8c.51-2.19,1-4.4,1.59-6.57a10.29,10.29,0,0,0-.35-6.51c-.31-.81-.61-1.63-.84-2.47a5.43,5.43,0,0,1,.91-5A10.55,10.55,0,0,1,25.77,68a10.25,10.25,0,0,1,6.58.88c.63.32,1.25.67,2,1.08Zm-2,7h-.06c0-.32,0-.63,0-1a2.27,2.27,0,0,0-1.16-2,4.7,4.7,0,0,0-4.95,0,3.22,3.22,0,0,0-1.55,3.54c.2,1,.42,2.09.71,3.11a9.29,9.29,0,0,1,0,5.25c-.44,1.51-.8,3-1.17,4.59A4.32,4.32,0,0,0,24,91.72a3.27,3.27,0,0,0,4.06,3c2.13-.61,4.29-2.9,4-5.51-.11-.94-.24-1.88-.34-2.82a20.15,20.15,0,0,1,.06-5.54c.21-1.33.39-2.66.59-4Z"/><path class="cls-1" d="M82.36,70.67c1-.3,1.79-.59,2.63-.79a11.05,11.05,0,0,1,4.82.16c1.32.27,2.63.56,3.93.89a5.86,5.86,0,0,0,3.61-.12,2.1,2.1,0,0,1,3,2.15,5.08,5.08,0,0,1-.18,1.4,2.88,2.88,0,0,1-2.84,2.25,10.84,10.84,0,0,1-2.12-.18c-1.67-.28-3.33-.65-5-.92a24.52,24.52,0,0,0-2.72-.2,3.69,3.69,0,0,0-2.65,1.13,1.07,1.07,0,0,0-.33,1.07c.18,1.09.37,2.18.47,3.28s.13,2.37.16,3.55c0,1.34,0,2.69,0,4a10,10,0,0,0,.81,4,4.36,4.36,0,0,0,3.69,2.77,3,3,0,0,0,3.57-2.66,24.35,24.35,0,0,0,.23-2.83c0-1,0-1.9.05-2.84a15.11,15.11,0,0,1,.16-1.77,4.64,4.64,0,0,1,4.13-4,5.33,5.33,0,0,1,2.79.33,2.5,2.5,0,0,1,1.61,2.16,1.34,1.34,0,0,1-.5,1.26,2.7,2.7,0,0,1-.39.27,3.47,3.47,0,0,0-1.67,2.72c-.24,1.76-.45,3.53-.72,5.28a11.14,11.14,0,0,1-.58,2.29,7.29,7.29,0,0,1-5.26,4.71,13.46,13.46,0,0,1-7.26,0,8.28,8.28,0,0,1-5.64-5.32,19,19,0,0,1-.94-4.27,59.7,59.7,0,0,1-.32-6.27c0-1.18-.06-2.37-.13-3.55a12,12,0,0,0-2.62-6.86c-.56-.72-1.15-1.41-1.71-2.13a5,5,0,0,1-.72-4.93,2.66,2.66,0,0,1,4-1.65,6.78,6.78,0,0,1,2.13,1.67,14.81,14.81,0,0,1,1.85,2.74c.21.39.43.75.66,1.14Z"/><path class="cls-1" d="M92.25,59.56c-.55.6-1,1.11-1.45,1.59a9.31,9.31,0,0,1-5.4,3,8.12,8.12,0,0,1-3.4-.23,9.69,9.69,0,0,1-4.54-2.67,4.75,4.75,0,0,1-1.35-4.45,8.62,8.62,0,0,1,.26-1,13.28,13.28,0,0,0,.16-7.47c-.15-.61-.31-1.22-.43-1.84a6.46,6.46,0,0,1,1.81-5.87,9.9,9.9,0,0,1,12.78-1.41c.49.33,1,.69,1.5,1.08.25-.41.48-.77.68-1.14a3.19,3.19,0,0,1,2.29-1.71A10,10,0,0,1,97,37.14a1.62,1.62,0,0,1,1.73,1.32,4.1,4.1,0,0,1,.15,1,13.28,13.28,0,0,1-1,5.32c-.27.7-.57,1.39-.77,2.11a11,11,0,0,0-.41,5A7.07,7.07,0,0,0,99,56.14c.65.58,1.32,1.13,1.93,1.75a4.57,4.57,0,0,1,1.33,3.32,2.37,2.37,0,0,1-1.41,2.28,4.62,4.62,0,0,1-4,.12,7.33,7.33,0,0,1-2.25-1.52c-.51-.5-1-1-1.47-1.54-.27-.31-.54-.6-.9-1Zm-1.37-9.71a13.07,13.07,0,0,0-1-4.71,4.55,4.55,0,0,0-3.84-3,6.25,6.25,0,0,0-3.35.55,2.32,2.32,0,0,0-1.57,2.73c.07.59.18,1.17.3,1.75a16.52,16.52,0,0,1,.08,7.17A7.56,7.56,0,0,0,81.36,56,2,2,0,0,0,83,58.19a5.28,5.28,0,0,0,5.7-1.6,7.63,7.63,0,0,0,1.66-3A13.41,13.41,0,0,0,90.88,49.85Z"/><path class="cls-1" d="M34.94,20.87a36.22,36.22,0,0,0,.15,5.67,9,9,0,0,0,.9,3.05,4.48,4.48,0,0,0,4.43,2.58,3,3,0,0,0,2.95-2.29,10.15,10.15,0,0,0,.28-2c.09-1.81.14-3.63.21-5.44A7.87,7.87,0,0,1,44,21.27a5.19,5.19,0,0,1,6.33-3.93,5.71,5.71,0,0,1,1.13.36A2.42,2.42,0,0,1,53,20.15a1.26,1.26,0,0,1-.62,1.2A4.19,4.19,0,0,0,50.21,25c-.23,2-.49,4-.87,6a8.15,8.15,0,0,1-7,6.74,15.62,15.62,0,0,1-5.54,0,9,9,0,0,1-7.13-6.07,19.21,19.21,0,0,1-.91-4.16,53.39,53.39,0,0,1-.35-5.79c0-1.58-.07-3.16-.15-4.74A12.56,12.56,0,0,0,25.54,9.7C25,9,24.35,8.22,23.75,7.49a5.35,5.35,0,0,1-1-5.13,4.43,4.43,0,0,1,.36-.87A2.59,2.59,0,0,1,26.23.1a5.43,5.43,0,0,1,1.4.6,7.45,7.45,0,0,1,2.23,2.1,16.92,16.92,0,0,1,2.63,5c.45,1.51.94,3,1.45,4.51a18.9,18.9,0,0,1,.89,5c.08,1.25.08,2.51.11,3.55Z"/><path class="cls-1" d="M69,31c-.24.24-.44.42-.62.62-.43.46-.84.94-1.28,1.4a7.8,7.8,0,0,1-10.73.32,5.55,5.55,0,0,1-1.91-3.57,6,6,0,0,1,.22-2.11c.37-1.62.73-3.24,1.2-4.83a9.11,9.11,0,0,0-.32-6,18.06,18.06,0,0,1-.74-2.37,4.47,4.47,0,0,1,.85-3.8,9,9,0,0,1,11.72-2.7l1.15.6s.08,0,.19,0c.16-.22.34-.47.51-.73.44-.7.85-1.42,1.32-2.11a3.05,3.05,0,0,1,2.24-1.4,2.53,2.53,0,0,1,.47,0c1.56.16,2.09.9,2,2.22a9.41,9.41,0,0,1-.59,3c-.74,2-1.51,3.9-2.25,5.86A21.62,21.62,0,0,0,71.37,19,11,11,0,0,0,72,25.27c.51,1.24,1.17,2.41,1.8,3.6.46.87,1,1.7,1.46,2.58a8.39,8.39,0,0,1,.51,1.32,2.07,2.07,0,0,1-1.58,2.52,2.49,2.49,0,0,1-2.6-.73c-.47-.53-.89-1.11-1.31-1.68S69.42,31.64,69,31Zm-2-16.42h0c0-.12,0-.24,0-.36a2.3,2.3,0,0,0-1.71-2.41,4.49,4.49,0,0,0-2-.25,3.25,3.25,0,0,0-2.74,1.8,3.07,3.07,0,0,0-.15,2.09c.18.85.37,1.7.61,2.53a7.65,7.65,0,0,1,0,4.32c-.37,1.25-.7,2.51-1,3.78a4.54,4.54,0,0,0-.09,1.64A2.76,2.76,0,0,0,63.19,30a4.73,4.73,0,0,0,3.5-4.41A13,13,0,0,0,66.53,24a17.64,17.64,0,0,1,.07-6.83c.18-.82.22-1.7.33-2.56Z"/><path class="cls-1" d="M39.3,115a1.85,1.85,0,0,1-1.46,0,20,20,0,0,1-.05-2.45c0-.83,0-1.66,0-2.48a18.38,18.38,0,0,1,.06-2.46,2.51,2.51,0,0,1,1.51-.07c.45,1.06.92,2.13,1.44,3.35a1.93,1.93,0,0,0,.16-1.11c0-.35,0-.71,0-1.06v-1a1.47,1.47,0,0,1,1.27-.15l.11.12a.24.24,0,0,1,0,.1c0,2.17,0,4.33,0,6.5,0,.23,0,.46,0,.7-.42.32-.85.16-1.32.15l-1.51-3.59c-.34.06-.26.3-.26.46Z"/><path class="cls-1" d="M78.83,107.6a3.78,3.78,0,0,1,.59-.12c.27,0,.54,0,.87.06a4.71,4.71,0,0,1,.1.7q0,2.31,0,4.62c0,.12,0,.24,0,.36a2,2,0,0,1-2.38,2,1.8,1.8,0,0,1-1.85-1.79c-.09-1.93,0-3.86,0-5.74.48-.37.9-.19,1.39-.21a5.65,5.65,0,0,1,.12.84c0,1.42,0,2.85,0,4.27a2.62,2.62,0,0,0,.16.92c0,.13.29.23.47.27a.38.38,0,0,0,.45-.3,4.23,4.23,0,0,0,.1-.94c0-1.23,0-2.45,0-3.68,0-.39,0-.78,0-1.28Z"/><path class="cls-1" d="M33.74,107.54a5.5,5.5,0,0,1,1.94,0c.34,1.23.49,2.48.71,3.72s.48,2.46.63,3.75a5,5,0,0,1-.52.12c-.27,0-.54,0-.84,0-.13-.44-.26-.85-.39-1.3-.2,0-.39-.06-.58-.06a5.34,5.34,0,0,0-.62.07c-.09.4-.18.77-.27,1.16a1.89,1.89,0,0,1-1.34.12,47.7,47.7,0,0,1,1.28-7.57Zm1,2.38a5.71,5.71,0,0,0-.39,2.39c.22,0,.4,0,.51,0a.48.48,0,0,0,.18-.38c-.07-.58-.17-1.16-.3-2Z"/><path class="cls-1" d="M21.65,107.59a3,3,0,0,1,.53-.11c.47,0,.94,0,1.43,0a2.87,2.87,0,0,1,.24.58c.39,2.17.76,4.35,1.14,6.52a3.83,3.83,0,0,1,0,.48,2.22,2.22,0,0,1-1.35,0c-.09-.37-.19-.74-.29-1.14-.38-.29-.79-.14-1.21-.12l-.39,1.29a2.13,2.13,0,0,1-1.32,0,2,2,0,0,1,0-.48c.4-2.33.82-4.65,1.24-7Zm1,2.37c-.13.76-.22,1.3-.3,1.84,0,.2,0,.44.18.51s.34,0,.53-.06a6,6,0,0,0-.41-2.29Z"/><path class="cls-1" d="M54.3,115.1H53c-.13-.44-.24-.85-.37-1.29a4.29,4.29,0,0,0-.59-.07,4.74,4.74,0,0,0-.6.08l-.32,1.2a1.6,1.6,0,0,1-1.32,0,47.64,47.64,0,0,1,1.33-7.5c.29,0,.6-.05.91-.05s.62,0,.91.05a47.22,47.22,0,0,1,1.32,7.56Zm-2.26-5a5.66,5.66,0,0,0-.26,2.22c.19,0,.37,0,.47,0a.51.51,0,0,0,.16-.4,6,6,0,0,0-.37-1.8Z"/><path class="cls-1" d="M68.59,115.1H67.26c-.12-.42-.23-.82-.34-1.22a1.46,1.46,0,0,0-1.21,0c-.11.39-.23.79-.36,1.23a2,2,0,0,1-1.3,0,4.18,4.18,0,0,1,0-.71c.4-2.25.75-4.51,1.22-6.74a6.58,6.58,0,0,1,2-.1,20.76,20.76,0,0,1,.76,3.73,25.59,25.59,0,0,1,.58,3.89Zm-2.21-5a5.06,5.06,0,0,0-.44,1.81c0,.43.15.5.76.24-.1-.67-.21-1.36-.32-2Z"/><path class="cls-1" d="M75.23,110.21H73.81c-.07-.35-.11-.66-.19-1a.51.51,0,0,0-.5-.42.57.57,0,0,0-.55.51,2.09,2.09,0,0,0,0,.35c0,1.06,0,2.13,0,3.19a1.1,1.1,0,0,0,.11.57.52.52,0,0,0,.92.06,1.24,1.24,0,0,0,.18-.55c.05-.23.06-.46.09-.72.18,0,.33-.08.48-.09s.54,0,.76,0a1.29,1.29,0,0,1,.14,1.08A2.1,2.1,0,0,1,72.12,115a1.61,1.61,0,0,1-.89-.9,2.32,2.32,0,0,1-.13-.45,16.56,16.56,0,0,1,0-4.82,2.1,2.1,0,0,1,4.06.13A10.54,10.54,0,0,1,75.23,110.21Z"/><path class="cls-1" d="M59.21,109.47l-1.26.1a5.34,5.34,0,0,0-.41-.53.57.57,0,0,0-.74-.12.58.58,0,0,0-.17.74,3.14,3.14,0,0,0,.6.71c.33.28.72.49,1.06.76a2.5,2.5,0,0,1,1,2.28,1.86,1.86,0,0,1-1.61,1.79,2.45,2.45,0,0,1-1.83-.3,2.15,2.15,0,0,1-1-1.71c.33-.39.78-.25,1.23-.3.19.26.35.52.55.75a.67.67,0,0,0,.77.09.6.6,0,0,0,.21-.73,2.37,2.37,0,0,0-.56-.73c-.36-.31-.78-.54-1.14-.84a2.4,2.4,0,0,1-.93-2.19,1.93,1.93,0,0,1,1.61-1.8A2,2,0,0,1,59,108.55c.09.23.11.51.21.92Z"/><path class="cls-1" d="M45.38,114.92a50.68,50.68,0,0,1,.11-7.4,8.81,8.81,0,0,1,2.66.07,1.62,1.62,0,0,1,1.34,1.34,5.47,5.47,0,0,1,0,1.76A1.67,1.67,0,0,1,48,112.14l-1,.13c-.26.89,0,1.81-.17,2.66-.82.28-.82.28-1.46,0Zm1.56-6.13a5.2,5.2,0,0,0,.13,2.2c.3-.15.62-.2.75-.38a1.57,1.57,0,0,0,.23-.88,1.16,1.16,0,0,0-.34-.71C47.56,108.88,47.29,108.88,46.94,108.79Z"/><path class="cls-1" d="M90.63,109.47l-1.24.1c-.15-.19-.28-.37-.44-.55a.51.51,0,0,0-.64-.14.55.55,0,0,0-.28.7,2,2,0,0,0,.47.66c.33.28.71.5,1.06.76a2.67,2.67,0,0,1,1.13,1.74,2,2,0,0,1-1.16,2.33,2.35,2.35,0,0,1-2.78-.69,1.65,1.65,0,0,1-.38-1.26,1.91,1.91,0,0,1,1.21-.21,7,7,0,0,0,.47.69.67.67,0,0,0,.86.11.6.6,0,0,0,.12-.85,5.92,5.92,0,0,0-.83-.83c-.3-.26-.65-.45-1-.71a2.37,2.37,0,0,1-.84-1.88,2.11,2.11,0,0,1,4-.76A3.8,3.8,0,0,1,90.63,109.47Z"/><path class="cls-1" d="M83,115.11H81.69a12.21,12.21,0,0,1-.1-2.48c0-.83,0-1.66,0-2.49v-2.45a5.65,5.65,0,0,1,3.08,0,1.61,1.61,0,0,1,1,1,3.37,3.37,0,0,1,0,2.32,1.67,1.67,0,0,1-1.36,1.17c-.34.07-.7.1-1.07.15C82.92,113.19,83.26,114.12,83,115.11Zm.23-4.27c.87,0,1.09-.27,1.07-1s-.24-.89-1.08-.88a3.94,3.94,0,0,0,0,1.93Z"/><path class="cls-1" d="M61,108.9l-1.12-.12a1.76,1.76,0,0,1,0-1.18,13.7,13.7,0,0,1,3.89,0,1.46,1.46,0,0,1,0,1.18l-1.07.12a8.13,8.13,0,0,0-.1,2c0,.67,0,1.34,0,2v2a1.74,1.74,0,0,1-1.46.12,5.83,5.83,0,0,1-.1-.8c0-1.42,0-2.84,0-4.26,0-.33,0-.68-.07-1.08Z"/><path class="cls-1" d="M19,108.93C19,110,19,111,19,112s0,2,0,2.92a2.3,2.3,0,0,1-1.39.12,6,6,0,0,1-.12-.76c0-1.38,0-2.76,0-4.14,0-.39,0-.78,0-1.22l-1.19-.19a1.57,1.57,0,0,1,0-1.15,15.1,15.1,0,0,1,3.92,0,1.43,1.43,0,0,1,0,1.17l-1.19.17Z"/><path class="cls-1" d="M25.83,107.53h1.38a5.65,5.65,0,0,1,.13.79c0,1.38,0,2.76,0,4.14,0,.39,0,.78,0,1.24l1.69.17a4.68,4.68,0,0,1,.05.6,4.74,4.74,0,0,1-.08.6,19.21,19.21,0,0,1-3.13.07,27.58,27.58,0,0,1-.1-3.83c0-1.21,0-2.43,0-3.78Z"/><path class="cls-1" d="M31.45,107.58a63.13,63.13,0,0,1-.05,7.48,1.84,1.84,0,0,1-.42.09c-.27,0-.55,0-.85,0a1.49,1.49,0,0,1-.15-.45c0-2.25,0-4.5,0-6.76a1.06,1.06,0,0,1,.1-.28,1.76,1.76,0,0,1,1.36,0Z"/><path class="cls-1" d="M15.19,115.08a6.47,6.47,0,0,1-.72.07,6,6,0,0,1-.63-.08,9.39,9.39,0,0,1-.08-1.9c0-.63,0-1.26,0-1.9s0-1.19,0-1.78a12,12,0,0,1,.06-1.89,2.23,2.23,0,0,1,1.35,0,1.36,1.36,0,0,1,.14.43c0,2.25,0,4.5,0,6.76,0,.07,0,.14-.11.34Z"/><path class="cls-1" d="M94.4,112.58h-.74a8.76,8.76,0,0,1-.24-2.44c-.08-.82-.12-1.64-.17-2.44a1.86,1.86,0,0,1,1.46-.16,12.92,12.92,0,0,1-.06,2.57A8.05,8.05,0,0,1,94.4,112.58Z"/><path class="cls-1" d="M94.61,115.11H93.53c-.36-.39-.16-.78-.21-1.15a1.6,1.6,0,0,1,1.28-.16,1.84,1.84,0,0,1,0,1.31Z"/></g></g></svg>