<?xml version="1.0" encoding="UTF-8"?>
<svg width="33px" height="30px" viewBox="0 0 33 30" version="1.1" xmlns="http://www.w3.org/2000/svg" xmlns:xlink="http://www.w3.org/1999/xlink">
    <title>passion</title>
    <g id="Page-1" stroke="none" stroke-width="1" fill="none" fill-rule="evenodd">
        <g id="passion" transform="translate(0.500000, 0.000000)" fill="#3F4870" fill-rule="nonzero">
            <path d="M23.467,0.385 C19.713,0.385 17.231,2.435 16,3.791 C14.769,2.435 12.287,0.385 8.533,0.385 C3.411,0.385 0,5.148 0,10.484 C0,14.476 2.013,22.254 15.496,29.488 C15.811,29.657 16.19,29.657 16.505,29.488 C29.988,22.254 32.001,14.476 32.001,10.484 C32.001,5.024 28.489,0.385 23.468,0.385 L23.467,0.385 Z M16,27.334 C9.524,23.773 2.133,17.84 2.133,10.484 C2.133,6.392 4.59,2.519 8.533,2.519 C11.524,2.519 13.999,4.353 15.094,6.08 C15.511,6.751 16.492,6.751 16.908,6.077 C16.93,6.041 19.154,2.519 23.467,2.519 C27.439,2.519 29.867,6.431 29.867,10.484 C29.867,17.841 22.477,23.773 16,27.334 Z" id="Shape"></path>
        </g>
    </g>
</svg>