<?xml version="1.0" encoding="UTF-8"?>
<svg width="33px" height="32px" viewBox="0 0 33 32" version="1.1" xmlns="http://www.w3.org/2000/svg" xmlns:xlink="http://www.w3.org/1999/xlink">
    <title>fry-rolls</title>
    <g id="Page-1" stroke="none" stroke-width="1" fill="none" fill-rule="evenodd">
        <g id="fry-rolls" transform="translate(0.500000, 0.000000)" fill="#3F4870" fill-rule="nonzero">
            <path d="M31.308,0.65 L31.329,0.671 L31.35,0.692 C31.727,1.075 31.925,1.599 31.898,2.136 C31.872,2.663 31.63,3.155 31.227,3.501 L31.204,3.52 L18.86,13.493 L18.866,13.537 L18.871,13.576 L18.877,13.63 L18.882,13.688 L18.887,13.764 L18.891,13.842 L18.896,13.976 L18.899,14.089 L18.903,14.35 L18.905,14.632 L18.907,15.487 L18.907,16.223 L18.907,16.525 L28.838,10.406 C29.58,9.835 30.626,9.887 31.306,10.527 L31.326,10.547 L31.347,10.567 C31.73,10.95 31.934,11.477 31.908,12.019 C31.883,12.55 31.638,13.047 31.23,13.394 L31.214,13.407 L31.222,13.399 L31.214,13.406 L31.201,13.415 L31.184,13.427 L31.162,13.442 L31.101,13.481 L31.04,13.52 L30.905,13.604 L30.765,13.691 L30.495,13.858 L30.008,14.156 L28.403,15.132 L18.905,20.883 L18.905,26.433 C18.905,29.535 15.532,31.846 11.071,31.936 L10.935,31.938 L10.797,31.939 C8.225,31.939 5.742,31.145 4.213,29.842 L4.167,29.802 L4.155,29.791 L2.914,30.546 C2.173,31.125 1.108,31.018 0.496,30.308 L0.478,30.286 L0.459,30.263 C-0.146,29.513 -0.036,28.419 0.701,27.804 L0.734,27.777 L0.769,27.754 L2.69,26.544 L2.69,26.515 L2.674,26.523 C1.971,26.878 1.098,26.723 0.562,26.115 L0.544,26.095 L0.526,26.073 C-0.073,25.35 0.002,24.286 0.691,23.653 L0.712,23.634 L0.721,23.626 L2.69,22.006 L2.69,21.157 L2.685,21.154 C1.059,20.152 0.128,18.741 0.091,17.166 L0.09,17.118 L0.09,17.068 L0.09,4.585 C0.09,1.956 3.532,0.119 8.197,0.119 C12.818,0.119 16.235,1.916 16.303,4.506 L16.304,4.585 L16.304,10.58 L16.337,10.596 L16.391,10.623 L16.445,10.65 L16.484,10.67 L28.76,0.565 C29.507,-0.063 30.605,-0.024 31.306,0.647 L31.308,0.65 Z M13.617,24.066 L5.665,28.881 L5.677,28.89 C7.566,30.211 10.827,30.692 13.561,29.93 L13.616,29.914 L13.616,24.066 L13.617,24.066 Z M29.85,11.694 L29.844,11.699 L29.837,11.706 L29.812,11.728 L29.805,11.734 L29.793,11.743 L29.774,11.756 L29.695,11.806 L1.762,29.08 C1.747,29.105 1.742,29.136 1.749,29.165 L1.752,29.175 C1.764,29.213 1.795,29.242 1.834,29.252 L1.836,29.252 L1.881,29.228 L1.971,29.179 L2.075,29.12 L2.234,29.028 L2.493,28.876 L2.797,28.696 L3.366,28.356 L4.371,27.75 L30.199,12.1 C30.289,12.004 30.296,11.855 30.214,11.751 L30.205,11.74 C30.114,11.636 29.959,11.619 29.851,11.694 L29.85,11.694 Z M17.258,21.874 L15.267,23.069 L15.267,29.228 L15.274,29.224 C16.527,28.507 17.242,27.525 17.258,26.468 L17.258,26.432 L17.258,21.873 L17.258,21.874 Z M4.344,16.936 L4.344,25.543 L13.617,19.808 L13.617,18.616 L13.543,18.633 C10.163,19.404 6.476,18.662 4.358,16.946 L4.345,16.935 L4.344,16.936 Z M2.694,24.15 L1.82,24.878 L1.818,24.881 C1.796,24.918 1.797,24.964 1.822,25 L1.828,25.008 C1.858,25.045 1.908,25.058 1.951,25.042 L1.954,25.041 L2.694,24.445 L2.694,24.149 L2.694,24.15 Z M1.743,7.564 L1.743,17.063 L1.744,17.091 C1.788,17.859 2.12,18.575 2.662,19.101 L2.693,19.131 L2.693,13.951 L2.693,13.941 C2.72,13.083 3.084,12.274 3.701,11.685 L3.733,11.655 L3.733,8.731 L3.714,8.723 C3.025,8.449 2.381,8.075 1.803,7.613 L1.742,7.564 L1.743,7.564 Z M17.258,16.926 L17.251,16.932 C16.659,17.414 15.997,17.803 15.286,18.086 L15.267,18.094 L15.267,18.788 L17.258,17.557 L17.258,16.927 L17.258,16.926 Z M6.882,11.694 L6.827,11.713 L6.744,11.742 C6.689,11.762 6.635,11.781 6.582,11.801 L6.503,11.831 C6.464,11.846 6.425,11.861 6.387,11.877 L6.312,11.908 L6.238,11.939 C6.128,11.986 6.023,12.035 5.923,12.085 L5.857,12.118 L5.792,12.152 C5.036,12.552 4.58,13.019 4.419,13.517 C4.23,14.103 4.459,14.755 5.071,15.371 L5.118,15.418 C5.158,15.457 5.2,15.496 5.243,15.534 C6.019,16.229 7.209,16.787 8.583,17.078 C9.894,17.355 11.306,17.378 12.702,17.122 L12.766,17.11 L12.332,16.709 L12.271,16.721 C11.81,16.807 11.343,16.852 10.875,16.855 L10.801,16.855 C8.773,16.855 7.208,16.176 6.592,15.112 C6.021,14.125 6.396,13.047 7.549,12.336 L7.569,12.324 L6.883,11.694 L6.882,11.694 Z M10.801,11.1339826 C10.168,11.133 9.537,11.175 8.911,11.259 L8.866,11.265 L9.335,11.701 L9.398,11.689 C9.837,11.61 10.282,11.568 10.728,11.564 L10.802,11.564 C12.821,11.564 14.382,12.233 15.004,13.285 C15.581,14.262 15.221,15.334 14.083,16.049 L14.064,16.061 L14.622,16.57 L14.652,16.558 C16.243,15.893 17.239,14.877 17.259,13.978 L17.259,13.95 C17.259,12.431 14.447,11.1339826 10.802,11.1339826 L10.801,11.1339826 Z M10.801,13.214 C9.944,13.214 9.193,13.37 8.647,13.631 C8.415,13.742 8.234,13.866 8.116,13.989 C8.025,14.084 7.985,14.163 7.985,14.209 C7.985,14.255 8.024,14.334 8.116,14.429 C8.234,14.552 8.415,14.676 8.647,14.787 C9.194,15.048 9.944,15.204 10.801,15.204 C11.658,15.204 12.41,15.049 12.956,14.788 C13.188,14.677 13.369,14.553 13.486,14.431 C13.577,14.336 13.617,14.256 13.617,14.208 C13.617,14.16 13.578,14.081 13.486,13.985 C13.369,13.862 13.187,13.738 12.956,13.628 C12.41,13.368 11.659,13.212 10.801,13.212 L10.801,13.214 Z M29.856,1.821 L29.844,1.829 L29.833,1.837 L17.862,11.657 L17.874,11.669 C17.949,11.744 18.022,11.823 18.091,11.903 L18.135,11.955 L30.168,2.267 C30.241,2.209 30.279,2.119 30.27,2.027 L30.268,2.013 C30.254,1.917 30.189,1.835 30.099,1.799 C30.018,1.767 29.927,1.776 29.856,1.819 L29.856,1.821 Z M14.657,7.574 L14.645,7.584 C12.529,9.299 8.847,10.044 5.46,9.272 L5.385,9.254 L5.385,10.542 L5.415,10.528 C7.898,9.366 11.668,9.173 14.573,9.951 L14.657,9.974 L14.657,7.574 L14.657,7.574 Z M12.117,2.333 L11.43,2.963 L11.449,2.975 C12.577,3.679 12.958,4.74 12.424,5.715 L12.406,5.748 C11.798,6.815 10.239,7.493 8.201,7.493 C7.709,7.494 7.218,7.449 6.735,7.358 L6.674,7.346 L6.24,7.743 L6.317,7.757 C6.911,7.864 7.514,7.92 8.118,7.923 L8.2,7.923 C9.981,7.923 11.641,7.501 12.88,6.787 C12.926,6.761 12.97,6.734 13.014,6.707 L13.079,6.667 L13.143,6.626 C14.108,6.004 14.656,5.253 14.656,4.587 C14.656,3.736 13.74,2.903 12.151,2.345 L12.117,2.333 L12.117,2.333 Z M8.297,1.772 L8.2,1.772 C4.559,1.772 1.743,3.072 1.743,4.588 C1.743,5.495 2.743,6.525 4.35,7.197 L4.38,7.209 L4.938,6.699 L4.923,6.69 C3.81,5.99 3.439,4.935 3.976,3.967 L3.994,3.934 C4.605,2.874 6.161,2.202 8.2,2.202 C8.671,2.203 9.141,2.246 9.605,2.332 L9.67,2.344 L10.157,1.902 L10.114,1.896 C9.512,1.815 8.905,1.774 8.297,1.772 L8.297,1.772 Z M8.2,3.852 L8.151,3.852 C7.315,3.858 6.583,4.014 6.046,4.272 C5.814,4.383 5.633,4.508 5.515,4.631 C5.424,4.727 5.384,4.806 5.384,4.852 C5.384,4.898 5.423,4.977 5.514,5.071 C5.632,5.193 5.813,5.317 6.045,5.427 C6.591,5.687 7.343,5.842 8.2,5.842 C9.053,5.842 9.803,5.683 10.353,5.417 C10.585,5.305 10.767,5.18 10.886,5.057 C10.973,4.967 11.012,4.893 11.016,4.852 L11.016,4.848 L11.015,4.84 C11.001,4.71 10.795,4.495 10.426,4.305 L10.378,4.281 L10.354,4.269 C9.831,4.018 9.119,3.864 8.306,3.852 L8.256,3.851 L8.199,3.851 L8.2,3.852 Z" id="Shape"></path>
        </g>
    </g>
</svg>