<?xml version="1.0" encoding="UTF-8"?>
<svg width="33px" height="32px" viewBox="0 0 33 32" version="1.1" xmlns="http://www.w3.org/2000/svg" xmlns:xlink="http://www.w3.org/1999/xlink">
    <title>salade</title>
    <g id="Page-1" stroke="none" stroke-width="1" fill="none" fill-rule="evenodd">
        <g id="salade" transform="translate(0.500000, 0.000000)" fill="#3F4870" fill-rule="nonzero">
            <path d="M31,13.998 L24.394,13.998 C25.178,13.358 25.948,12.546 26.66,11.46 C26.678,11.43 26.696,11.402 26.712,11.37 C28.804,7.324 27.226,1.014 27.158,0.748 C27.068,0.396 26.792,0.126 26.442,0.034 C26.092,-0.058 25.714,0.05 25.462,0.312 C25.446,0.328 23.808,1.982 18.346,4.078 C16.418,4.816 15.016,6.216 14.398,8.018 C14.296,8.314 14.214,8.66 14.152,9.032 C13.61,8.26 12.84,7.646 11.872,7.276 C8.248,5.888 7.148,4.796 7.148,4.796 C6.9,4.524 6.526,4.408 6.168,4.504 C5.812,4.592 5.534,4.87 5.444,5.224 C5.396,5.41 4.292,9.824 5.772,12.688 C5.788,12.72 5.806,12.748 5.824,12.778 C6.136,13.254 6.47,13.644 6.812,13.998 L1,13.998 C0.448,13.998 -3.55271368e-15,14.446 -3.55271368e-15,14.998 C-3.55271368e-15,21.122 3.99,26.624 10,28.904 L10,30.998 C10,31.55 10.448,31.998 11,31.998 L21,31.998 C21.552,31.998 22,31.55 22,30.998 L22,28.904 C28.01,26.624 32,21.12 32,14.998 C32,14.446 31.552,13.998 31,13.998 Z M16.29,8.668 C16.712,7.436 17.698,6.468 19.062,5.946 C22.35,4.686 24.356,3.568 25.522,2.788 C25.832,4.736 26.12,8.11 24.958,10.41 C23.026,13.322 20.684,13.974 19.012,13.998 L18.764,13.998 C18.744,13.998 18.726,13.996 18.708,13.996 C19.7,13 20.944,11.488 21.908,9.422 C22.142,8.92 21.926,8.326 21.424,8.092 C20.926,7.856 20.328,8.074 20.094,8.574 C19.086,10.736 17.704,12.228 16.812,13.04 C16.062,11.43 15.856,9.93 16.29,8.668 L16.29,8.668 Z M14.742,13.334 C14.832,13.554 14.914,13.77 15.022,13.998 L14.508,13.998 C14.6,13.77 14.68,13.548 14.742,13.334 Z M7.112,7.224 C7.96,7.744 9.252,8.412 11.156,9.142 C11.996,9.464 12.6,10.054 12.858,10.802 C13.086,11.47 13.036,12.252 12.72,13.1 C12.038,12.418 11.252,11.508 10.938,10.654 C10.75,10.134 10.18,9.872 9.656,10.058 C9.136,10.25 8.872,10.824 9.062,11.342 C9.416,12.31 10.124,13.24 10.798,13.986 C9.806,13.848 8.584,13.312 7.526,11.726 C6.904,10.476 6.94,8.614 7.112,7.224 Z M20.686,27.248 C20.278,27.382 20,27.766 20,28.198 L20,29.998 L12,29.998 L12,28.198 C12,27.766 11.722,27.384 11.314,27.248 C6.084,25.522 2.464,21.078 2.042,15.998 L10.932,15.998 C11.092,16.01 11.254,16.024 11.408,16.024 C11.508,16.024 11.59,16.004 11.686,15.998 L29.96,15.998 C29.536,21.078 25.916,25.522 20.686,27.248 Z" id="Shape"></path>
        </g>
    </g>
</svg>