<?xml version="1.0" encoding="UTF-8"?>
<svg width="33px" height="32px" viewBox="0 0 33 32" version="1.1" xmlns="http://www.w3.org/2000/svg" xmlns:xlink="http://www.w3.org/1999/xlink">
    <title>poke-bowl</title>
    <g id="Page-1" stroke="none" stroke-width="1" fill="none" fill-rule="evenodd">
        <g id="poke-bowl" transform="translate(0.500000, 0.000000)" fill="#3F4870" fill-rule="nonzero">
            <path d="M31.063,13.125 L30.03,13.125 C29.839,12.196 29.368,11.343 28.678,10.682 C29.033,9.463 28.883,8.143 28.241,7.031 C27.599,5.919 26.531,5.129 25.297,4.827 C24.995,3.594 24.205,2.526 23.093,1.884 C21.981,1.242 20.661,1.092 19.442,1.447 C18.564,0.53 17.346,0 16.062,0 C14.758,0 13.456,0.553 12.565,1.45 C11.344,1.092 10.02,1.241 8.906,1.884 C7.794,2.526 7.004,3.595 6.702,4.827 C5.469,5.129 4.401,5.919 3.759,7.031 C3.117,8.143 2.967,9.463 3.322,10.682 C2.632,11.343 2.161,12.196 1.97,13.125 L0.937,13.125 C0.419,13.125 -0.001,13.545 -0.001,14.063 C-0.001,19.567 2.852,24.671 7.499,27.579 L7.499,29.188 C7.499,30.739 8.761,32.001 10.312,32.001 L21.687,32.001 C23.238,32.001 24.5,30.739 24.5,29.188 L24.5,27.579 C29.147,24.67 32,19.567 32,14.063 C32,13.545 31.58,13.125 31.062,13.125 L31.063,13.125 Z M4.968,11.751 C5.345,11.49 5.478,10.994 5.282,10.58 C4.885,9.741 4.923,8.765 5.382,7.969 C5.841,7.173 6.668,6.653 7.593,6.576 C8.05,6.538 8.413,6.176 8.451,5.719 C8.527,4.794 9.048,3.968 9.843,3.508 C10.638,3.048 11.615,3.011 12.454,3.408 C12.869,3.604 13.364,3.471 13.625,3.094 C14.13,2.365 15.109,1.876 16.061,1.876 C16.98,1.876 17.844,2.332 18.372,3.094 C18.633,3.471 19.129,3.604 19.543,3.408 C20.382,3.011 21.358,3.049 22.154,3.508 C22.95,3.967 23.47,4.794 23.546,5.719 C23.584,6.176 23.946,6.539 24.404,6.577 C25.329,6.653 26.156,7.174 26.615,7.97 C27.074,8.766 27.112,9.742 26.715,10.581 C26.519,10.996 26.652,11.491 27.029,11.752 C27.523,12.094 27.888,12.578 28.083,13.126 L3.911,13.126 C4.107,12.578 4.471,12.094 4.965,11.752 L4.968,11.751 Z M22.625,29.188 C22.625,29.705 22.204,30.126 21.687,30.126 L10.312,30.126 C9.795,30.126 9.374,29.705 9.374,29.188 L9.374,28.125 L22.624,28.125 L22.624,29.188 L22.625,29.188 Z M23.069,26.25 L8.932,26.25 C4.846,23.892 2.219,19.648 1.907,14.988 L30.094,14.988 C29.782,19.649 27.155,23.893 23.069,26.25 Z" id="Shape"></path>
            <path d="M20.645,8.258 C20.645,8.828 20.183,9.29 19.613,9.29 C19.043,9.29 18.581,8.828 18.581,8.258 C18.581,7.688 19.043,7.226 19.613,7.226 C20.183,7.226 20.645,7.688 20.645,8.258 Z" id="Path"></path>
            <path d="M24.774,10.323 C24.774,10.893 24.312,11.355 23.742,11.355 C23.172,11.355 22.71,10.893 22.71,10.323 C22.71,9.753 23.172,9.291 23.742,9.291 C24.312,9.291 24.774,9.753 24.774,10.323 Z" id="Path"></path>
            <path d="M9.29,8.258 C9.29,8.828 8.828,9.29 8.258,9.29 C7.688,9.29 7.226,8.828 7.226,8.258 C7.226,7.688 7.688,7.226 8.258,7.226 C8.828,7.226 9.29,7.688 9.29,8.258 Z" id="Path"></path>
        </g>
    </g>
</svg>