<?xml version="1.0" encoding="UTF-8"?>
<svg width="33px" height="28px" viewBox="0 0 33 28" version="1.1" xmlns="http://www.w3.org/2000/svg" xmlns:xlink="http://www.w3.org/1999/xlink">
    <title>les-grandes-crus</title>
    <g id="Page-1" stroke="none" stroke-width="1" fill="none" fill-rule="evenodd">
        <g id="les-grandes-crus" transform="translate(0.500000, 0.000000)" fill="#3F4870" fill-rule="nonzero">
            <path d="M20.843,1.174 C21.63,1.768 21.809,2.862 21.257,3.674 L21.24,3.699 L20.905,4.176 L21.39,3.853 C22.202,3.312 23.281,3.495 23.87,4.264 L23.888,4.288 L23.906,4.312 C24.48,5.113 24.326,6.211 23.558,6.822 L23.535,6.84 L21.567,8.357 L21.572,8.357 C21.869,8.332 22.167,8.317 22.466,8.312 L22.578,8.311 L22.679,8.311 C25.325,8.311 27.882,9.097 30.07,10.585 C31.952,11.864 32.539,14.36 31.474,16.331 L31.441,16.391 L31.411,16.443 L31.412,16.444 C31.614,16.806 31.725,17.209 31.735,17.621 L31.736,17.662 L31.736,17.701 C31.73,18.517 31.352,19.269 30.7,19.762 C30.683,19.775 30.677,19.788 30.679,19.801 C30.788,20.531 30.581,21.275 30.112,21.844 C29.639,22.417 28.942,22.762 28.198,22.79 C28.187,22.79 28.177,22.797 28.171,22.811 C27.752,23.75 26.817,24.356 25.79,24.356 C25.234,24.356 24.702,24.183 24.255,23.856 C24.241,23.846 24.229,23.846 24.215,23.856 C23.767,24.183 23.235,24.356 22.68,24.356 C22.125,24.356 21.593,24.183 21.144,23.855 C21.129,23.844 21.12,23.844 21.118,23.845 C20.668,24.22 20.158,24.382 19.623,24.376 C19.375,24.373 19.163,24.341 18.956,24.285 L18.917,24.274 L18.9,24.269 L18.882,24.3 C18.515,24.924 17.932,25.483 17.167,25.946 L17.123,25.973 L17.078,25.999 C15.742,26.78 13.985,27.208 12.128,27.208 C10.271,27.208 8.514,26.78 7.178,25.999 C6.539,25.625 6.021,25.186 5.644,24.697 L5.615,24.659 L5.61,24.652 L5.6,24.654 C4.939,24.786 4.238,24.693 3.557,24.203 L3.526,24.18 L3.495,24.157 C2.881,23.692 2.503,23.003 2.439,22.257 L2.436,22.222 L2.434,22.198 L2.413,22.196 C1.613,22.115 0.991,21.741 0.546,21.15 L0.525,21.122 L0.505,21.095 C0.078,20.5 -0.085,19.774 0.046,19.053 C0.175,18.344 0.573,17.731 1.166,17.325 L1.196,17.305 L5.636,14.347 L5.646,14.334 C5.771,14.175 5.929,14.007 6.112,13.839 L6.168,13.788 C6.224,13.737 6.283,13.687 6.344,13.637 L6.405,13.587 C7.002,13.102 7.774,12.646 8.513,12.417 L8.552,12.405 L10.513,11.099 L18.309,1.482 C18.936,0.708 20.052,0.572 20.846,1.172 L20.843,1.174 Z M6.339,19.046 L6.339,22.704 C6.339,23.448 6.88,24.188 7.891,24.779 C9.008,25.432 10.514,25.795 12.126,25.795 C13.738,25.795 15.244,25.433 16.361,24.779 C17.36,24.195 17.901,23.465 17.912,22.729 L17.912,22.704 L17.912,19.046 L17.897,19.059 C17.666,19.251 17.409,19.432 17.128,19.599 L17.075,19.63 C15.739,20.411 13.982,20.839 12.125,20.839 C10.268,20.839 8.511,20.411 7.176,19.63 C6.874,19.454 6.6,19.263 6.354,19.058 L6.339,19.045 L6.339,19.046 Z M11.171,22.579 C11.384,22.439 11.67,22.498 11.81,22.711 C11.911,22.865 12.064,22.881 12.125,22.881 C12.186,22.881 12.337,22.863 12.44,22.711 C12.656,22.394 13.001,22.527 13.079,22.579 C13.292,22.719 13.351,23.005 13.211,23.218 C12.97,23.585 12.564,23.805 12.124,23.805 C11.684,23.805 11.279,23.586 11.037,23.218 C10.897,23.005 10.956,22.719 11.169,22.579 L11.171,22.579 Z M9.208,21.945 C9.463,21.945 9.67,22.152 9.67,22.407 L9.67,22.407 L9.67,23.173 C9.67,23.428 9.463,23.635 9.208,23.635 C8.953,23.635 8.746,23.429 8.746,23.173 L8.746,23.173 L8.746,22.407 C8.746,22.152 8.953,21.945 9.208,21.945 L9.208,21.945 Z M15.043,21.945 C15.298,21.945 15.505,22.152 15.505,22.407 L15.505,22.407 L15.505,23.173 C15.505,23.428 15.298,23.635 15.043,23.635 C14.788,23.635 14.581,23.429 14.581,23.173 L14.581,23.173 L14.581,22.407 C14.581,22.152 14.788,21.945 15.043,21.945 L15.043,21.945 Z M4.923,21.174 L4.828,21.243 L4.681,21.35 L4.564,21.434 L4.454,21.513 L4.303,21.621 L4.181,21.707 L4.093,21.768 L3.995,21.835 L3.926,21.881 L3.879,21.911 L3.845,21.933 L3.844,21.95 C3.787,22.692 4.159,23.201 4.95,23.269 L4.977,23.271 L4.973,23.25 C4.943,23.086 4.926,22.921 4.923,22.754 L4.923,22.704 L4.923,21.175 L4.923,21.174 Z M20.293,17.858 L20.249,17.887 C19.971,18.076 19.676,18.231 19.367,18.351 L19.327,18.366 L19.321,20.361 L19.314,21.84 L19.307,22.711 L19.304,22.906 L19.318,22.909 C19.386,22.921 19.463,22.929 19.542,22.93 L19.569,22.93 C19.804,22.927 20.033,22.864 20.248,22.725 L20.274,22.708 C20.792,22.355 21.453,22.346 21.954,22.697 L21.976,22.713 C22.18,22.862 22.422,22.941 22.677,22.941 C22.922,22.941 23.155,22.868 23.355,22.729 L23.378,22.713 C23.881,22.346 24.556,22.34 25.065,22.697 L25.087,22.713 C25.291,22.862 25.533,22.941 25.788,22.941 C26.25,22.941 26.671,22.673 26.867,22.255 L26.877,22.234 C27.1,21.734 27.575,21.407 28.118,21.377 L28.144,21.376 C28.484,21.363 28.803,21.206 29.019,20.944 C29.227,20.691 29.322,20.362 29.282,20.037 L29.278,20.011 C29.203,19.509 29.411,19.012 29.814,18.661 L29.835,18.643 C29.85,18.631 29.864,18.618 29.878,18.606 C30.232,18.29 30.357,17.983 30.34,17.678 L30.338,17.656 L30.295,17.692 C30.222,17.752 30.148,17.808 30.072,17.863 L30.026,17.895 C29.356,18.36 28.546,18.624 27.484,18.624 C26.691,18.624 25.907,18.404 25.158,17.922 L25.117,17.895 C23.624,16.916 21.738,16.904 20.295,17.86 L20.293,17.858 Z M4.932,16.516 L1.979,18.483 C1.814,18.593 1.611,18.857 1.51,19.144 C1.378,19.518 1.413,19.901 1.659,20.28 C1.899,20.648 2.234,20.803 2.638,20.791 C2.942,20.782 3.269,20.668 3.437,20.546 L3.451,20.535 L4.924,19.4 L4.93,17.067 L4.933,16.516 L4.932,16.516 Z M12.125,13.243 C10.512,13.243 9.007,13.605 7.89,14.259 C6.88,14.85 6.338,15.59 6.338,16.334 C6.338,17.078 6.879,17.818 7.89,18.409 C9.007,19.062 10.513,19.425 12.125,19.425 C13.737,19.425 15.243,19.063 16.36,18.409 C17.37,17.818 17.912,17.078 17.912,16.334 C17.912,15.59 17.371,14.85 16.36,14.259 C15.243,13.606 13.737,13.243 12.125,13.243 Z M12.125,14.443 C13.925,14.443 15.282,15.256 15.282,16.334 C15.282,17.412 13.925,18.225 12.125,18.225 C11.87,18.225 11.663,18.018 11.663,17.763 C11.663,17.508 11.87,17.301 12.125,17.301 C12.762,17.301 13.378,17.168 13.815,16.936 C14.156,16.755 14.359,16.53 14.359,16.333 C14.359,16.136 14.155,15.911 13.815,15.73 C13.377,15.498 12.762,15.365 12.125,15.365 C11.488,15.365 10.872,15.498 10.435,15.73 C10.094,15.911 9.891,16.136 9.891,16.333 C9.891,16.53 10.094,16.755 10.435,16.936 C10.66,17.055 10.746,17.335 10.627,17.56 C10.508,17.785 10.228,17.871 10.003,17.752 C9.335,17.398 8.968,16.894 8.968,16.333 C8.968,15.255 10.325,14.442 12.125,14.442 L12.125,14.443 Z M24.209,9.826 L24.215,9.846 C24.474,10.713 24.565,11.625 24.481,12.536 C24.395,13.473 23.605,14.189 22.67,14.189 C21.511,14.189 20.776,13.424 20.853,12.248 L20.856,12.212 C20.918,11.419 20.727,10.653 20.312,10.011 L20.289,9.976 L20.248,9.987 L20.193,10.002 L20.135,10.019 L20.084,10.034 L20.049,10.045 L19.976,10.068 L19.899,10.093 L19.818,10.119 L19.734,10.147 L19.665,10.171 C19.495,10.229 19.317,10.293 19.14,10.359 L19.068,10.386 L19.085,10.412 C19.568,11.161 19.908,11.998 20.083,12.879 L20.094,12.937 C20.257,13.789 19.793,14.62 19.024,14.95 L19.001,14.959 L19.014,14.986 C19.216,15.404 19.323,15.843 19.329,16.293 L19.329,16.334 L19.329,16.798 L19.364,16.776 C19.379,16.766 19.394,16.757 19.41,16.747 L19.455,16.717 C21.36,15.423 23.856,15.408 25.833,16.672 L25.893,16.711 C26.695,17.237 27.569,17.327 28.426,17.056 C29.126,16.835 29.763,16.374 30.069,15.923 C30.999,14.555 30.642,12.686 29.274,11.756 C28.651,11.332 27.992,10.972 27.305,10.676 L27.226,10.642 L27.227,10.647 C27.307,11.329 27.244,12.027 27.039,12.697 L27.024,12.746 C26.969,12.919 27.002,13.038 27.099,13.14 C27.136,13.179 27.182,13.213 27.229,13.241 C27.242,13.248 27.253,13.255 27.264,13.26 L27.282,13.268 L27.291,13.271 C27.494,13.33 27.71,13.222 27.784,13.024 L27.789,13.01 C27.831,12.882 27.869,12.753 27.902,12.625 C27.999,12.246 28.385,12.018 28.763,12.115 C29.141,12.212 29.37,12.598 29.273,12.976 C29.232,13.137 29.184,13.298 29.132,13.455 C28.819,14.398 27.951,14.947 26.838,14.611 C26.453,14.495 26.081,14.208 25.846,13.83 C25.578,13.399 25.504,12.884 25.665,12.348 L25.674,12.318 C25.902,11.6 25.901,10.842 25.676,10.149 L25.663,10.11 L25.611,10.096 C25.173,9.983 24.729,9.896 24.28,9.834 L24.209,9.825 L24.209,9.826 Z M17.664,10.85 L17.656,10.854 C17.412,10.97 17.172,11.094 16.936,11.227 L16.924,11.234 L16.946,11.261 C17.409,11.854 17.736,12.552 17.896,13.297 L17.906,13.345 C17.942,13.523 18.029,13.61 18.164,13.652 C18.216,13.668 18.272,13.676 18.327,13.676 C18.342,13.676 18.355,13.676 18.367,13.675 L18.386,13.674 L18.396,13.672 C18.602,13.625 18.738,13.425 18.706,13.216 L18.704,13.202 C18.541,12.349 18.189,11.55 17.675,10.862 L17.666,10.85 L17.664,10.85 Z M22.675,9.731 L22.494,9.736 L22.351,9.741 L22.194,9.747 L22.099,9.751 L21.963,9.757 L21.877,9.761 L21.794,9.765 C22.166,10.535 22.331,11.394 22.27,12.272 L22.266,12.322 C22.252,12.503 22.311,12.611 22.429,12.689 C22.474,12.719 22.526,12.742 22.579,12.758 C22.593,12.762 22.606,12.766 22.618,12.768 L22.637,12.772 L22.646,12.773 C22.857,12.785 23.043,12.63 23.07,12.421 L23.072,12.407 C23.155,11.506 23.025,10.606 22.693,9.776 L22.675,9.732 L22.675,9.731 Z M15.742,12.024 L15.738,12.028 C15.646,12.112 15.56,12.202 15.48,12.296 L15.456,12.325 L15.489,12.336 C15.684,12.399 15.875,12.469 16.061,12.543 L16.123,12.568 L16.116,12.555 C16.017,12.382 15.904,12.219 15.779,12.066 L15.744,12.024 L15.742,12.024 Z M22.202,5.014 L22.189,5.022 L22.176,5.03 L11.954,11.839 L11.991,11.839 C12.61,11.839 13.327,11.878 13.949,11.97 L13.976,11.974 L13.984,11.961 C14.304,11.428 14.732,10.97 15.247,10.611 L15.287,10.584 C16.235,9.94 17.256,9.425 18.328,9.049 L18.37,9.034 L22.671,5.718 C22.849,5.581 22.889,5.334 22.766,5.148 L22.757,5.135 C22.629,4.956 22.392,4.906 22.204,5.013 L22.202,5.014 Z M19.426,2.351 L19.415,2.363 L19.405,2.375 L14.471,8.462 L17.658,6.339 L20.082,2.885 C20.211,2.701 20.176,2.453 20.003,2.313 L19.991,2.303 C19.816,2.171 19.575,2.193 19.427,2.351 L19.426,2.351 Z" id="Shape"></path>
        </g>
    </g>
</svg>