<?xml version="1.0" encoding="UTF-8"?>
<svg width="32px" height="24px" viewBox="0 0 32 24" version="1.1" xmlns="http://www.w3.org/2000/svg" xmlns:xlink="http://www.w3.org/1999/xlink">
    <title>maki</title>
    <g id="Page-1" stroke="none" stroke-width="1" fill="none" fill-rule="evenodd">
        <g id="maki" fill="#3F4870" fill-rule="nonzero">
            <polygon id="Path" points="14.024 6.98 18.102 6.98 18.102 8.862 14.024 8.862"></polygon>
            <path d="M29.291,1.343 C27.736,0.527 25.69,0.078 23.53,0.078 C20.313,0.078 17.417,1.088 16.001,2.676 C14.574,1.07 11.71,0.078 8.471,0.078 C6.31,0.078 4.264,0.527 2.71,1.343 C0.963,2.26 0.001,3.547 0.001,4.969 L0.001,15.603 C0.001,17.025 0.963,18.313 2.71,19.229 C4.093,19.954 5.864,20.389 7.759,20.476 C8.207,21.298 9.011,22.032 10.129,22.618 C11.73,23.458 13.838,23.92 16.064,23.92 C18.29,23.92 20.398,23.458 21.999,22.618 C23.119,22.03 23.925,21.295 24.372,20.47 C26.218,20.369 27.941,19.937 29.292,19.229 C31.039,18.312 32.001,17.025 32.001,15.603 L32.001,4.969 C32.001,3.547 31.039,2.259 29.292,1.343 L29.291,1.343 Z M28.416,3.01 C29.497,3.577 30.117,4.291 30.117,4.969 C30.117,5.647 29.497,6.361 28.416,6.929 C27.42,7.451 26.158,7.792 24.778,7.92 C24.778,7.208 24.541,6.529 24.09,5.911 L26.353,5.911 L26.353,4.029 L21.641,4.029 C20.716,3.595 19.645,3.278 18.493,3.093 C19.745,2.397 21.593,1.962 23.529,1.962 C25.391,1.962 27.126,2.335 28.416,3.011 L28.416,3.01 Z M16.063,4.784 C20.09,4.784 22.896,6.437 22.896,7.921 C22.896,9.405 20.09,11.058 16.063,11.058 C12.036,11.058 9.23,9.405 9.23,7.921 C9.23,6.437 12.036,4.784 16.063,4.784 L16.063,4.784 Z M3.584,3.01 C4.874,2.333 6.609,1.961 8.471,1.961 C10.643,1.961 12.391,2.462 13.533,3.11 C12.403,3.3 11.353,3.616 10.446,4.047 L10.446,4.029 L5.648,4.029 L5.648,5.911 L8.036,5.911 C7.585,6.53 7.348,7.21 7.348,7.922 L7.348,7.932 C5.919,7.813 4.611,7.468 3.585,6.93 C2.504,6.363 1.884,5.649 1.884,4.971 C1.884,4.293 2.504,3.579 3.585,3.011 L3.584,3.01 Z M1.882,15.604 L1.882,8.094 C2.134,8.272 2.41,8.44 2.709,8.597 C3.991,9.269 5.608,9.692 7.347,9.82 L7.347,18.567 C5.918,18.448 4.61,18.103 3.584,17.565 C2.503,16.998 1.883,16.284 1.883,15.605 L1.882,15.604 Z M16.063,22.039 C12.036,22.039 9.23,20.386 9.23,18.902 L9.23,11.088 C9.502,11.283 9.802,11.467 10.129,11.639 C11.73,12.479 13.838,12.941 16.064,12.941 C18.29,12.941 20.398,12.479 21.999,11.639 C22.326,11.468 22.626,11.283 22.898,11.088 L22.898,18.902 C22.898,20.386 20.092,22.039 16.065,22.039 L16.063,22.039 Z M28.416,17.563 C27.42,18.085 26.158,18.426 24.778,18.554 L24.778,9.809 C26.469,9.67 28.039,9.252 29.29,8.596 C29.589,8.439 29.865,8.271 30.117,8.093 L30.117,15.603 C30.117,16.281 29.497,16.995 28.416,17.563 L28.416,17.563 Z" id="Shape"></path>
        </g>
    </g>
</svg>