<?xml version="1.0" encoding="UTF-8"?>
<svg width="33px" height="32px" viewBox="0 0 33 32" version="1.1" xmlns="http://www.w3.org/2000/svg" xmlns:xlink="http://www.w3.org/1999/xlink">
    <title>spring-rolls</title>
    <g id="Page-1" stroke="none" stroke-width="1" fill="none" fill-rule="evenodd">
        <g id="spring-rolls" transform="translate(0.500000, 0.000000)" fill="#3F4870" fill-rule="nonzero">
            <path d="M11.728,17.76 C11.1,17.385 10.03,16.938 8.5,16.938 C6.97,16.938 5.9,17.385 5.272,17.76 C4.344,18.314 3.812,19.039 3.812,19.75 C3.812,20.461 4.344,21.186 5.272,21.74 C5.9,22.115 6.97,22.562 8.5,22.562 C10.03,22.562 11.1,22.115 11.728,21.74 C12.656,21.186 13.188,20.461 13.188,19.75 C13.188,19.039 12.656,18.314 11.728,17.76 L11.728,17.76 Z M8.5,20.688 C6.924,20.688 6.021,20.064 5.749,19.75 C6.02,19.436 6.923,18.812 8.5,18.812 C10.077,18.812 10.979,19.436 11.251,19.75 C10.98,20.064 10.077,20.688 8.5,20.688 Z" id="Shape"></path>
            <path d="M24.438,13.228 L24.438,6.563 C24.438,4.758 23.525,3.079 21.866,1.835 C20.288,0.652 18.205,0 16,0 C13.795,0 11.712,0.652 10.134,1.835 C8.476,3.079 7.562,4.758 7.562,6.563 L7.562,13.228 C3.315,13.589 -0.001,16.376 -0.001,19.75 L-0.001,25.748 L0.012,25.748 C0.13,27.412 1.039,28.957 2.6,30.133 C4.199,31.337 6.294,32 8.498,32 C11.759,32 14.594,30.54 15.998,28.408 C17.402,30.539 20.237,32 23.498,32 C25.702,32 27.797,31.337 29.396,30.133 C31.074,28.87 31.998,27.18 31.998,25.375 L31.998,19.75 C31.998,16.376 28.683,13.589 24.435,13.228 L24.438,13.228 Z M11.259,3.335 C12.514,2.393 14.198,1.875 16,1.875 C17.802,1.875 19.485,2.393 20.741,3.335 C21.916,4.216 22.563,5.362 22.563,6.563 C22.563,7.764 21.916,8.909 20.741,9.79 C19.486,10.731 17.802,11.25 16,11.25 C14.198,11.25 12.515,10.732 11.259,9.79 C10.084,8.909 9.437,7.763 9.437,6.562 C9.437,5.361 10.084,4.216 11.259,3.334 L11.259,3.335 Z M15.063,25.375 C15.063,26.582 14.414,27.741 13.236,28.638 C11.977,29.597 10.295,30.125 8.501,30.125 C4.91,30.125 1.876,27.95 1.876,25.375 L1.876,23.856 C3.435,25.353 5.826,26.312 8.501,26.312 C10.706,26.312 12.789,25.66 14.367,24.477 C14.616,24.29 14.849,24.093 15.064,23.887 L15.064,25.374 L15.063,25.375 Z M13.241,22.977 C11.986,23.919 10.302,24.437 8.5,24.437 C6.692,24.437 4.996,23.917 3.724,22.974 C2.532,22.09 1.875,20.945 1.875,19.75 C1.875,18.555 2.532,17.41 3.724,16.526 C4.996,15.582 6.693,15.063 8.5,15.063 C10.302,15.063 11.985,15.581 13.241,16.523 C14.416,17.404 15.063,18.55 15.063,19.75 C15.063,20.95 14.416,22.096 13.241,22.977 Z M16,16.723 C15.584,16.099 15.036,15.525 14.366,15.022 C13.014,14.008 11.291,13.385 9.438,13.227 L9.438,10.7 C9.653,10.906 9.885,11.103 10.135,11.29 C11.713,12.473 13.796,13.125 16.001,13.125 C18.206,13.125 20.289,12.473 21.867,11.29 C22.116,11.103 22.349,10.906 22.564,10.7 L22.564,13.227 C20.711,13.385 18.988,14.008 17.636,15.022 C16.966,15.525 16.418,16.098 16.002,16.723 L16,16.723 Z M30.125,25.375 C30.125,27.95 27.091,30.125 23.5,30.125 C21.706,30.125 20.024,29.597 18.765,28.638 C17.587,27.741 16.938,26.582 16.938,25.375 L16.938,23.888 C17.153,24.094 17.385,24.291 17.635,24.478 C19.213,25.661 21.296,26.313 23.501,26.313 C26.176,26.313 28.567,25.353 30.126,23.857 L30.126,25.376 L30.125,25.375 Z M28.276,22.974 C27.003,23.918 25.307,24.437 23.5,24.437 C21.698,24.437 20.015,23.919 18.759,22.977 C17.584,22.096 16.937,20.95 16.937,19.75 C16.937,18.55 17.584,17.404 18.759,16.523 C20.014,15.582 21.698,15.063 23.5,15.063 C25.308,15.063 27.004,15.583 28.276,16.526 C29.468,17.41 30.125,18.555 30.125,19.75 C30.125,20.945 29.468,22.09 28.276,22.974 Z" id="Shape"></path>
            <path d="M26.728,17.76 C26.1,17.385 25.03,16.938 23.5,16.938 C21.97,16.938 20.9,17.385 20.272,17.76 C19.345,18.314 18.813,19.039 18.813,19.75 C18.813,20.461 19.345,21.186 20.272,21.74 C20.9,22.115 21.97,22.562 23.5,22.562 C25.03,22.562 26.1,22.115 26.728,21.74 C27.655,21.186 28.187,20.461 28.187,19.75 C28.187,19.039 27.655,18.314 26.728,17.76 Z M23.5,20.688 C21.924,20.688 21.021,20.064 20.749,19.75 C21.02,19.436 21.923,18.812 23.5,18.812 C25.077,18.812 25.979,19.436 26.251,19.75 C25.98,20.064 25.077,20.688 23.5,20.688 Z" id="Shape"></path>
            <path d="M19.228,4.572 C18.6,4.197 17.53,3.75 16,3.75 C14.47,3.75 13.4,4.197 12.772,4.572 C11.844,5.126 11.312,5.851 11.312,6.562 C11.312,7.273 11.844,7.999 12.772,8.552 C13.4,8.927 14.47,9.374 16,9.374 C17.53,9.374 18.6,8.927 19.228,8.552 C20.155,7.998 20.687,7.273 20.687,6.562 C20.687,5.851 20.155,5.125 19.228,4.572 L19.228,4.572 Z M16,7.5 C14.424,7.5 13.521,6.876 13.249,6.562 C13.52,6.248 14.423,5.624 16,5.624 C17.577,5.624 18.479,6.248 18.751,6.562 C18.48,6.876 17.577,7.5 16,7.5 Z" id="Shape"></path>
        </g>
    </g>
</svg>