<svg version="1.2" xmlns="http://www.w3.org/2000/svg" viewBox="0 0 97 97" width="97" height="97"><style>.a{fill:#d73472}.b{fill:#f5ad41}</style><path fill-rule="evenodd" class="a" d="m97.5 49.5c0 26.5-21.5 48-48 48-26.5 0-48-21.5-48-48 0-26.5 21.5-48 48-48 26.5 0 48 21.5 48 48zm-85 0c0 20.4 16.6 37 37 37 20.4 0 37-16.6 37-37 0-20.4-16.6-37-37-37-20.4 0-37 16.6-37 37z"/><path class="b" d="m43.8 92c0-3 2.4-5.4 5.3-5.5h0.4c20.4 0 37-16.6 37-37 0-20.4-16.6-37-37-37-3 0-5.5-2.5-5.5-5.5 0-3 2.5-5.5 5.5-5.5 26.5 0 48 21.5 48 48 0 26.5-21.5 48-48 48h-0.2c-3.1 0-5.5-2.5-5.5-5.5z"/></svg>